<?xml version="1.0" encoding="UTF-8" standalone="no"?>
<svg width="80px" height="100px" viewBox="0 0 80 100" version="1.1" xmlns="http://www.w3.org/2000/svg" xmlns:xlink="http://www.w3.org/1999/xlink">
    <!-- Generator: sketchtool 3.6.1 (26313) - http://www.bohemiancoding.com/sketch -->
    <title>CF2A67B0-F7B0-4A74-BBA0-079425FDB200</title>
    <desc>Created with sketchtool.</desc>
    <defs></defs>
    <g id="Welcome" stroke="none" stroke-width="1" fill="none" fill-rule="evenodd">
        <g id="1-Homepage" transform="translate(-798.000000, -48.000000)" fill="#FFFFFF">
            <g id="LOGO" transform="translate(798.000000, 48.000000)">
                <g id="Group-8">
                    <g id="Group" transform="translate(0.000000, 85.576923)">
                        <path d="M10.3063685,1.69732441 C10.3063685,1.10981048 9.83256689,0.654960981 9.26400502,0.654960981 L1.17147436,0.654960981 C0.583960424,0.654960981 0.129110925,1.10981048 0.129110925,1.69732441 C0.129110925,2.26588629 0.583960424,2.75863991 1.17147436,2.75863991 L4.16590022,2.75863991 L4.16590022,12.8790412 C4.16590022,13.4665552 4.63970178,13.9214047 5.20826366,13.9214047 C5.79577759,13.9214047 6.25062709,13.4665552 6.25062709,12.8790412 L6.25062709,2.75863991 L9.26400502,2.75863991 C9.83256689,2.75863991 10.3063685,2.26588629 10.3063685,1.69732441 L10.3063685,1.69732441 Z M22.4356884,0.996098105 C21.9808389,0.654960981 21.3364688,0.749721293 20.9763796,1.22352285 L17.7355769,5.65830546 L14.4947742,1.22352285 C14.1725892,0.749721293 13.5282191,0.654960981 13.0544175,0.996098105 C12.5806159,1.33723523 12.4858556,1.98160535 12.8459448,2.43645485 L16.6932135,7.76198439 L16.6932135,12.8790412 C16.6932135,13.4665552 17.1859671,13.9214047 17.7355769,13.9214047 C18.3230909,13.9214047 18.7779404,13.4665552 18.7779404,12.8790412 L18.7779404,7.76198439 L22.6631132,2.43645485 C22.9852982,1.98160535 22.8905379,1.33723523 22.4356884,0.996098105 L22.4356884,0.996098105 Z M25.9228679,13.9214047 C26.5103818,13.9214047 26.9652313,13.4476031 26.9652313,12.8790412 L26.9652313,10.1878484 L28.9362458,8.17892977 L33.0298913,13.5423634 C33.238364,13.7887402 33.5226449,13.9214047 33.8069259,13.9214047 C34.0533027,13.9214047 34.2807274,13.8455964 34.470248,13.6750279 C34.9250975,13.3149387 35.0009058,12.6516165 34.6218645,12.2157191 L30.4145067,6.7006689 L34.5839604,2.55016722 C34.9819537,2.13322185 34.9819537,1.46989967 34.5839604,1.07190635 C34.1670151,0.654960981 33.5226449,0.654960981 33.1056996,1.07190635 L26.9652313,7.23132664 L26.9652313,1.79208473 C26.9652313,1.24247492 26.5103818,0.749721293 25.9228679,0.749721293 C25.335354,0.749721293 24.8805045,1.24247492 24.8805045,1.79208473 L24.8805045,12.8790412 C24.8805045,13.4476031 25.335354,13.9214047 25.9228679,13.9214047 L25.9228679,13.9214047 Z M43.4156215,0.275919732 C41.5962235,0.275919732 39.928442,1.05295429 38.7723662,2.30379041 C37.5973384,3.55462653 36.896112,5.22240803 36.896112,7.09866221 C36.896112,8.97491639 37.5973384,10.6616499 38.7723662,11.893534 C39.928442,13.1254181 41.5962235,13.9214047 43.4156215,13.9214047 C45.1592113,13.9214047 46.8269928,13.1254181 47.9451644,11.893534 C49.1201923,10.6616499 49.8593227,8.97491639 49.8593227,7.09866221 C49.8593227,5.22240803 49.1201923,3.55462653 47.9451644,2.30379041 C46.8269928,1.05295429 45.1592113,0.275919732 43.4156215,0.275919732 L43.4156215,0.275919732 Z M46.4100474,10.3963211 C45.6140608,11.2491639 44.5527453,11.7608696 43.4156215,11.7608696 C42.2026895,11.7608696 41.141374,11.2491639 40.3453874,10.3963211 C39.5494008,9.58138239 39.0566472,8.38740245 39.0566472,7.09866221 C39.0566472,5.80992196 39.5494008,4.61594203 40.3453874,3.78205128 C41.141374,2.92920847 42.2026895,2.43645485 43.4156215,2.43645485 C44.5527453,2.43645485 45.6140608,2.92920847 46.4100474,3.78205128 C47.1870819,4.61594203 47.6987876,5.80992196 47.6987876,7.09866221 C47.6987876,8.38740245 47.1870819,9.58138239 46.4100474,10.3963211 L46.4100474,10.3963211 Z M59.335354,0.275919732 C57.515956,0.275919732 55.8481745,1.05295429 54.6920987,2.30379041 C53.5170708,3.55462653 52.8158445,5.22240803 52.8158445,7.09866221 C52.8158445,8.97491639 53.5170708,10.6616499 54.6920987,11.893534 C55.8481745,13.1254181 57.515956,13.9214047 59.335354,13.9214047 C61.0789437,13.9214047 62.7467252,13.1254181 63.8648969,11.893534 C65.0399247,10.6616499 65.7790552,8.97491639 65.7790552,7.09866221 C65.7790552,5.22240803 65.0399247,3.55462653 63.8648969,2.30379041 C62.7467252,1.05295429 61.0789437,0.275919732 59.335354,0.275919732 L59.335354,0.275919732 Z M62.3297798,10.3963211 C61.5337932,11.2491639 60.4724777,11.7608696 59.335354,11.7608696 C58.122422,11.7608696 57.0611065,11.2491639 56.2651198,10.3963211 C55.4691332,9.58138239 54.9763796,8.38740245 54.9763796,7.09866221 C54.9763796,5.80992196 55.4691332,4.61594203 56.2651198,3.78205128 C57.0611065,2.92920847 58.122422,2.43645485 59.335354,2.43645485 C60.4724777,2.43645485 61.5337932,2.92920847 62.3297798,3.78205128 C63.1068144,4.61594203 63.6185201,5.80992196 63.6185201,7.09866221 C63.6185201,8.38740245 63.1068144,9.58138239 62.3297798,10.3963211 L62.3297798,10.3963211 Z M71.1045847,5.01393534 L77.1692447,13.4286511 C77.1881968,13.4665552 77.2261009,13.5044593 77.264005,13.5423634 C77.4535256,13.7697882 77.7378066,13.9214047 78.0410396,13.9214047 C78.6096014,13.9214047 79.083403,13.4476031 79.083403,12.8790412 L79.083403,1.86789298 C79.083403,1.31828317 78.6096014,0.844481605 78.0410396,0.844481605 C77.4724777,0.844481605 77.0176282,1.31828317 77.0176282,1.86789298 L77.0176282,9.6761427 L70.896112,1.20457079 C70.573927,0.749721293 69.9295569,0.654960981 69.4557553,0.977146042 C69.1714744,1.18561873 69.0198579,1.52675585 69.0388099,1.84894091 L69.0388099,1.86789298 L69.0388099,12.8790412 C69.0388099,13.4476031 69.4936594,13.9214047 70.0811734,13.9214047 C70.6307832,13.9214047 71.1045847,13.4476031 71.1045847,12.8790412 L71.1045847,5.01393534 Z" id="TYKOON"></path>
                    </g>
                    <g id="Group-7" transform="translate(2.884615, 0.000000)">
                        <path d="M50.5045895,28.8877799 C50.5045895,30.1272147 50.0324239,31.197203 49.1394977,31.985415 C48.3132078,32.7127024 47.1918144,33.0839617 45.8076837,33.0839617 L42.5177553,33.0839617 L42.5177553,48.8044124 C42.5177553,50.3865481 42.0950908,51.6469258 41.2611854,52.5512753 C40.3930098,53.4917988 39.2335385,53.990619 37.9046207,53.990619 C36.5642795,53.990619 35.3933848,53.4898949 34.5214015,52.5436597 C33.6817844,51.6335985 33.257216,50.3751248 33.257216,48.8044124 L33.257216,33.0839617 L29.9672876,33.0839617 C28.5717335,33.0839617 27.4484362,32.7069908 26.6297619,31.9644722 C25.7615863,31.180068 25.302748,30.1157914 25.302748,28.8877799 C25.302748,27.6159789 25.786337,26.5307594 26.6983021,25.7482591 C27.5283997,25.0381067 28.6269464,24.6763669 29.9672876,24.6763669 L45.8076837,24.6763669 C47.2146611,24.6763669 48.345574,25.0552418 49.16996,25.803472 C50.0438473,26.5954918 50.5045895,27.6616723 50.5045895,28.8877799" id="Fill-122"></path>
                        <path d="M60.1876408,37.9360159 C60.1876408,25.6206792 50.2032412,15.6362796 37.8879045,15.6362796 C25.5716158,15.6362796 15.5881682,25.6206792 15.5881682,37.9360159 C15.5881682,50.2523046 25.5716158,60.2357522 37.8879045,60.2357522 C50.2032412,60.2357522 60.1876408,50.2523046 60.1876408,37.9360159 M37.8879045,8.40471993 C54.1972295,8.40471993 67.4182485,21.6266909 67.4182485,37.9360159 C67.4182485,54.2453409 54.1972295,67.4673119 37.8879045,67.4673119 C21.5776275,67.4673119 8.35660853,54.2453409 8.35660853,37.9360159 C8.35660853,21.6266909 21.5776275,8.40471993 37.8879045,8.40471993" id="Fill-124"></path>
                        <path d="M60.2867956,60.3362969 C54.3047615,66.3202349 46.3483895,69.6139711 37.8874856,69.6139711 C29.4265818,69.6139711 21.4702098,66.3202349 15.4881757,60.3362969 C9.50423761,54.3523588 6.20859752,46.3978907 6.20859752,37.9369869 C6.20859752,29.4741792 9.50423761,21.5197111 15.4881757,15.535773 C21.4702098,9.55183495 29.4265818,6.25809876 37.8874856,6.25809876 C46.3483895,6.25809876 54.3047615,9.55183495 60.2867956,15.535773 C66.2707337,21.5197111 69.5663738,29.4741792 69.5663738,37.9369869 C69.5663738,46.3978907 66.2707337,54.3523588 60.2867956,60.3362969 L60.2867956,60.3362969 Z M74.4841313,47.7420397 L70.1832354,43.4411437 C70.3203157,42.6281811 70.4250299,41.8076029 70.5011856,40.981313 L75.7749713,37.9369869 L70.5011856,34.8907569 C70.4250299,34.064467 70.3184118,33.2438888 70.1832354,32.4309262 L74.4841313,28.1300302 L68.6182347,26.5574139 C68.3307467,25.7768175 68.0108926,25.0076444 67.66248,24.2517986 L70.6991906,18.9932441 L64.6143461,18.9932441 C64.1383727,18.3230735 63.6338408,17.668134 63.1026545,17.0303296 L64.6771746,11.145394 L58.7960468,12.721818 C58.1582424,12.1906317 57.503303,11.6860998 56.8312285,11.2082225 L56.8312285,5.12528198 L51.5726739,8.16199251 C50.8168281,7.81167606 50.0457511,7.4937258 49.2651547,7.20623785 L47.6925385,1.3403412 L43.3916425,5.64123718 C42.5786799,5.50415683 41.7581016,5.39944268 40.9318118,5.32328693 L37.8874856,0.0495012375 L34.8431595,5.32328693 C34.0168697,5.39944268 33.1962914,5.50415683 32.3833288,5.64123718 L28.0805289,1.3403412 L26.5098166,7.20623785 C25.7292202,7.4937258 24.9581432,7.81167606 24.2022974,8.16199251 L18.9437428,5.12528198 L18.9437428,11.2082225 C18.2716683,11.6860998 17.6167289,12.1906317 16.9789245,12.721818 L11.0977967,11.145394 L12.6723168,17.0303296 C12.1411305,17.668134 11.6365986,18.3230735 11.1606252,18.9932441 L5.07578074,18.9932441 L8.11249127,24.2517986 C7.76407872,25.0076444 7.44422457,25.7768175 7.15673661,26.5574139 L1.29083996,28.1300302 L5.59173595,32.4309262 C5.45655949,33.2438888 5.34994144,34.064467 5.27378569,34.8907569 L0,37.9369869 L5.27378569,40.981313 C5.34994144,41.8076029 5.4546556,42.6281811 5.59173595,43.4411437 L1.29083996,47.7420397 L7.15673661,49.3146559 C7.44422457,50.0952524 7.76407872,50.8644255 8.11249127,51.6202713 L5.07578074,56.8807297 L11.1606252,56.8807297 C11.6385025,57.5509003 12.1430343,58.2058398 12.6723168,58.8436442 L11.0977967,64.7266759 L16.9789245,63.1502518 C17.6167289,63.6814382 18.2716683,64.18597 18.9437428,64.6638474 L18.9437428,70.7467879 L24.2022974,67.7100774 C24.9581432,68.0603938 25.7292202,68.3783441 26.5098166,68.665832 L28.0805289,74.5317287 L32.3833288,70.2308327 C33.1962914,70.367913 34.0168697,70.4726272 34.8431595,70.548783 L37.8874856,75.8244725 L40.9318118,70.548783 C41.7581016,70.4726272 42.5786799,70.367913 43.3916425,70.2308327 L47.6925385,74.5317287 L49.2651547,68.665832 C50.0457511,68.3783441 50.8168281,68.0603938 51.5726739,67.7100774 L56.8312285,70.7467879 L56.8312285,64.6638474 C57.503303,64.18597 58.1582424,63.6814382 58.7960468,63.1502518 L64.6771746,64.7266759 L63.1026545,58.8436442 C63.631937,58.2058398 64.1364688,57.5509003 64.6143461,56.8807297 L70.6991906,56.8807297 L67.66248,51.6202713 C68.0108926,50.8644255 68.3307467,50.0952524 68.6182347,49.3146559 L74.4841313,47.7420397 Z" id="Fill-126"></path>
                    </g>
                </g>
            </g>
        </g>
    </g>
</svg>