<?xml version="1.0" encoding="UTF-8" standalone="no"?>
<svg width="1680px" height="712px" viewBox="0 0 1680 712" version="1.1" xmlns="http://www.w3.org/2000/svg" xmlns:xlink="http://www.w3.org/1999/xlink">
    <!-- Generator: sketchtool 3.7.2 (28276) - http://www.bohemiancoding.com/sketch -->
    <title>4A6EBBB8-9CE2-41C0-A4EA-C9D97DA85236</title>
    <desc>Created with sketchtool.</desc>
    <defs></defs>
    <g id="Welcome" stroke="none" stroke-width="1" fill="none" fill-rule="evenodd" opacity="0.5">
        <g id="1-Homepage" transform="translate(0.000000, -188.000000)" stroke="#FFFFFF" stroke-width="0.5">
            <g id="dollarBg" transform="translate(0.000000, 188.000000)">
                <g id="doller" transform="translate(573.684211, 0.842105)">
                    <path d="M20.7652986,37.2462668 L20.7652986,33.8707337 C18.363477,33.7733626 16.0590265,33.1242216 14.6958305,32.3452524 L15.7669131,28.1907502 C17.2599374,29.0021764 19.3696455,29.7486885 21.674096,29.7486885 C23.7188901,29.7486885 25.0820861,28.9697193 25.0820861,27.5416092 C25.0820861,26.1784131 23.9460894,25.3345299 21.3170685,24.4581895 C17.5195937,23.1599076 14.8905728,21.4072269 14.8905728,17.9343227 C14.8905728,14.785989 17.0976521,12.3517103 20.8951268,11.6051982 L20.8951268,8.22966507 L24.4004881,8.22966507 L24.4004881,11.3779988 C26.8023097,11.47537 28.3927051,11.9946827 29.5611589,12.5464526 L28.5225333,16.5711266 C27.5812789,16.1816421 25.9584265,15.3702158 23.3943196,15.3702158 C21.0898691,15.3702158 20.343357,16.3763844 20.343357,17.3500958 C20.343357,18.5185496 21.5767249,19.2650617 24.6276875,20.4010584 C28.8795609,21.8940827 30.5673274,23.8415056 30.5673274,27.0547534 C30.5673274,30.2355442 28.327791,32.9294793 24.2382029,33.6435344 L24.2382029,37.2787239 L20.7652986,37.2787239 L20.7652986,37.2462668 Z" id="Shape"></path>
                    <path d="M22.525192,45.0503839 C34.965512,45.0503839 45.0503839,34.965512 45.0503839,22.525192 C45.0503839,10.084872 34.965512,0 22.525192,0 C10.084872,0 0,10.084872 0,22.525192 C0,34.965512 10.084872,45.0503839 22.525192,45.0503839 Z M22.525192,41.5233846 C33.017604,41.5233846 41.5233846,33.017604 41.5233846,22.525192 C41.5233846,12.0327799 33.017604,3.52699932 22.525192,3.52699932 C12.0327799,3.52699932 3.52699932,12.0327799 3.52699932,22.525192 C3.52699932,33.017604 12.0327799,41.5233846 22.525192,41.5233846 Z" id="Combined-Shape"></path>
                </g>
                <g id="doller-copy-10" transform="translate(1349.000000, 150.000000)">
                    <path d="M20.7652986,37.2462668 L20.7652986,33.8707337 C18.363477,33.7733626 16.0590265,33.1242216 14.6958305,32.3452524 L15.7669131,28.1907502 C17.2599374,29.0021764 19.3696455,29.7486885 21.674096,29.7486885 C23.7188901,29.7486885 25.0820861,28.9697193 25.0820861,27.5416092 C25.0820861,26.1784131 23.9460894,25.3345299 21.3170685,24.4581895 C17.5195937,23.1599076 14.8905728,21.4072269 14.8905728,17.9343227 C14.8905728,14.785989 17.0976521,12.3517103 20.8951268,11.6051982 L20.8951268,8.22966507 L24.4004881,8.22966507 L24.4004881,11.3779988 C26.8023097,11.47537 28.3927051,11.9946827 29.5611589,12.5464526 L28.5225333,16.5711266 C27.5812789,16.1816421 25.9584265,15.3702158 23.3943196,15.3702158 C21.0898691,15.3702158 20.343357,16.3763844 20.343357,17.3500958 C20.343357,18.5185496 21.5767249,19.2650617 24.6276875,20.4010584 C28.8795609,21.8940827 30.5673274,23.8415056 30.5673274,27.0547534 C30.5673274,30.2355442 28.327791,32.9294793 24.2382029,33.6435344 L24.2382029,37.2787239 L20.7652986,37.2787239 L20.7652986,37.2462668 Z" id="Shape"></path>
                    <path d="M22.525192,45.0503839 C34.965512,45.0503839 45.0503839,34.965512 45.0503839,22.525192 C45.0503839,10.084872 34.965512,0 22.525192,0 C10.084872,0 0,10.084872 0,22.525192 C0,34.965512 10.084872,45.0503839 22.525192,45.0503839 Z M22.525192,41.5233846 C33.017604,41.5233846 41.5233846,33.017604 41.5233846,22.525192 C41.5233846,12.0327799 33.017604,3.52699932 22.525192,3.52699932 C12.0327799,3.52699932 3.52699932,12.0327799 3.52699932,22.525192 C3.52699932,33.017604 12.0327799,41.5233846 22.525192,41.5233846 Z" id="Combined-Shape"></path>
                </g>
                <g id="doller-copy-11" transform="translate(1090.526316, 631.368421)">
                    <path d="M20.7652986,37.2462668 L20.7652986,33.8707337 C18.363477,33.7733626 16.0590265,33.1242216 14.6958305,32.3452524 L15.7669131,28.1907502 C17.2599374,29.0021764 19.3696455,29.7486885 21.674096,29.7486885 C23.7188901,29.7486885 25.0820861,28.9697193 25.0820861,27.5416092 C25.0820861,26.1784131 23.9460894,25.3345299 21.3170685,24.4581895 C17.5195937,23.1599076 14.8905728,21.4072269 14.8905728,17.9343227 C14.8905728,14.785989 17.0976521,12.3517103 20.8951268,11.6051982 L20.8951268,8.22966507 L24.4004881,8.22966507 L24.4004881,11.3779988 C26.8023097,11.47537 28.3927051,11.9946827 29.5611589,12.5464526 L28.5225333,16.5711266 C27.5812789,16.1816421 25.9584265,15.3702158 23.3943196,15.3702158 C21.0898691,15.3702158 20.343357,16.3763844 20.343357,17.3500958 C20.343357,18.5185496 21.5767249,19.2650617 24.6276875,20.4010584 C28.8795609,21.8940827 30.5673274,23.8415056 30.5673274,27.0547534 C30.5673274,30.2355442 28.327791,32.9294793 24.2382029,33.6435344 L24.2382029,37.2787239 L20.7652986,37.2787239 L20.7652986,37.2462668 Z" id="Shape"></path>
                    <path d="M22.525192,45.0503839 C34.965512,45.0503839 45.0503839,34.965512 45.0503839,22.525192 C45.0503839,10.084872 34.965512,0 22.525192,0 C10.084872,0 0,10.084872 0,22.525192 C0,34.965512 10.084872,45.0503839 22.525192,45.0503839 Z M22.525192,41.5233846 C33.017604,41.5233846 41.5233846,33.017604 41.5233846,22.525192 C41.5233846,12.0327799 33.017604,3.52699932 22.525192,3.52699932 C12.0327799,3.52699932 3.52699932,12.0327799 3.52699932,22.525192 C3.52699932,33.017604 12.0327799,41.5233846 22.525192,41.5233846 Z" id="Combined-Shape"></path>
                </g>
                <g id="doller-copy" transform="translate(493.000000, 278.000000)">
                    <path d="M15.9361594,28.5843443 L15.9361594,25.9938189 C14.092901,25.9190922 12.3243692,25.4209142 11.2781955,24.8231007 L12.1001891,21.6347618 C13.2459984,22.2574842 14.8650768,22.8303889 16.6336086,22.8303889 C18.2028691,22.8303889 19.2490429,22.2325753 19.2490429,21.1365838 C19.2490429,20.0904101 18.3772314,19.4427787 16.3596107,18.7702385 C13.4452696,17.7738826 11.4276489,16.4288021 11.4276489,13.76355 C11.4276489,11.3473869 13.1214539,9.47921952 16.035795,8.90631487 L16.035795,6.31578947 L18.725956,6.31578947 L18.725956,8.73195258 C20.5692144,8.80667927 21.7897504,9.20522164 22.6864708,9.62867291 L21.889386,12.7173763 C21.167028,12.4184695 19.9215831,11.795747 17.9537802,11.795747 C16.1852484,11.795747 15.6123437,12.5679229 15.6123437,13.3151898 C15.6123437,14.2119101 16.5588819,14.7848148 18.9003183,15.6566262 C22.1633839,16.8024355 23.4586466,18.2969694 23.4586466,20.7629503 C23.4586466,23.2040223 21.7399327,25.2714609 18.6014115,25.8194566 L18.6014115,28.6092532 L15.9361594,28.6092532 L15.9361594,28.5843443 Z" id="Shape"></path>
                    <path d="M17.2867752,34.5735504 C26.8339975,34.5735504 34.5735504,26.8339975 34.5735504,17.2867752 C34.5735504,7.73955289 26.8339975,0 17.2867752,0 C7.73955289,0 0,7.73955289 0,17.2867752 C0,26.8339975 7.73955289,34.5735504 17.2867752,34.5735504 Z M17.2867752,31.8667835 C25.3390915,31.8667835 31.8667835,25.3390915 31.8667835,17.2867752 C31.8667835,9.23445898 25.3390915,2.70676692 17.2867752,2.70676692 C9.23445898,2.70676692 2.70676692,9.23445898 2.70676692,17.2867752 C2.70676692,25.3390915 9.23445898,31.8667835 17.2867752,31.8667835 Z" id="Combined-Shape"></path>
                </g>
                <g id="doller-copy-4" transform="translate(672.000000, 161.000000)">
                    <path d="M15.9361594,28.5843443 L15.9361594,25.9938189 C14.092901,25.9190922 12.3243692,25.4209142 11.2781955,24.8231007 L12.1001891,21.6347618 C13.2459984,22.2574842 14.8650768,22.8303889 16.6336086,22.8303889 C18.2028691,22.8303889 19.2490429,22.2325753 19.2490429,21.1365838 C19.2490429,20.0904101 18.3772314,19.4427787 16.3596107,18.7702385 C13.4452696,17.7738826 11.4276489,16.4288021 11.4276489,13.76355 C11.4276489,11.3473869 13.1214539,9.47921952 16.035795,8.90631487 L16.035795,6.31578947 L18.725956,6.31578947 L18.725956,8.73195258 C20.5692144,8.80667927 21.7897504,9.20522164 22.6864708,9.62867291 L21.889386,12.7173763 C21.167028,12.4184695 19.9215831,11.795747 17.9537802,11.795747 C16.1852484,11.795747 15.6123437,12.5679229 15.6123437,13.3151898 C15.6123437,14.2119101 16.5588819,14.7848148 18.9003183,15.6566262 C22.1633839,16.8024355 23.4586466,18.2969694 23.4586466,20.7629503 C23.4586466,23.2040223 21.7399327,25.2714609 18.6014115,25.8194566 L18.6014115,28.6092532 L15.9361594,28.6092532 L15.9361594,28.5843443 Z" id="Shape"></path>
                    <path d="M17.2867752,34.5735504 C26.8339975,34.5735504 34.5735504,26.8339975 34.5735504,17.2867752 C34.5735504,7.73955289 26.8339975,0 17.2867752,0 C7.73955289,0 0,7.73955289 0,17.2867752 C0,26.8339975 7.73955289,34.5735504 17.2867752,34.5735504 Z M17.2867752,31.8667835 C25.3390915,31.8667835 31.8667835,25.3390915 31.8667835,17.2867752 C31.8667835,9.23445898 25.3390915,2.70676692 17.2867752,2.70676692 C9.23445898,2.70676692 2.70676692,9.23445898 2.70676692,17.2867752 C2.70676692,25.3390915 9.23445898,31.8667835 17.2867752,31.8667835 Z" id="Combined-Shape"></path>
                </g>
                <g id="doller-copy-8" transform="translate(1020.000000, 93.473684)">
                    <path d="M15.9361594,28.5843443 L15.9361594,25.9938189 C14.092901,25.9190922 12.3243692,25.4209142 11.2781955,24.8231007 L12.1001891,21.6347618 C13.2459984,22.2574842 14.8650768,22.8303889 16.6336086,22.8303889 C18.2028691,22.8303889 19.2490429,22.2325753 19.2490429,21.1365838 C19.2490429,20.0904101 18.3772314,19.4427787 16.3596107,18.7702385 C13.4452696,17.7738826 11.4276489,16.4288021 11.4276489,13.76355 C11.4276489,11.3473869 13.1214539,9.47921952 16.035795,8.90631487 L16.035795,6.31578947 L18.725956,6.31578947 L18.725956,8.73195258 C20.5692144,8.80667927 21.7897504,9.20522164 22.6864708,9.62867291 L21.889386,12.7173763 C21.167028,12.4184695 19.9215831,11.795747 17.9537802,11.795747 C16.1852484,11.795747 15.6123437,12.5679229 15.6123437,13.3151898 C15.6123437,14.2119101 16.5588819,14.7848148 18.9003183,15.6566262 C22.1633839,16.8024355 23.4586466,18.2969694 23.4586466,20.7629503 C23.4586466,23.2040223 21.7399327,25.2714609 18.6014115,25.8194566 L18.6014115,28.6092532 L15.9361594,28.6092532 L15.9361594,28.5843443 Z" id="Shape"></path>
                    <path d="M17.2867752,34.5735504 C26.8339975,34.5735504 34.5735504,26.8339975 34.5735504,17.2867752 C34.5735504,7.73955289 26.8339975,0 17.2867752,0 C7.73955289,0 0,7.73955289 0,17.2867752 C0,26.8339975 7.73955289,34.5735504 17.2867752,34.5735504 Z M17.2867752,31.8667835 C25.3390915,31.8667835 31.8667835,25.3390915 31.8667835,17.2867752 C31.8667835,9.23445898 25.3390915,2.70676692 17.2867752,2.70676692 C9.23445898,2.70676692 2.70676692,9.23445898 2.70676692,17.2867752 C2.70676692,25.3390915 9.23445898,31.8667835 17.2867752,31.8667835 Z" id="Combined-Shape"></path>
                </g>
                <g id="doller-copy-9" transform="translate(1293.684211, 551.368421)">
                    <path d="M15.9361594,28.5843443 L15.9361594,25.9938189 C14.092901,25.9190922 12.3243692,25.4209142 11.2781955,24.8231007 L12.1001891,21.6347618 C13.2459984,22.2574842 14.8650768,22.8303889 16.6336086,22.8303889 C18.2028691,22.8303889 19.2490429,22.2325753 19.2490429,21.1365838 C19.2490429,20.0904101 18.3772314,19.4427787 16.3596107,18.7702385 C13.4452696,17.7738826 11.4276489,16.4288021 11.4276489,13.76355 C11.4276489,11.3473869 13.1214539,9.47921952 16.035795,8.90631487 L16.035795,6.31578947 L18.725956,6.31578947 L18.725956,8.73195258 C20.5692144,8.80667927 21.7897504,9.20522164 22.6864708,9.62867291 L21.889386,12.7173763 C21.167028,12.4184695 19.9215831,11.795747 17.9537802,11.795747 C16.1852484,11.795747 15.6123437,12.5679229 15.6123437,13.3151898 C15.6123437,14.2119101 16.5588819,14.7848148 18.9003183,15.6566262 C22.1633839,16.8024355 23.4586466,18.2969694 23.4586466,20.7629503 C23.4586466,23.2040223 21.7399327,25.2714609 18.6014115,25.8194566 L18.6014115,28.6092532 L15.9361594,28.6092532 L15.9361594,28.5843443 Z" id="Shape"></path>
                    <path d="M17.2867752,34.5735504 C26.8339975,34.5735504 34.5735504,26.8339975 34.5735504,17.2867752 C34.5735504,7.73955289 26.8339975,0 17.2867752,0 C7.73955289,0 0,7.73955289 0,17.2867752 C0,26.8339975 7.73955289,34.5735504 17.2867752,34.5735504 Z M17.2867752,31.8667835 C25.3390915,31.8667835 31.8667835,25.3390915 31.8667835,17.2867752 C31.8667835,9.23445898 25.3390915,2.70676692 17.2867752,2.70676692 C9.23445898,2.70676692 2.70676692,9.23445898 2.70676692,17.2867752 C2.70676692,25.3390915 9.23445898,31.8667835 17.2867752,31.8667835 Z" id="Combined-Shape"></path>
                </g>
                <g id="doller-copy-2" transform="translate(1645.263158, 200.842105)">
                    <path d="M15.9361594,28.5843443 L15.9361594,25.9938189 C14.092901,25.9190922 12.3243692,25.4209142 11.2781955,24.8231007 L12.1001891,21.6347618 C13.2459984,22.2574842 14.8650768,22.8303889 16.6336086,22.8303889 C18.2028691,22.8303889 19.2490429,22.2325753 19.2490429,21.1365838 C19.2490429,20.0904101 18.3772314,19.4427787 16.3596107,18.7702385 C13.4452696,17.7738826 11.4276489,16.4288021 11.4276489,13.76355 C11.4276489,11.3473869 13.1214539,9.47921952 16.035795,8.90631487 L16.035795,6.31578947 L18.725956,6.31578947 L18.725956,8.73195258 C20.5692144,8.80667927 21.7897504,9.20522164 22.6864708,9.62867291 L21.889386,12.7173763 C21.167028,12.4184695 19.9215831,11.795747 17.9537802,11.795747 C16.1852484,11.795747 15.6123437,12.5679229 15.6123437,13.3151898 C15.6123437,14.2119101 16.5588819,14.7848148 18.9003183,15.6566262 C22.1633839,16.8024355 23.4586466,18.2969694 23.4586466,20.7629503 C23.4586466,23.2040223 21.7399327,25.2714609 18.6014115,25.8194566 L18.6014115,28.6092532 L15.9361594,28.6092532 L15.9361594,28.5843443 Z" id="Shape"></path>
                    <path d="M17.2867752,34.5735504 C26.8339975,34.5735504 34.5735504,26.8339975 34.5735504,17.2867752 C34.5735504,7.73955289 26.8339975,0 17.2867752,0 C7.73955289,0 0,7.73955289 0,17.2867752 C0,26.8339975 7.73955289,34.5735504 17.2867752,34.5735504 Z M17.2867752,31.8667835 C25.3390915,31.8667835 31.8667835,25.3390915 31.8667835,17.2867752 C31.8667835,9.23445898 25.3390915,2.70676692 17.2867752,2.70676692 C9.23445898,2.70676692 2.70676692,9.23445898 2.70676692,17.2867752 C2.70676692,25.3390915 9.23445898,31.8667835 17.2867752,31.8667835 Z" id="Combined-Shape"></path>
                </g>
                <g id="doller-copy-12" transform="translate(0.000000, 676.631579)">
                    <path d="M15.9361594,28.5843443 L15.9361594,25.9938189 C14.092901,25.9190922 12.3243692,25.4209142 11.2781955,24.8231007 L12.1001891,21.6347618 C13.2459984,22.2574842 14.8650768,22.8303889 16.6336086,22.8303889 C18.2028691,22.8303889 19.2490429,22.2325753 19.2490429,21.1365838 C19.2490429,20.0904101 18.3772314,19.4427787 16.3596107,18.7702385 C13.4452696,17.7738826 11.4276489,16.4288021 11.4276489,13.76355 C11.4276489,11.3473869 13.1214539,9.47921952 16.035795,8.90631487 L16.035795,6.31578947 L18.725956,6.31578947 L18.725956,8.73195258 C20.5692144,8.80667927 21.7897504,9.20522164 22.6864708,9.62867291 L21.889386,12.7173763 C21.167028,12.4184695 19.9215831,11.795747 17.9537802,11.795747 C16.1852484,11.795747 15.6123437,12.5679229 15.6123437,13.3151898 C15.6123437,14.2119101 16.5588819,14.7848148 18.9003183,15.6566262 C22.1633839,16.8024355 23.4586466,18.2969694 23.4586466,20.7629503 C23.4586466,23.2040223 21.7399327,25.2714609 18.6014115,25.8194566 L18.6014115,28.6092532 L15.9361594,28.6092532 L15.9361594,28.5843443 Z" id="Shape"></path>
                    <path d="M17.2867752,34.5735504 C26.8339975,34.5735504 34.5735504,26.8339975 34.5735504,17.2867752 C34.5735504,7.73955289 26.8339975,0 17.2867752,0 C7.73955289,0 0,7.73955289 0,17.2867752 C0,26.8339975 7.73955289,34.5735504 17.2867752,34.5735504 Z M17.2867752,31.8667835 C25.3390915,31.8667835 31.8667835,25.3390915 31.8667835,17.2867752 C31.8667835,9.23445898 25.3390915,2.70676692 17.2867752,2.70676692 C9.23445898,2.70676692 2.70676692,9.23445898 2.70676692,17.2867752 C2.70676692,25.3390915 9.23445898,31.8667835 17.2867752,31.8667835 Z" id="Combined-Shape"></path>
                </g>
                <g id="doller-copy-3" transform="translate(163.157895, 295.578947)">
                    <path d="M15.9361594,28.5843443 L15.9361594,25.9938189 C14.092901,25.9190922 12.3243692,25.4209142 11.2781955,24.8231007 L12.1001891,21.6347618 C13.2459984,22.2574842 14.8650768,22.8303889 16.6336086,22.8303889 C18.2028691,22.8303889 19.2490429,22.2325753 19.2490429,21.1365838 C19.2490429,20.0904101 18.3772314,19.4427787 16.3596107,18.7702385 C13.4452696,17.7738826 11.4276489,16.4288021 11.4276489,13.76355 C11.4276489,11.3473869 13.1214539,9.47921952 16.035795,8.90631487 L16.035795,6.31578947 L18.725956,6.31578947 L18.725956,8.73195258 C20.5692144,8.80667927 21.7897504,9.20522164 22.6864708,9.62867291 L21.889386,12.7173763 C21.167028,12.4184695 19.9215831,11.795747 17.9537802,11.795747 C16.1852484,11.795747 15.6123437,12.5679229 15.6123437,13.3151898 C15.6123437,14.2119101 16.5588819,14.7848148 18.9003183,15.6566262 C22.1633839,16.8024355 23.4586466,18.2969694 23.4586466,20.7629503 C23.4586466,23.2040223 21.7399327,25.2714609 18.6014115,25.8194566 L18.6014115,28.6092532 L15.9361594,28.6092532 L15.9361594,28.5843443 Z" id="Shape"></path>
                    <path d="M17.2867752,34.5735504 C26.8339975,34.5735504 34.5735504,26.8339975 34.5735504,17.2867752 C34.5735504,7.73955289 26.8339975,0 17.2867752,0 C7.73955289,0 0,7.73955289 0,17.2867752 C0,26.8339975 7.73955289,34.5735504 17.2867752,34.5735504 Z M17.2867752,31.8667835 C25.3390915,31.8667835 31.8667835,25.3390915 31.8667835,17.2867752 C31.8667835,9.23445898 25.3390915,2.70676692 17.2867752,2.70676692 C9.23445898,2.70676692 2.70676692,9.23445898 2.70676692,17.2867752 C2.70676692,25.3390915 9.23445898,31.8667835 17.2867752,31.8667835 Z" id="Combined-Shape"></path>
                </g>
                <g id="doller-copy-7" transform="translate(475.789474, 460.842105)">
                    <path d="M15.9361594,28.5843443 L15.9361594,25.9938189 C14.092901,25.9190922 12.3243692,25.4209142 11.2781955,24.8231007 L12.1001891,21.6347618 C13.2459984,22.2574842 14.8650768,22.8303889 16.6336086,22.8303889 C18.2028691,22.8303889 19.2490429,22.2325753 19.2490429,21.1365838 C19.2490429,20.0904101 18.3772314,19.4427787 16.3596107,18.7702385 C13.4452696,17.7738826 11.4276489,16.4288021 11.4276489,13.76355 C11.4276489,11.3473869 13.1214539,9.47921952 16.035795,8.90631487 L16.035795,6.31578947 L18.725956,6.31578947 L18.725956,8.73195258 C20.5692144,8.80667927 21.7897504,9.20522164 22.6864708,9.62867291 L21.889386,12.7173763 C21.167028,12.4184695 19.9215831,11.795747 17.9537802,11.795747 C16.1852484,11.795747 15.6123437,12.5679229 15.6123437,13.3151898 C15.6123437,14.2119101 16.5588819,14.7848148 18.9003183,15.6566262 C22.1633839,16.8024355 23.4586466,18.2969694 23.4586466,20.7629503 C23.4586466,23.2040223 21.7399327,25.2714609 18.6014115,25.8194566 L18.6014115,28.6092532 L15.9361594,28.6092532 L15.9361594,28.5843443 Z" id="Shape"></path>
                    <path d="M17.2867752,34.5735504 C26.8339975,34.5735504 34.5735504,26.8339975 34.5735504,17.2867752 C34.5735504,7.73955289 26.8339975,0 17.2867752,0 C7.73955289,0 0,7.73955289 0,17.2867752 C0,26.8339975 7.73955289,34.5735504 17.2867752,34.5735504 Z M17.2867752,31.8667835 C25.3390915,31.8667835 31.8667835,25.3390915 31.8667835,17.2867752 C31.8667835,9.23445898 25.3390915,2.70676692 17.2867752,2.70676692 C9.23445898,2.70676692 2.70676692,9.23445898 2.70676692,17.2867752 C2.70676692,25.3390915 9.23445898,31.8667835 17.2867752,31.8667835 Z" id="Combined-Shape"></path>
                </g>
                <g id="doller-copy-5" transform="translate(216.000000, 12.000000)">
                    <path d="M10.1411924,18.1900373 L10.1411924,16.5415211 C8.9682097,16.4939678 7.8427804,16.1769454 7.17703349,15.7965186 L7.70012035,13.7675757 C8.42927173,14.1638536 9.45959433,14.5284293 10.5850236,14.5284293 C11.583644,14.5284293 12.2493909,14.1480025 12.2493909,13.4505533 C12.2493909,12.7848064 11.6946018,12.3726774 10.4106613,11.9446972 C8.55608066,11.3106525 7.27214019,10.4546922 7.27214019,8.75862271 C7.27214019,7.22106437 8.35001614,6.0322306 10.2045968,5.66765492 L10.2045968,4.01913876 L11.9165175,4.01913876 L11.9165175,5.5566971 C13.0895001,5.60425045 13.8662048,5.85786832 14.436845,6.12733731 L13.9296093,8.0928758 C13.4699269,7.9026624 12.6773711,7.50638448 11.4251328,7.50638448 C10.2997035,7.50638448 9.93512784,7.9977691 9.93512784,8.47330261 C9.93512784,9.04394282 10.5374703,9.40851851 12.0274753,9.9633076 C14.1039716,10.692459 14.9282297,11.643526 14.9282297,13.2127866 C14.9282297,14.766196 13.8345026,16.0818387 11.8372619,16.4305633 L11.8372619,18.2058884 L10.1411924,18.2058884 L10.1411924,18.1900373 Z" id="Shape"></path>
                    <path d="M11.0006751,22.0013503 C17.0761803,22.0013503 22.0013503,17.0761803 22.0013503,11.0006751 C22.0013503,4.92517002 17.0761803,0 11.0006751,0 C4.92517002,0 0,4.92517002 0,11.0006751 C0,17.0761803 4.92517002,22.0013503 11.0006751,22.0013503 Z M11.0006751,20.2788622 C16.1248764,20.2788622 20.2788622,16.1248764 20.2788622,11.0006751 C20.2788622,5.8764739 16.1248764,1.72248804 11.0006751,1.72248804 C5.8764739,1.72248804 1.72248804,5.8764739 1.72248804,11.0006751 C1.72248804,16.1248764 5.8764739,20.2788622 11.0006751,20.2788622 Z" id="Combined-Shape"></path>
                </g>
                <g id="doller-copy-6" transform="translate(287.000000, 643.000000)">
                    <path d="M10.1411924,18.1900373 L10.1411924,16.5415211 C8.9682097,16.4939678 7.8427804,16.1769454 7.17703349,15.7965186 L7.70012035,13.7675757 C8.42927173,14.1638536 9.45959433,14.5284293 10.5850236,14.5284293 C11.583644,14.5284293 12.2493909,14.1480025 12.2493909,13.4505533 C12.2493909,12.7848064 11.6946018,12.3726774 10.4106613,11.9446972 C8.55608066,11.3106525 7.27214019,10.4546922 7.27214019,8.75862271 C7.27214019,7.22106437 8.35001614,6.0322306 10.2045968,5.66765492 L10.2045968,4.01913876 L11.9165175,4.01913876 L11.9165175,5.5566971 C13.0895001,5.60425045 13.8662048,5.85786832 14.436845,6.12733731 L13.9296093,8.0928758 C13.4699269,7.9026624 12.6773711,7.50638448 11.4251328,7.50638448 C10.2997035,7.50638448 9.93512784,7.9977691 9.93512784,8.47330261 C9.93512784,9.04394282 10.5374703,9.40851851 12.0274753,9.9633076 C14.1039716,10.692459 14.9282297,11.643526 14.9282297,13.2127866 C14.9282297,14.766196 13.8345026,16.0818387 11.8372619,16.4305633 L11.8372619,18.2058884 L10.1411924,18.2058884 L10.1411924,18.1900373 Z" id="Shape"></path>
                    <path d="M11.0006751,22.0013503 C17.0761803,22.0013503 22.0013503,17.0761803 22.0013503,11.0006751 C22.0013503,4.92517002 17.0761803,0 11.0006751,0 C4.92517002,0 0,4.92517002 0,11.0006751 C0,17.0761803 4.92517002,22.0013503 11.0006751,22.0013503 Z M11.0006751,20.2788622 C16.1248764,20.2788622 20.2788622,16.1248764 20.2788622,11.0006751 C20.2788622,5.8764739 16.1248764,1.72248804 11.0006751,1.72248804 C5.8764739,1.72248804 1.72248804,5.8764739 1.72248804,11.0006751 C1.72248804,16.1248764 5.8764739,20.2788622 11.0006751,20.2788622 Z" id="Combined-Shape"></path>
                </g>
                <g id="doller-copy-13" transform="translate(1477.894737, 22.947368)">
                    <path d="M10.1411924,18.1900373 L10.1411924,16.5415211 C8.9682097,16.4939678 7.8427804,16.1769454 7.17703349,15.7965186 L7.70012035,13.7675757 C8.42927173,14.1638536 9.45959433,14.5284293 10.5850236,14.5284293 C11.583644,14.5284293 12.2493909,14.1480025 12.2493909,13.4505533 C12.2493909,12.7848064 11.6946018,12.3726774 10.4106613,11.9446972 C8.55608066,11.3106525 7.27214019,10.4546922 7.27214019,8.75862271 C7.27214019,7.22106437 8.35001614,6.0322306 10.2045968,5.66765492 L10.2045968,4.01913876 L11.9165175,4.01913876 L11.9165175,5.5566971 C13.0895001,5.60425045 13.8662048,5.85786832 14.436845,6.12733731 L13.9296093,8.0928758 C13.4699269,7.9026624 12.6773711,7.50638448 11.4251328,7.50638448 C10.2997035,7.50638448 9.93512784,7.9977691 9.93512784,8.47330261 C9.93512784,9.04394282 10.5374703,9.40851851 12.0274753,9.9633076 C14.1039716,10.692459 14.9282297,11.643526 14.9282297,13.2127866 C14.9282297,14.766196 13.8345026,16.0818387 11.8372619,16.4305633 L11.8372619,18.2058884 L10.1411924,18.2058884 L10.1411924,18.1900373 Z" id="Shape"></path>
                    <path d="M11.0006751,22.0013503 C17.0761803,22.0013503 22.0013503,17.0761803 22.0013503,11.0006751 C22.0013503,4.92517002 17.0761803,0 11.0006751,0 C4.92517002,0 0,4.92517002 0,11.0006751 C0,17.0761803 4.92517002,22.0013503 11.0006751,22.0013503 Z M11.0006751,20.2788622 C16.1248764,20.2788622 20.2788622,16.1248764 20.2788622,11.0006751 C20.2788622,5.8764739 16.1248764,1.72248804 11.0006751,1.72248804 C5.8764739,1.72248804 1.72248804,5.8764739 1.72248804,11.0006751 C1.72248804,16.1248764 5.8764739,20.2788622 11.0006751,20.2788622 Z" id="Combined-Shape"></path>
                </g>
            </g>
        </g>
    </g>
</svg>