<?xml version="1.0" encoding="UTF-8" standalone="no"?>
<svg width="194px" height="58px" viewBox="0 0 194 58" version="1.1" xmlns="http://www.w3.org/2000/svg" xmlns:xlink="http://www.w3.org/1999/xlink">
    <!-- Generator: sketchtool 3.6.1 (26313) - http://www.bohemiancoding.com/sketch -->
    <title>1DF8940F-2C0C-4340-BDC7-D3D90E60B921</title>
    <desc>Created with sketchtool.</desc>
    <defs></defs>
    <g id="Welcome" stroke="none" stroke-width="1" fill="none" fill-rule="evenodd">
        <g id="5-One-Family-One-App" transform="translate(-1035.000000, -528.000000)">
            <g id="Group-2" transform="translate(1035.000000, 373.000000)">
                <g id="Group-6" transform="translate(0.000000, 155.000000)">
                    <path d="M186.493041,57.2928767 L6.88213699,57.2928767 C3.14947945,57.2928767 0,54.2029863 0,50.4735068 L0,6.75342466 C0,3.02315068 3.14947945,0.0873972603 6.88213699,0.0873972603 L186.493041,0.0873972603 C190.222521,0.0873972603 193.068493,3.02315068 193.068493,6.75342466 L193.068493,50.4735068 C193.068493,54.2029863 190.128767,57.2928767 186.398493,57.2928767 L186.493041,57.2928767" id="Fill-14" fill-opacity="0.3" fill="#201E1E"></path>
                    <path d="M43.2409863,28.3087671 C43.1996712,23.6957808 47.0189315,21.4504658 47.193726,21.345589 C45.0310411,18.192137 41.6773699,17.7607123 40.4998904,17.7273425 C37.6841096,17.4317808 34.9533425,19.4125205 33.5184384,19.4125205 C32.055726,19.4125205 29.8461644,17.7567397 27.4665753,17.8052055 C24.4036986,17.8528767 21.5370685,19.6262466 19.9655068,22.3800548 C16.722274,27.995726 19.1407945,36.2492055 22.2481644,40.7883014 C23.8030411,43.0105753 25.6193151,45.4934521 27.9965205,45.4052603 C30.3228767,45.3091233 31.1912877,43.9218904 33.9999178,43.9218904 C36.7815342,43.9218904 37.5967123,45.4052603 40.021589,45.3496438 C42.5179726,45.3091233 44.0903288,43.1170411 45.5903836,40.8733151 C47.3867945,38.3252877 48.1082192,35.8153973 48.1368219,35.6866849 C48.0788219,35.6676164 43.2886575,33.8402192 43.2409863,28.3087671" id="Fill-17" fill="#FFFFFF"></path>
                    <path d="M38.6605753,14.7415342 C39.9111507,13.1771233 40.7668493,11.0486027 40.5292877,8.88750685 C38.7185753,8.96775342 36.4533973,10.1396712 35.1503836,11.6707123 C33.9967397,13.0190137 32.9654521,15.2301644 33.2316164,17.3086301 C35.265589,17.459589 37.3543836,16.2821096 38.6605753,14.7415342" id="Fill-18" fill="#FFFFFF"></path>
                    <path d="M71.338411,37.1438356 L69.7271233,32.1693425 C69.5578904,31.6608493 69.2376986,30.4643014 68.7665479,28.5804932 L68.7093425,28.5804932 C68.5218356,29.3909041 68.2199178,30.5866575 67.8051781,32.1693425 L66.2224932,37.1438356 L71.338411,37.1438356 L71.338411,37.1438356 Z M76.906411,45.0866575 L73.6560274,45.0866575 L71.8755068,39.4908493 L65.6861918,39.4908493 L63.9890959,45.0866575 L60.8245205,45.0866575 L66.9574247,26.0364384 L70.7449041,26.0364384 L76.906411,45.0866575 L76.906411,45.0866575 Z" id="Fill-19" fill="#FFFFFF"></path>
                    <path d="M89.5686849,38.1616164 C89.5686849,36.8244384 89.2675616,35.7216438 88.6645205,34.8548219 C88.004274,33.9506575 87.1191781,33.4977808 86.0076438,33.4977808 C85.2536438,33.4977808 84.5703562,33.7496438 83.9585753,34.2470137 C83.346,34.7475616 82.9455616,35.4014521 82.7572603,36.2126575 C82.6627123,36.5900548 82.6158356,36.9007123 82.6158356,37.1438356 L82.6158356,39.4336438 C82.6158356,40.4331507 82.9225205,41.276137 83.5343014,41.9633973 C84.1468767,42.6514521 84.9429863,42.9954795 85.9226301,42.9954795 C87.0723014,42.9954795 87.967726,42.552137 88.6073151,41.6670411 C89.2476986,40.7811507 89.5686849,39.612411 89.5686849,38.1616164 L89.5686849,38.1616164 Z M92.6776438,38.049589 C92.6776438,40.3854795 92.0467945,42.2319452 90.7843014,43.5881918 C89.6536986,44.794274 88.2497808,45.3973151 86.5733425,45.3973151 C84.7642192,45.3973151 83.463589,44.7473973 82.6730411,43.4467671 L82.6158356,43.4467671 L82.6158356,50.6832603 L79.5632877,50.6832603 L79.5632877,35.8726027 C79.5632877,34.4035342 79.5251507,32.8963288 79.4504658,31.3501918 L82.1351507,31.3501918 L82.3051781,33.5271781 L82.361589,33.5271781 C83.3793699,31.8872877 84.9239178,31.068137 86.9968219,31.068137 C88.6176438,31.068137 89.9691233,31.7085205 91.0528493,32.9884932 C92.1357808,34.2724384 92.6776438,35.958411 92.6776438,38.049589 L92.6776438,38.049589 Z" id="Fill-20" fill="#FFFFFF"></path>
                    <path d="M105.368521,38.1616164 C105.368521,36.8244384 105.066603,35.7216438 104.462767,34.8548219 C103.803315,33.9506575 102.919014,33.4977808 101.806685,33.4977808 C101.05189,33.4977808 100.369397,33.7496438 99.7568219,34.2470137 C99.1450411,34.7475616 98.7453973,35.4014521 98.5570959,36.2126575 C98.4633425,36.5900548 98.4156712,36.9007123 98.4156712,37.1438356 L98.4156712,39.4336438 C98.4156712,40.4331507 98.7223562,41.276137 99.3317534,41.9633973 C99.9443288,42.6514521 100.741233,42.9954795 101.722466,42.9954795 C102.872137,42.9954795 103.766767,42.552137 104.407151,41.6670411 C105.04674,40.7811507 105.368521,39.612411 105.368521,38.1616164 L105.368521,38.1616164 Z M108.477479,38.049589 C108.477479,40.3854795 107.845836,42.2319452 106.581753,43.5881918 C105.45274,44.794274 104.048822,45.3973151 102.371589,45.3973151 C100.562466,45.3973151 99.2626301,44.7473973 98.4720822,43.4467671 L98.4156712,43.4467671 L98.4156712,50.6832603 L95.3631233,50.6832603 L95.3631233,35.8726027 C95.3631233,34.4035342 95.3249863,32.8963288 95.2503014,31.3501918 L97.9349863,31.3501918 L98.1050137,33.5271781 L98.1614247,33.5271781 C99.178411,31.8872877 100.722164,31.068137 102.796658,31.068137 C104.415096,31.068137 105.768164,31.7085205 106.853479,32.9884932 C107.935616,34.2724384 108.477479,35.958411 108.477479,38.049589 L108.477479,38.049589 Z" id="Fill-21" fill="#FFFFFF"></path>
                    <path d="M126.142849,39.7450959 C126.142849,41.3651233 125.580329,42.6840274 124.450521,43.7010137 C123.209479,44.814137 121.481397,45.3695068 119.261507,45.3695068 C117.212438,45.3695068 115.567781,44.9738356 114.324356,44.1824932 L115.031479,41.6376438 C116.371041,42.4488493 117.840904,42.8540548 119.443452,42.8540548 C120.592329,42.8540548 121.486959,42.5942466 122.130521,42.0754247 C122.770904,41.5573973 123.089507,40.8621918 123.089507,39.9937808 C123.089507,39.2207123 122.826521,38.5692055 122.298164,38.0408493 C121.772192,37.5124932 120.894247,37.022274 119.66989,36.5678082 C116.334493,35.323589 114.667589,33.5017534 114.667589,31.1038904 C114.667589,29.5386849 115.252356,28.2547397 116.421096,27.2544384 C117.586658,26.254137 119.141534,25.753589 121.084932,25.753589 C122.817781,25.753589 124.258247,26.0555068 125.407123,26.6577534 L124.643589,29.1453973 C123.570192,28.5622192 122.356959,28.2690411 120.998329,28.2690411 C119.924137,28.2690411 119.085918,28.5336164 118.484466,29.0611781 C117.975178,29.5323288 117.720932,30.1059726 117.720932,30.7852877 C117.720932,31.5392877 118.011726,32.1613973 118.596493,32.6508219 C119.104986,33.1036986 120.027425,33.5931233 121.366986,34.1214795 C123.005288,34.7809315 124.210575,35.552411 124.985233,36.4375068 C125.756712,37.3241918 126.142849,38.4269863 126.142849,39.7450959" id="Fill-22" fill="#FFFFFF"></path>
                    <path d="M136.23326,33.64 L132.86926,33.64 L132.86926,40.31 C132.86926,42.0055068 133.461973,42.8540548 134.650575,42.8540548 C135.195616,42.8540548 135.648493,42.8063836 136.006822,42.7134247 L136.090247,45.0310411 C135.489589,45.2558904 134.698247,45.3695068 133.717014,45.3695068 C132.511726,45.3695068 131.569425,45.0016438 130.89011,44.2675068 C130.213178,43.5325753 129.872329,42.2978904 129.872329,40.5642466 L129.872329,33.64 L127.867753,33.64 L127.867753,31.3501918 L129.872329,31.3501918 L129.872329,28.8347397 L132.86926,27.9305753 L132.86926,31.3501918 L136.23326,31.3501918 L136.23326,33.64" id="Fill-23" fill="#FFFFFF"></path>
                    <path d="M148.244027,38.2045205 C148.244027,36.9380548 147.973096,35.8519452 147.424877,34.9446027 C146.785288,33.8481644 145.870795,33.3007397 144.68537,33.3007397 C143.457836,33.3007397 142.526658,33.8481644 141.886274,34.9446027 C141.338055,35.8519452 141.067123,36.9563288 141.067123,38.261726 C141.067123,39.5281918 141.338055,40.6150959 141.886274,41.5208493 C142.546521,42.6164932 143.468959,43.1647123 144.657562,43.1647123 C145.823123,43.1647123 146.737616,42.6069589 147.397068,41.4930411 C147.961973,40.5674247 148.244027,39.4693973 148.244027,38.2045205 L148.244027,38.2045205 Z M151.412575,38.1052055 C151.412575,40.2162466 150.807945,41.9498904 149.603452,43.306137 C148.33937,44.7013151 146.662137,45.3973151 144.570164,45.3973151 C142.554466,45.3973151 140.949534,44.7291233 139.752986,43.3911507 C138.556438,42.0531781 137.958164,40.3656164 137.958164,38.3316438 C137.958164,36.2031233 138.573123,34.4591507 139.808603,33.1036986 C141.042493,31.745863 142.705425,31.068137 144.796603,31.068137 C146.813096,31.068137 148.434712,31.7363288 149.659068,33.0750959 C150.827808,34.375726 151.412575,36.0513699 151.412575,38.1052055 L151.412575,38.1052055 Z" id="Fill-24" fill="#FFFFFF"></path>
                    <path d="M161.332164,34.0340822 C161.030247,33.9784658 160.708466,33.9506575 160.37,33.9506575 C159.296603,33.9506575 158.466329,34.355863 157.882356,35.1670685 C157.373068,35.882137 157.118822,36.7870959 157.118822,37.8787671 L157.118822,45.0866575 L154.068658,45.0866575 L154.096466,35.6755616 C154.096466,34.0920822 154.057534,32.6508219 153.98126,31.3501918 L156.640521,31.3501918 L156.752548,33.9784658 L156.836767,33.9784658 C157.157753,33.0750959 157.667041,32.3489041 158.363041,31.8030685 C159.042356,31.3128493 159.778082,31.068137 160.56863,31.068137 C160.851479,31.068137 161.105726,31.0872055 161.332164,31.1237534 L161.332164,34.0340822" id="Fill-25" fill="#FFFFFF"></path>
                    <path d="M172.071699,36.7775616 C172.090767,35.8726027 171.892137,35.091589 171.478986,34.4313425 C170.949836,33.5827945 170.139425,33.1593151 169.046164,33.1593151 C168.048247,33.1593151 167.237041,33.5732603 166.616521,34.4035342 C166.107233,35.0637808 165.80611,35.8543288 165.713151,36.7775616 L172.071699,36.7775616 L172.071699,36.7775616 Z M174.982027,37.5689041 C174.982027,38.1147397 174.945479,38.5763562 174.87,38.9529589 L165.713151,38.9529589 C165.749699,40.31 166.191452,41.3468493 167.041589,42.0627123 C167.813068,42.7030959 168.810986,43.0232877 170.036137,43.0232877 C171.391589,43.0232877 172.627863,42.8063836 173.740986,42.3733699 L174.218493,44.4931507 C172.918658,45.0588493 171.383644,45.3409041 169.613452,45.3409041 C167.483342,45.3409041 165.811671,44.7148219 164.59526,43.4610685 C163.381233,42.2081096 162.771836,40.5269041 162.771836,38.415863 C162.771836,36.3437534 163.33674,34.6188493 164.468932,33.2435342 C165.654356,31.7736712 167.256904,31.0403288 169.272603,31.0403288 C171.252548,31.0403288 172.751014,31.7736712 173.768795,33.2435342 C174.576822,34.412274 174.982027,35.8543288 174.982027,37.5689041 L174.982027,37.5689041 Z" id="Fill-26" fill="#FFFFFF"></path>
                    <path d="M68.7466849,14.3577808 C68.7466849,13.2653151 68.4574795,12.4278904 67.878274,11.8447123 C67.299863,11.2615342 66.4552877,10.9699452 65.3437534,10.9699452 C64.8718082,10.9699452 64.4689863,11.001726 64.1360822,11.0676712 L64.1360822,18.0650137 C64.320411,18.0936164 64.6588767,18.1071233 65.1498904,18.1071233 C66.2971781,18.1071233 67.183863,17.787726 67.8091507,17.1489315 C68.4336438,16.510137 68.7466849,15.5797534 68.7466849,14.3577808 L68.7466849,14.3577808 Z M70.3293699,14.3164658 C70.3293699,16.0016438 69.8248493,17.2696986 68.8150137,18.1214247 C67.879863,18.908 66.5522192,19.3012877 64.8312877,19.3012877 C63.9779726,19.3012877 63.2470137,19.2639452 62.6360274,19.1900548 L62.6360274,9.98394521 C63.4329315,9.85443836 64.2926027,9.78928767 65.2198082,9.78928767 C66.8581096,9.78928767 68.093589,10.1460274 68.9270411,10.8587123 C69.8606027,11.6643562 70.3293699,12.816411 70.3293699,14.3164658 L70.3293699,14.3164658 Z" id="Fill-27" fill="#FFFFFF"></path>
                    <path d="M77.159863,15.8371781 C77.159863,15.2150685 77.025589,14.6811507 76.7570411,14.2354247 C76.442411,13.6967397 75.9935068,13.4273973 75.4111233,13.4273973 C74.8080822,13.4273973 74.3496438,13.6967397 74.0350137,14.2354247 C73.7664658,14.6811507 73.6321918,15.2238082 73.6321918,15.8641918 C73.6321918,16.4870959 73.7664658,17.0202192 74.0350137,17.4667397 C74.3591781,18.0046301 74.8120548,18.2739726 75.3968219,18.2739726 C75.9696712,18.2739726 76.4185753,17.999863 76.7427397,17.4524384 C77.0216164,16.9971781 77.159863,16.4592877 77.159863,15.8371781 L77.159863,15.8371781 Z M78.7155342,15.7879178 C78.7155342,16.8255616 78.4191781,17.6764932 77.8264658,18.3430959 C77.2059452,19.0287671 76.3828219,19.3712055 75.3547123,19.3712055 C74.3639452,19.3712055 73.5757808,19.042274 72.9870411,18.3852055 C72.3998904,17.728137 72.1059178,16.8986575 72.1059178,15.8991507 C72.1059178,14.8535616 72.4078356,13.9970685 73.0148493,13.3304658 C73.6210685,12.663863 74.4378356,12.3309589 75.4651507,12.3309589 C76.4567123,12.3309589 77.2520274,12.6598904 77.854274,13.3161644 C78.4279178,13.9549589 78.7155342,14.7796712 78.7155342,15.7879178 L78.7155342,15.7879178 Z" id="Fill-28" fill="#FFFFFF"></path>
                    <path d="M89.9619726,12.4692055 L87.851726,19.217863 L86.4772055,19.217863 L85.6016438,16.2876712 C85.3799726,15.5567123 85.1996164,14.829726 85.0597808,14.1075068 L85.0327671,14.1075068 C84.9032603,14.8487945 84.7229041,15.5757808 84.4909041,16.2876712 L83.5613151,19.217863 L82.1716986,19.217863 L80.1861918,12.4692055 L81.7283562,12.4692055 L82.4918904,15.6766849 C82.6762192,16.4362466 82.8287671,17.1584658 82.9503288,17.8433425 L82.9765479,17.8433425 C83.0885753,17.2792329 83.2729041,16.5609863 83.5327123,15.6909863 L84.4909041,12.4692055 L85.7128767,12.4692055 L86.6297534,15.621863 C86.8522192,16.3901644 87.0325753,17.1306575 87.1708219,17.8433425 L87.212137,17.8433425 C87.3146301,17.1489315 87.4671781,16.4084384 87.6713699,15.621863 L88.4905205,12.4692055 L89.9619726,12.4692055" id="Fill-29" fill="#FFFFFF"></path>
                    <path d="M97.7395342,19.217863 L96.2394795,19.217863 L96.2394795,15.3533151 C96.2394795,14.1623288 95.7866027,13.5672329 94.8792603,13.5672329 C94.4343288,13.5672329 94.0736164,13.7301096 93.7955342,14.0582466 C93.5190411,14.3863836 93.3792055,14.771726 93.3792055,15.2150685 L93.3792055,19.217863 L91.8791507,19.217863 L91.8791507,14.3998904 C91.8791507,13.8071781 91.8608767,13.164411 91.8243288,12.4692055 L93.1424384,12.4692055 L93.2123562,13.5243288 L93.2544658,13.5243288 C93.4292603,13.1969863 93.6890685,12.9252603 94.0315068,12.7099452 C94.4383014,12.4572877 94.8927671,12.3309589 95.391726,12.3309589 C96.0225753,12.3309589 96.5453699,12.5343562 96.9616986,12.9419452 C97.4805205,13.4416986 97.7395342,14.1869589 97.7395342,15.1769315 L97.7395342,19.217863" id="Fill-30" fill="#FFFFFF"></path>
                    <path d="M100.378137,19.217863 L101.876603,19.217863 L101.876603,9.3729589 L100.378137,9.3729589 L100.378137,19.217863 Z" id="Fill-31" fill="#FFFFFF"></path>
                    <path d="M109.151233,15.8371781 C109.151233,15.2150685 109.017753,14.6811507 108.749205,14.2354247 C108.43537,13.6967397 107.985671,13.4273973 107.404082,13.4273973 C106.800247,13.4273973 106.341808,13.6967397 106.028767,14.2354247 C105.760219,14.6811507 105.625945,15.2238082 105.625945,15.8641918 C105.625945,16.4870959 105.760219,17.0202192 106.028767,17.4667397 C106.352932,18.0046301 106.805808,18.2739726 107.389781,18.2739726 C107.963425,18.2739726 108.41074,17.999863 108.734904,17.4524384 C109.014575,16.9971781 109.151233,16.4592877 109.151233,15.8371781 L109.151233,15.8371781 Z M110.708493,15.7879178 C110.708493,16.8255616 110.412932,17.6764932 109.819425,18.3430959 C109.198904,19.0287671 108.374192,19.3712055 107.348466,19.3712055 C106.355315,19.3712055 105.567151,19.042274 104.98,18.3852055 C104.392849,17.728137 104.098877,16.8986575 104.098877,15.8991507 C104.098877,14.8535616 104.401589,13.9970685 105.007808,13.3304658 C105.614822,12.663863 106.430795,12.3309589 107.457315,12.3309589 C108.449671,12.3309589 109.244192,12.6598904 109.848027,13.3161644 C110.420877,13.9549589 110.708493,14.7796712 110.708493,15.7879178 L110.708493,15.7879178 Z" id="Fill-32" fill="#FFFFFF"></path>
                    <path d="M116.412356,16.8986575 L116.412356,15.8578356 C114.75737,15.8300274 113.929479,16.2836986 113.929479,17.2180548 C113.929479,17.5708219 114.024822,17.8338082 114.21789,18.0101918 C114.410959,18.1857808 114.656466,18.2739726 114.950438,18.2739726 C115.280164,18.2739726 115.587644,18.1698904 115.867315,17.961726 C116.150164,17.7527671 116.32337,17.4873973 116.387726,17.1632329 C116.404411,17.0885479 116.412356,17.0011507 116.412356,16.8986575 L116.412356,16.8986575 Z M117.969616,19.217863 L116.62211,19.217863 L116.510082,18.4408219 L116.468767,18.4408219 C116.007151,19.0605479 115.350082,19.3712055 114.497562,19.3712055 C113.859562,19.3712055 113.345507,19.1670137 112.956986,18.7594247 C112.604219,18.3899726 112.42863,17.9315342 112.42863,17.3856986 C112.42863,16.5609863 112.772658,15.9325205 113.463096,15.4963288 C114.153534,15.061726 115.123644,14.8487945 116.373425,14.8575342 L116.373425,14.7327945 C116.373425,13.8445205 115.906247,13.399589 114.972685,13.399589 C114.307671,13.399589 113.719726,13.5672329 113.214411,13.8993425 L112.909315,12.914137 C113.535397,12.5256164 114.310055,12.3309589 115.224548,12.3309589 C116.988384,12.3309589 117.87189,13.2613425 117.87189,15.1221096 L117.87189,17.6073699 C117.87189,18.2827123 117.906055,18.8206027 117.969616,19.217863 L117.969616,19.217863 Z" id="Fill-33" fill="#FFFFFF"></path>
                    <path d="M124.939945,16.3718904 L124.939945,15.2460548 C124.939945,15.0521918 124.926438,14.8948767 124.89863,14.7749041 C124.814411,14.4141918 124.632466,14.1106849 124.355973,13.8651781 C124.076301,13.6196712 123.741014,13.4965205 123.351699,13.4965205 C122.793151,13.4965205 122.353781,13.7189863 122.032795,14.1639178 C121.713397,14.6080548 121.551315,15.1769315 121.551315,15.8713425 C121.551315,16.5379452 121.705452,17.0798082 122.012932,17.496137 C122.337096,17.940274 122.776466,18.1627397 123.32389,18.1627397 C123.816493,18.1627397 124.210575,17.9776164 124.509315,17.6073699 C124.797726,17.2649315 124.939945,16.8525753 124.939945,16.3718904 L124.939945,16.3718904 Z M126.494822,19.217863 L125.164,19.217863 L125.094082,18.1349315 L125.051973,18.1349315 C124.626904,18.9588493 123.903096,19.3712055 122.885315,19.3712055 C122.071726,19.3712055 121.394795,19.0518082 120.858493,18.4130137 C120.321397,17.7742192 120.052849,16.9455342 120.052849,15.9269589 C120.052849,14.8344932 120.343644,13.9501918 120.928411,13.2748493 C121.492521,12.645589 122.186137,12.3309589 123.010849,12.3309589 C123.916603,12.3309589 124.551425,12.6360548 124.912137,13.2470411 L124.939945,13.2470411 L124.939945,9.3729589 L126.441589,9.3729589 L126.441589,17.3992055 C126.441589,18.056274 126.458274,18.6624932 126.494822,19.217863 L126.494822,19.217863 Z" id="Fill-34" fill="#FFFFFF"></path>
                    <path d="M137.770658,15.8371781 C137.770658,15.2150685 137.636384,14.6811507 137.36863,14.2354247 C137.052411,13.6967397 136.605096,13.4273973 136.020329,13.4273973 C135.419671,13.4273973 134.961233,13.6967397 134.645014,14.2354247 C134.376466,14.6811507 134.242192,15.2238082 134.242192,15.8641918 C134.242192,16.4870959 134.376466,17.0202192 134.645014,17.4667397 C134.969178,18.0046301 135.422055,18.2739726 136.006822,18.2739726 C136.579671,18.2739726 137.030164,17.999863 137.354329,17.4524384 C137.630822,16.9971781 137.770658,16.4592877 137.770658,15.8371781 L137.770658,15.8371781 Z M139.325534,15.7879178 C139.325534,16.8255616 139.029178,17.6764932 138.436466,18.3430959 C137.815945,19.0287671 136.993616,19.3712055 135.964712,19.3712055 C134.97474,19.3712055 134.186575,19.042274 133.596247,18.3852055 C133.009096,17.728137 132.715918,16.8986575 132.715918,15.8991507 C132.715918,14.8535616 133.017836,13.9970685 133.624055,13.3304658 C134.231068,12.663863 135.047836,12.3309589 136.07674,12.3309589 C137.065918,12.3309589 137.862822,12.6598904 138.464274,13.3161644 C139.037123,13.9549589 139.325534,14.7796712 139.325534,15.7879178 L139.325534,15.7879178 Z" id="Fill-35" fill="#FFFFFF"></path>
                    <path d="M147.391507,19.217863 L145.893041,19.217863 L145.893041,15.3533151 C145.893041,14.1623288 145.440164,13.5672329 144.531233,13.5672329 C144.087096,13.5672329 143.726384,13.7301096 143.449096,14.0582466 C143.172603,14.3863836 143.032767,14.771726 143.032767,15.2150685 L143.032767,19.217863 L141.531123,19.217863 L141.531123,14.3998904 C141.531123,13.8071781 141.514438,13.164411 141.478685,12.4692055 L142.795205,12.4692055 L142.865123,13.5243288 L142.907233,13.5243288 C143.082822,13.1969863 143.343425,12.9252603 143.684274,12.7099452 C144.092658,12.4572877 144.545534,12.3309589 145.046082,12.3309589 C145.674548,12.3309589 146.197342,12.5343562 146.614466,12.9419452 C147.134082,13.4416986 147.391507,14.1869589 147.391507,15.1769315 L147.391507,19.217863" id="Fill-36" fill="#FFFFFF"></path>
                    <path d="M157.487479,13.5942466 L155.835671,13.5942466 L155.835671,16.8716438 C155.835671,17.7050959 156.128849,18.1214247 156.710438,18.1214247 C156.978986,18.1214247 157.202247,18.0983836 157.37863,18.0515068 L157.417562,19.1900548 C157.121205,19.3012877 156.732685,19.3569041 156.252,19.3569041 C155.659288,19.3569041 155.197671,19.1757534 154.865562,18.8158356 C154.529479,18.4543288 154.365014,17.8481096 154.365014,16.9963836 L154.365014,13.5942466 L153.377425,13.5942466 L153.377425,12.4692055 L154.365014,12.4692055 L154.365014,11.233726 L155.835671,10.789589 L155.835671,12.4692055 L157.487479,12.4692055 L157.487479,13.5942466" id="Fill-37" fill="#FFFFFF"></path>
                    <path d="M165.431096,19.217863 L163.929452,19.217863 L163.929452,15.3811233 C163.929452,14.1710685 163.476575,13.5672329 162.570822,13.5672329 C161.874822,13.5672329 161.399699,13.9176164 161.139096,14.6191781 C161.094603,14.7669589 161.069178,14.9473151 161.069178,15.1594521 L161.069178,19.217863 L159.570712,19.217863 L159.570712,9.3729589 L161.069178,9.3729589 L161.069178,13.4401096 L161.096986,13.4401096 C161.569726,12.700411 162.246658,12.3309589 163.124603,12.3309589 C163.745123,12.3309589 164.259178,12.5343562 164.667562,12.9419452 C165.176849,13.4504384 165.431096,14.2052329 165.431096,15.2055342 L165.431096,19.217863" id="Fill-38" fill="#FFFFFF"></path>
                    <path d="M172.191671,15.1356164 C172.202795,14.6914795 172.105068,14.3069315 171.900877,13.9835616 C171.641068,13.5672329 171.243808,13.358274 170.706712,13.358274 C170.217288,13.358274 169.817644,13.5616712 169.513342,13.9692603 C169.264658,14.2934247 169.116082,14.6819452 169.068411,15.1356164 L172.191671,15.1356164 L172.191671,15.1356164 Z M173.623397,15.5249315 C173.623397,15.7926849 173.603534,16.0191233 173.566986,16.2050411 L169.068411,16.2050411 C169.088274,16.8716438 169.303589,17.380137 169.719918,17.7321096 C170.100493,18.0475342 170.592301,18.2048493 171.193753,18.2048493 C171.858767,18.2048493 172.465781,18.0983836 173.014,17.8854521 L173.248384,18.926274 C172.608,19.2043562 171.856384,19.3433973 170.984,19.3433973 C169.938411,19.3433973 169.116082,19.0359178 168.520986,18.4201644 C167.921918,17.8036164 167.625562,16.9781096 167.625562,15.9412603 C167.625562,14.9226849 167.902849,14.075726 168.459014,13.399589 C169.040603,12.6773699 169.826384,12.3166575 170.81874,12.3166575 C171.788849,12.3166575 172.526959,12.6773699 173.025123,13.399589 C173.424767,13.9740274 173.623397,14.6819452 173.623397,15.5249315 L173.623397,15.5249315 Z" id="Fill-39" fill="#FFFFFF"></path>
                </g>
            </g>
        </g>
    </g>
</svg>