<?xml version="1.0" encoding="UTF-8" standalone="no"?>
<svg width="220px" height="211px" viewBox="0 0 220 211" version="1.1" xmlns="http://www.w3.org/2000/svg" xmlns:xlink="http://www.w3.org/1999/xlink">
    <!-- Generator: sketchtool 3.6.1 (26313) - http://www.bohemiancoding.com/sketch -->
    <title>355CE1FC-9E63-4775-9FCA-C278DE88C75C</title>
    <desc>Created with sketchtool.</desc>
    <defs></defs>
    <g id="Welcome" stroke="none" stroke-width="1" fill="none" fill-rule="evenodd">
        <g id="3-Earning-is-Fun" transform="translate(-522.000000, -674.000000)">
            <g id="earning_left_vector" transform="translate(522.000000, 674.000000)">
                <path d="M213.49,124.66 C213.46,120.08 209.991,116.28 205.552,115.73 C205.558,115.71 205.563,115.69 205.569,115.67 C209.258,116.04 213.458,119.45 213.49,124.66" id="Fill-918" fill="#FFFFFF"></path>
                <path d="M132.752,210.61 C115.945,210.61 102.365,210.35 99.448,209.58 C90.7,207.24 93.893,201.22 93.893,201.22 L40.197,201.22 C26.926,194.44 37.877,191.35 43.32,190.32 L43.32,198.33 L101.895,198.33 C103.497,200.91 106.356,202.64 109.598,202.64 L204.43,202.64 C209.184,202.64 213.113,198.93 213.465,194.26 C227.575,205.13 212.906,209.58 212.906,209.58 C212.906,209.58 166.369,210.61 132.752,210.61" id="Fill-919" fill="#000000" opacity="0.1"></path>
                <path d="M117.929,68.43 C128.446,53.62 135.932,33.76 138.364,18.18 L164.826,18.18 C159.888,33.54 146.347,64.98 117.929,68.43 L117.929,68.43 Z M63.853,179.58 L112.055,179.58 L112.055,147.09 L63.853,147.09 L63.853,179.58 Z M9.097,18.18 L35.546,18.18 C37.978,33.75 45.467,53.61 55.99,68.43 C27.553,64.98 14.021,33.53 9.097,18.18 L9.097,18.18 Z M139.119,11.25 C139.174,10.23 139.244,9.21 139.244,8.26 L34.675,8.26 C34.675,9.21 34.74,10.23 34.796,11.25 L0,11.25 C0,11.25 13.145,75.76 61.104,75.76 C61.347,75.76 61.608,75.74 61.864,75.73 C64.603,78.77 67.482,81.46 70.501,83.6 C68.376,83.64 66.666,85.34 66.666,87.46 C66.666,89.61 68.414,91.35 70.552,91.35 L75.68,91.35 L63.955,140.68 L55.245,140.68 L55.245,187.39 L121.409,187.39 L121.409,140.68 L112.679,140.68 L100.95,91.35 L106.092,91.35 C108.225,91.35 109.973,89.61 109.973,87.46 C109.973,85.32 108.231,83.57 106.092,83.57 L103.443,83.57 C106.447,81.44 109.312,78.76 112.05,75.73 C112.297,75.74 112.558,75.76 112.8,75.76 C160.764,75.76 173.924,11.25 173.924,11.25 L139.119,11.25 L139.119,11.25 Z" id="Fill-920" fill="#F7BF25"></path>
                <path d="M9.097,18.18 L35.546,18.18 C37.978,33.75 45.468,53.61 55.99,68.43 C27.553,64.98 14.021,33.53 9.097,18.18 L9.097,18.18 Z M55.245,140.68 L55.245,187.39 L86.562,187.39 L86.562,179.58 L63.853,179.58 L63.853,147.09 L86.562,147.09 L86.562,8.26 L34.675,8.26 C34.675,9.21 34.74,10.23 34.796,11.25 L0,11.25 C0,11.25 13.145,75.76 61.105,75.76 C61.347,75.76 61.608,75.74 61.864,75.73 C64.603,78.77 67.482,81.46 70.5,83.6 C68.376,83.64 66.667,85.34 66.667,87.46 C66.667,89.61 68.413,91.35 70.551,91.35 L75.68,91.35 L63.956,140.68 L55.245,140.68 L55.245,140.68 Z" id="Fill-921" fill="#FEE41A"></path>
                <path d="M9.097,18.18 L35.546,18.18 C37.978,33.75 45.468,53.61 55.99,68.43 C27.553,64.98 14.021,33.53 9.097,18.18 L9.097,18.18 Z M63.853,179.58 L63.853,147.09 L65.649,147.09 C65.586,146.79 65.554,146.47 65.632,146.13 C68.704,132.82 71.005,122.46 73.865,109.59 C75.722,101.23 76.755,95.45 78.096,89.88 C75.103,90.19 69.8,91.32 69.53,87.71 C69.22,83.58 73.66,84.22 73.865,84.2 C70.355,81 61.892,71.51 52.257,52.1 C48.202,43.93 42.149,22.39 41.069,8.26 L34.675,8.26 C34.675,9.21 34.74,10.23 34.796,11.25 L0,11.25 C0,11.25 13.145,75.76 61.105,75.76 C61.347,75.76 61.608,75.74 61.864,75.73 C64.603,78.77 67.482,81.46 70.5,83.6 C68.376,83.64 66.667,85.34 66.667,87.46 C66.667,89.61 68.413,91.35 70.551,91.35 L75.68,91.35 L63.956,140.68 L55.245,140.68 L55.245,187.39 L86.562,187.39 L86.562,179.58 L63.853,179.58 L63.853,179.58 Z" id="Fill-922" fill="#F9CB23"></path>
                <path d="M70.176,147.09 L72.543,147.09 C73.291,142.63 73.332,138.1 73.798,133.59 C74.012,131.52 74.378,129.47 74.787,127.44 C73.01,133.93 71.352,140.44 70.176,147.09" id="Fill-923" fill="#FEE41A"></path>
                <path d="M59.79,8.26 C59.302,22.08 60.499,33.24 66.04,48.73 C74.484,72.33 83.154,81 83.154,86.68 C83.154,101.08 78.292,138.48 77.249,147.09 L86.562,147.09 L86.562,8.26 L59.79,8.26" id="Fill-924" fill="#F9CB23"></path>
                <path d="M43.32,198.33 L130.608,198.33 L130.608,186.9 L43.32,186.9 L43.32,198.33 Z" id="Fill-925" fill="#2F4351"></path>
                <path d="M34.796,11.25 L0,11.25 C0,11.25 3.916,31.09 16.291,49.49 C28.666,67.89 43.135,72.69 45.519,73.34 C56.754,76.44 61.864,75.73 61.864,75.73 C61.864,75.73 47.228,75.38 32.818,64.55 C21.956,56.39 13.767,42.89 8.72,30.36 C4.393,19.61 2.939,13.18 2.939,13.18 L34.935,13.26 L34.796,11.25" id="Fill-926" fill="#FEE41A"></path>
                <path d="M139.118,11.25 L173.923,11.25 C173.923,11.25 169.104,35 154.45,53.72 C141.582,70.16 129.537,73.42 121.884,75.05 C114.231,76.68 112.05,75.73 112.05,75.73 C112.05,75.73 118.059,75.54 123.92,73.83 C131.165,71.71 143.459,65.69 154.531,49.9 C167.182,31.85 169.511,14.07 169.511,14.07 L138.655,13.99 L139.118,11.25" id="Fill-927" fill="#FEE41A"></path>
                <path d="M111.894,147.18 L61.265,146.05 L63.942,179.1 L64.01,179.44 L111.894,147.18" id="Fill-928" fill="#FEE41A"></path>
                <path d="M63.853,179.58 L112.055,179.58 L112.055,147.09 L63.853,147.09 L63.853,179.58 Z" id="Fill-929" fill="#E5892D"></path>
                <path d="M65.854,178.78 L111.335,178.78 L111.335,149.33 L65.854,149.33 L65.854,178.78 Z" id="Fill-930" fill="#EDAA3C"></path>
                <path d="M34.17,11.1 C34.17,11.1 39.342,10.69 42.201,7.42 C45.075,4.14 45.808,0 45.808,0 C45.808,0 46.693,4.9 50.164,7.56 C53.258,9.92 57.718,10.89 57.718,10.89 C57.718,10.89 52.886,11.64 50.164,14.36 C47.441,17.08 46.012,22.12 46.012,22.12 C46.012,22.12 44.174,11.23 34.17,11.1" id="Fill-931" fill="#FFFFFF"></path>
                <path d="M134.742,145.52 C122.104,148.03 109.826,139.81 107.318,127.17 C104.81,114.54 113.024,102.26 125.661,99.75 C138.3,97.24 150.578,105.46 153.085,118.09 C155.593,130.73 147.38,143.01 134.742,145.52" id="Fill-932" fill="#EFBF27"></path>
                <path d="M145.782,119.54 C144.077,110.95 135.701,105.35 127.11,107.05 C118.52,108.76 112.917,117.14 114.621,125.73 C116.326,134.32 124.702,139.92 133.293,138.21 C141.884,136.51 147.487,128.13 145.782,119.54 M111.7,126.31 C109.675,116.1 116.329,106.16 126.531,104.13 C136.732,102.11 146.679,108.76 148.704,118.96 C150.727,129.16 144.074,139.11 133.873,141.14 C123.671,143.16 113.725,136.51 111.7,126.31" id="Fill-933" fill="#C59832"></path>
                <path d="M130.701,115.66 L115.939,115.66 C118.047,111.36 122.063,108.06 127.11,107.05 C127.861,106.9 128.611,106.81 129.355,106.77 C129.218,109.84 129.694,112.85 130.701,115.66" id="Fill-934" fill="#F2CA3D"></path>
                <path d="M115.939,115.66 L115.931,115.66 C118.036,111.36 122.053,108.06 127.11,107.05 C122.063,108.06 118.047,111.36 115.939,115.66 M127.11,107.05 C127.861,106.9 128.612,106.81 129.355,106.77 C128.611,106.81 127.861,106.9 127.11,107.05" id="Fill-935" fill="#D0AA38"></path>
                <path d="M135.394,127.25 L134.445,122.47 L135.238,122.31 C136.083,122.14 136.625,121.98 136.863,121.82 C137.101,121.65 137.184,121.39 137.113,121.03 C137.055,120.74 136.898,120.54 136.645,120.44 C136.391,120.34 136.039,120.33 135.589,120.42 C134.839,120.57 134.344,120.82 134.104,121.18 C133.861,121.54 133.448,122.51 132.864,124.11 C132.37,125.47 131.973,126.41 131.67,126.93 C131.366,127.45 130.888,127.93 130.235,128.38 C129.58,128.83 128.721,129.15 127.656,129.37 C125.951,129.7 124.531,129.56 123.398,128.93 C122.264,128.3 121.42,127.19 120.865,125.59 L119.065,125.95 L118.628,123.75 L120.487,123.38 C120.36,122.08 120.629,120.86 121.297,119.74 C121.963,118.61 123.363,117.84 125.493,117.42 L126.429,117.23 L127.377,122.01 L126.206,122.25 C124.919,122.5 124.13,122.71 123.837,122.87 C123.545,123.03 123.436,123.3 123.512,123.68 C123.576,124 123.732,124.22 123.981,124.34 C124.229,124.45 124.567,124.47 124.993,124.38 C126.066,124.17 126.819,123.94 127.251,123.7 C127.683,123.46 128.084,122.85 128.455,121.86 C129.081,120.22 129.557,119.09 129.882,118.48 C130.209,117.87 130.724,117.3 131.43,116.76 C132.135,116.22 132.981,115.86 133.968,115.66 C135.396,115.38 136.598,115.56 137.57,116.21 C138.544,116.85 139.286,117.97 139.797,119.55 L141.323,119.25 L141.76,121.45 L140.233,121.75 C140.338,123.26 140.061,124.47 139.405,125.36 C138.75,126.25 137.716,126.84 136.303,127.12 C136.105,127.16 135.803,127.2 135.394,127.25" id="Fill-936" fill="#C59832"></path>
                <path d="M145.685,130.05 C133.39,126.2 126.55,113.11 130.408,100.81 C134.263,88.52 147.356,81.68 159.649,85.53 C171.944,89.39 178.783,102.48 174.927,114.78 C171.071,127.07 157.978,133.91 145.685,130.05" id="Fill-937" fill="#F6C524"></path>
                <path d="M167.822,112.55 C170.444,104.19 165.778,95.26 157.421,92.64 C149.064,90.02 140.133,94.68 137.512,103.04 C134.89,111.4 139.557,120.33 147.913,122.95 C156.27,125.57 165.202,120.91 167.822,112.55 M134.669,102.15 C137.782,92.22 148.389,86.68 158.313,89.8 C168.236,92.91 173.778,103.52 170.665,113.44 C167.552,123.36 156.946,128.9 147.022,125.79 C137.098,122.68 131.557,112.07 134.669,102.15" id="Fill-938" fill="#CB9E31"></path>
                <path d="M156.041,115.66 L138.875,115.66 C136.765,111.95 136.138,107.42 137.512,103.04 C139.638,96.26 145.919,91.91 152.677,91.91 C154.248,91.91 155.845,92.14 157.421,92.64 C157.983,92.81 158.527,93.02 159.055,93.25 C158.653,93.86 158.273,94.49 157.918,95.15 C156.438,97.87 155.494,100.74 155.051,103.64 C154.807,103.74 154.583,103.86 154.377,104 C153.798,104.38 152.84,105.14 151.504,106.28 C150.707,106.96 150.062,107.31 149.567,107.32 L149.544,107.32 C149.049,107.32 148.287,107.15 147.259,106.83 C146.844,106.7 146.555,106.53 146.392,106.31 C146.229,106.09 146.197,105.82 146.295,105.51 C146.411,105.14 146.636,104.95 146.969,104.95 C147.302,104.95 148.095,105.15 149.346,105.54 L150.486,105.9 L151.945,101.24 L151.036,100.96 C150.013,100.64 149.106,100.48 148.314,100.48 C147.501,100.48 146.81,100.65 146.24,100.98 C145.115,101.65 144.297,102.59 143.784,103.79 L141.975,103.23 L141.304,105.37 L143.055,105.92 C142.776,107.58 142.984,108.96 143.678,110.06 C144.372,111.15 145.548,111.96 147.206,112.48 C148.044,112.75 148.801,112.88 149.476,112.88 C149.636,112.88 149.791,112.87 149.942,112.85 C150.729,112.78 151.38,112.58 151.896,112.27 C152.41,111.96 153.21,111.33 154.295,110.37 C154.493,110.19 154.68,110.03 154.856,109.88 C154.956,111 155.128,112.1 155.369,113.19 L155.011,114.34 C155.304,114.45 155.541,114.54 155.722,114.61 C155.821,114.96 155.927,115.31 156.041,115.66" id="Fill-939" fill="#F7D040"></path>
                <path d="M138.875,115.66 L138.867,115.66 C136.759,111.96 136.137,107.42 137.512,103.04 C136.138,107.42 136.765,111.95 138.875,115.66 M137.512,103.04 C139.641,96.25 145.906,91.91 152.664,91.91 C154.238,91.91 155.84,92.14 157.421,92.64 C157.983,92.81 158.528,93.02 159.055,93.25 C158.527,93.02 157.983,92.81 157.421,92.64 C155.845,92.14 154.248,91.91 152.677,91.91 C145.919,91.91 139.638,96.26 137.512,103.04" id="Fill-940" fill="#D5AF3A"></path>
                <path d="M155.011,114.34 L156.47,109.68 L157.242,109.92 C158.064,110.18 158.618,110.3 158.905,110.27 C159.192,110.24 159.391,110.05 159.501,109.7 C159.591,109.41 159.548,109.17 159.374,108.95 C159.2,108.74 158.894,108.57 158.456,108.43 C157.727,108.21 157.17,108.19 156.787,108.39 C156.407,108.58 155.576,109.24 154.295,110.37 C153.21,111.33 152.41,111.96 151.896,112.27 C151.38,112.58 150.729,112.78 149.942,112.85 C149.155,112.93 148.242,112.81 147.206,112.48 C145.548,111.96 144.372,111.15 143.678,110.06 C142.984,108.96 142.776,107.58 143.055,105.92 L141.304,105.37 L141.975,103.23 L143.784,103.79 C144.297,102.59 145.115,101.65 146.24,100.98 C147.364,100.32 148.963,100.31 151.036,100.96 L151.945,101.24 L150.486,105.9 L149.346,105.54 C148.095,105.15 147.302,104.95 146.969,104.95 C146.636,104.95 146.411,105.14 146.295,105.51 C146.197,105.82 146.229,106.09 146.392,106.31 C146.555,106.53 146.844,106.7 147.259,106.83 C148.303,107.16 149.072,107.32 149.567,107.32 C150.062,107.31 150.707,106.96 151.504,106.28 C152.84,105.14 153.798,104.38 154.377,104 C154.956,103.62 155.683,103.36 156.559,103.23 C157.438,103.09 158.355,103.18 159.315,103.48 C160.704,103.91 161.671,104.65 162.214,105.69 C162.759,106.72 162.877,108.05 162.567,109.69 L164.052,110.15 L163.38,112.29 L161.895,111.83 C161.26,113.21 160.441,114.13 159.438,114.6 C158.434,115.07 157.247,115.09 155.872,114.66 C155.68,114.6 155.393,114.49 155.011,114.34" id="Fill-941" fill="#CB9E31"></path>
                <path d="M203.692,120.02 C196.824,132.66 181.01,137.34 168.369,130.47 C155.729,123.6 151.05,107.79 157.918,95.15 C164.786,82.51 180.601,77.83 193.241,84.7 C205.881,91.57 210.56,107.38 203.692,120.02" id="Fill-942" fill="#F9C824"></path>
                <path d="M189.272,92 C180.679,87.33 169.891,90.53 165.223,99.12 C160.554,107.71 163.746,118.5 172.338,123.17 C180.93,127.84 191.719,124.64 196.388,116.05 C201.057,107.46 197.863,96.67 189.272,92 M170.75,126.09 C160.547,120.54 156.756,107.73 162.3,97.53 C167.844,87.33 180.657,83.54 190.859,89.08 C201.063,94.62 204.854,107.43 199.309,117.64 C193.766,127.84 180.954,131.63 170.75,126.09" id="Fill-943" fill="#CEA130"></path>
                <path d="M196.595,115.66 L165.021,115.66 C162.455,110.62 162.326,104.45 165.223,99.12 C168.434,93.21 174.54,89.85 180.835,89.85 C183.648,89.85 186.499,90.52 189.146,91.93 C189.188,91.96 189.23,91.98 189.272,92 C189.336,92.04 189.4,92.07 189.463,92.11 C197.158,96.41 200.425,105.66 197.444,113.73 C197.202,114.38 196.919,115.02 196.595,115.66" id="Fill-944" fill="#FAD343"></path>
                <path d="M165.021,115.66 L165.013,115.66 C162.446,110.63 162.321,104.46 165.222,99.12 C168.437,93.2 174.53,89.85 180.821,89.85 C183.637,89.85 186.492,90.52 189.146,91.93 C186.499,90.52 183.648,89.85 180.835,89.85 C174.54,89.85 168.434,93.21 165.223,99.12 C162.326,104.45 162.455,110.62 165.021,115.66 M197.444,113.73 C200.425,105.66 197.158,96.41 189.463,92.11 C197.171,96.42 200.434,105.66 197.444,113.73" id="Fill-945" fill="#D8B23A"></path>
                <path d="M188.476,106.42 L183.692,103.82 L184.123,103.03 C184.581,102.19 184.826,101.6 184.858,101.28 C184.889,100.96 184.723,100.7 184.36,100.51 C184.068,100.35 183.788,100.34 183.519,100.49 C183.251,100.63 182.995,100.93 182.75,101.38 C182.342,102.13 182.207,102.74 182.344,103.2 C182.474,103.66 183.016,104.71 183.973,106.35 C184.79,107.75 185.313,108.76 185.544,109.39 C185.773,110.02 185.846,110.78 185.762,111.66 C185.677,112.54 185.346,113.51 184.767,114.58 C183.84,116.28 182.703,117.4 181.355,117.92 C180.006,118.44 178.448,118.38 176.682,117.71 L175.704,119.51 L173.502,118.32 L174.512,116.46 C173.302,115.64 172.451,114.54 171.962,113.16 C171.472,111.79 171.806,110.03 172.965,107.9 L173.472,106.97 L178.256,109.57 L177.62,110.74 C176.92,112.02 176.535,112.85 176.464,113.22 C176.393,113.58 176.548,113.87 176.927,114.07 C177.25,114.25 177.55,114.27 177.826,114.14 C178.102,114.01 178.355,113.73 178.587,113.3 C179.171,112.23 179.512,111.42 179.613,110.88 C179.715,110.34 179.475,109.55 178.894,108.53 C177.932,106.82 177.305,105.61 177.013,104.9 C176.722,104.18 176.598,103.33 176.639,102.34 C176.681,101.35 176.97,100.36 177.506,99.37 C178.282,97.94 179.296,97.04 180.546,96.67 C181.798,96.3 183.284,96.45 185.005,97.14 L185.835,95.62 L188.037,96.81 L187.207,98.34 C188.58,99.33 189.417,100.43 189.715,101.63 C190.014,102.83 189.78,104.14 189.012,105.55 C188.905,105.75 188.726,106.04 188.476,106.42" id="Fill-946" fill="#CEA130"></path>
                <path d="M100.538,193.58 C100.538,198.56 104.615,202.64 109.598,202.64 L204.43,202.64 C209.413,202.64 213.49,198.56 213.49,193.58 L213.49,124.72 C213.49,119.74 209.413,115.66 204.43,115.66 L109.598,115.66 C104.615,115.66 100.538,119.74 100.538,124.72 L100.538,193.58" id="Fill-947" fill="#393031"></path>
                <path d="M100.533,163.59 L140.812,163.59 L140.812,152.83 C140.812,148.27 137.11,144.56 132.542,144.56 L100.533,144.56 L100.533,163.59" id="Fill-948" fill="#2D2728"></path>
                <path d="M92.308,163.49 C92.308,167.47 95.533,170.7 99.512,170.7 L133.729,170.7 C137.707,170.7 140.932,167.47 140.932,163.49 L140.932,154.13 C140.932,150.15 137.707,146.92 133.729,146.92 L99.512,146.92 C95.533,146.92 92.308,150.15 92.308,154.13 L92.308,163.49" id="Fill-949" fill="#433839"></path>
                <path d="M117.701,158.51 C117.701,163.28 121.571,167.15 126.345,167.15 C131.119,167.15 134.989,163.28 134.989,158.51 C134.989,153.74 131.119,149.87 126.345,149.87 C121.571,149.87 117.701,153.74 117.701,158.51" id="Fill-950" fill="#F9C824"></path>
                <path d="M182.267,125.69 L178.363,125.69 L178.146,125.61 C178.048,125.55 177.984,125.43 177.984,125.31 C177.984,125.11 178.148,124.94 178.351,124.94 L182.255,124.94 C182.355,124.94 182.448,124.98 182.514,125.05 C182.586,125.12 182.633,125.21 182.633,125.32 C182.633,125.52 182.469,125.69 182.267,125.69" id="Fill-951" fill="#989391"></path>
                <path d="M166.651,125.69 L162.746,125.69 C162.544,125.69 162.379,125.52 162.379,125.32 C162.379,125.12 162.544,124.95 162.746,124.95 L166.651,124.95 C166.853,124.95 167.017,125.12 167.017,125.32 C167.017,125.52 166.853,125.69 166.651,125.69" id="Fill-952" fill="#989391"></path>
                <path d="M174.459,125.69 L170.554,125.69 C170.353,125.69 170.189,125.52 170.189,125.32 C170.189,125.12 170.353,124.95 170.554,124.95 L174.459,124.95 C174.661,124.95 174.825,125.12 174.825,125.32 C174.825,125.52 174.661,125.69 174.459,125.69" id="Fill-953" fill="#989391"></path>
                <path d="M143.226,125.69 L139.322,125.69 C139.12,125.69 138.956,125.52 138.956,125.32 C138.956,125.12 139.12,124.95 139.322,124.95 L143.226,124.95 C143.428,124.95 143.592,125.12 143.592,125.32 C143.592,125.52 143.428,125.69 143.226,125.69" id="Fill-954" fill="#989391"></path>
                <path d="M158.842,125.69 L154.939,125.69 C154.736,125.69 154.572,125.52 154.572,125.32 C154.572,125.12 154.736,124.95 154.939,124.95 L158.842,124.95 C159.044,124.95 159.209,125.12 159.209,125.32 C159.209,125.52 159.044,125.69 158.842,125.69" id="Fill-955" fill="#989391"></path>
                <path d="M100.533,125.69 L100.538,125.69 L100.538,124.95 L100.533,124.95 L100.533,125.69 Z" id="Fill-956" fill="#FCE07F"></path>
                <path d="M104.207,125.69 L100.538,125.69 L100.538,124.95 L104.207,124.95 C104.397,124.95 104.552,125.12 104.552,125.32 C104.552,125.52 104.397,125.69 104.207,125.69" id="Fill-957" fill="#989391"></path>
                <path d="M111.994,125.69 L108.09,125.69 C107.887,125.69 107.723,125.52 107.723,125.32 C107.723,125.12 107.887,124.95 108.09,124.95 L111.994,124.95 C112.196,124.95 112.36,125.12 112.36,125.32 C112.36,125.52 112.196,125.69 111.994,125.69" id="Fill-958" fill="#989391"></path>
                <path d="M135.418,125.69 L131.514,125.69 C131.311,125.69 131.147,125.52 131.147,125.32 C131.147,125.12 131.311,124.95 131.514,124.95 L135.418,124.95 C135.621,124.95 135.785,125.12 135.785,125.32 C135.785,125.52 135.621,125.69 135.418,125.69" id="Fill-959" fill="#989391"></path>
                <path d="M119.802,125.69 L115.897,125.69 C115.695,125.69 115.532,125.52 115.532,125.32 C115.532,125.12 115.695,124.95 115.897,124.95 L119.802,124.95 C120.004,124.95 120.168,125.12 120.168,125.32 C120.168,125.52 120.004,125.69 119.802,125.69" id="Fill-960" fill="#989391"></path>
                <path d="M127.609,125.69 L123.706,125.69 C123.504,125.69 123.339,125.52 123.339,125.32 C123.339,125.12 123.504,124.95 123.706,124.95 L127.609,124.95 C127.812,124.95 127.976,125.12 127.976,125.32 C127.976,125.52 127.812,125.69 127.609,125.69" id="Fill-961" fill="#989391"></path>
                <path d="M151.034,125.69 L147.13,125.69 C146.928,125.69 146.763,125.52 146.763,125.32 C146.763,125.12 146.928,124.95 147.13,124.95 L151.034,124.95 C151.237,124.95 151.401,125.12 151.401,125.32 C151.401,125.52 151.237,125.69 151.034,125.69" id="Fill-962" fill="#989391"></path>
                <path d="M197.871,125.68 L193.967,125.68 C193.764,125.68 193.6,125.51 193.6,125.31 C193.6,125.11 193.764,124.94 193.967,124.94 L197.871,124.94 C198.073,124.94 198.237,125.11 198.237,125.31 C198.237,125.51 198.073,125.68 197.871,125.68" id="Fill-963" fill="#989391"></path>
                <path d="M190.062,125.68 L186.158,125.68 C185.956,125.68 185.793,125.51 185.793,125.31 C185.793,125.11 185.956,124.94 186.158,124.94 L190.062,124.94 C190.265,124.94 190.429,125.11 190.429,125.31 C190.429,125.51 190.265,125.68 190.062,125.68" id="Fill-964" fill="#989391"></path>
                <path d="M205.679,125.68 L201.774,125.68 C201.572,125.68 201.408,125.51 201.408,125.31 C201.408,125.11 201.572,124.94 201.774,124.94 L205.679,124.94 C205.881,124.94 206.045,125.11 206.045,125.31 C206.045,125.51 205.881,125.68 205.679,125.68" id="Fill-965" fill="#989391"></path>
                <path d="M213.487,125.68 L209.583,125.68 C209.381,125.68 209.216,125.51 209.216,125.31 C209.216,125.11 209.381,124.94 209.583,124.94 L213.487,124.94 L213.487,125.68" id="Fill-966" fill="#989391"></path>
                <path d="M142.851,192.94 L139.003,192.94 C138.803,192.94 138.641,192.78 138.641,192.58 C138.641,192.38 138.803,192.21 139.003,192.21 L142.851,192.21 C143.05,192.21 143.211,192.38 143.211,192.58 C143.211,192.78 143.05,192.94 142.851,192.94" id="Fill-967" fill="#989391"></path>
                <path d="M158.239,192.94 L154.392,192.94 C154.193,192.94 154.031,192.78 154.031,192.58 C154.031,192.38 154.193,192.21 154.392,192.21 L158.239,192.21 C158.438,192.21 158.6,192.38 158.6,192.58 C158.6,192.78 158.438,192.94 158.239,192.94" id="Fill-968" fill="#989391"></path>
                <path d="M100.531,192.94 L100.538,192.94 L100.538,192.21 L100.531,192.21 L100.531,192.94 Z" id="Fill-969" fill="#929DA3"></path>
                <path d="M104.377,192.94 L100.538,192.94 L100.538,192.21 L104.377,192.21 C104.577,192.21 104.739,192.38 104.739,192.58 C104.739,192.78 104.577,192.94 104.377,192.94" id="Fill-970" fill="#989391"></path>
                <path d="M112.072,192.94 L108.224,192.94 C108.026,192.94 107.864,192.78 107.864,192.58 C107.864,192.38 108.026,192.21 108.224,192.21 L112.072,192.21 C112.271,192.21 112.433,192.38 112.433,192.58 C112.433,192.78 112.271,192.94 112.072,192.94" id="Fill-971" fill="#989391"></path>
                <path d="M135.156,192.94 L131.308,192.94 C131.109,192.94 130.947,192.78 130.947,192.58 C130.947,192.38 131.109,192.21 131.308,192.21 L135.156,192.21 C135.356,192.21 135.516,192.38 135.516,192.58 C135.516,192.78 135.356,192.94 135.156,192.94" id="Fill-972" fill="#989391"></path>
                <path d="M119.767,192.94 L115.919,192.94 C115.719,192.94 115.559,192.78 115.559,192.58 C115.559,192.38 115.719,192.21 115.919,192.21 L119.767,192.21 C119.966,192.21 120.128,192.38 120.128,192.58 C120.128,192.78 119.966,192.94 119.767,192.94" id="Fill-973" fill="#989391"></path>
                <path d="M127.461,192.94 L123.613,192.94 C123.414,192.94 123.253,192.78 123.253,192.58 C123.253,192.38 123.414,192.21 123.613,192.21 L127.461,192.21 C127.661,192.21 127.822,192.38 127.822,192.58 C127.822,192.78 127.661,192.94 127.461,192.94" id="Fill-974" fill="#989391"></path>
                <path d="M150.544,192.94 L146.697,192.94 C146.498,192.94 146.336,192.78 146.336,192.58 C146.336,192.38 146.498,192.21 146.697,192.21 L150.544,192.21 C150.744,192.21 150.906,192.38 150.906,192.58 C150.906,192.78 150.744,192.94 150.544,192.94" id="Fill-975" fill="#989391"></path>
                <path d="M204.85,192.94 L201.003,192.94 C200.804,192.94 200.642,192.78 200.642,192.58 C200.642,192.38 200.804,192.21 201.003,192.21 L204.85,192.21 C205.05,192.21 205.212,192.38 205.212,192.58 C205.212,192.78 205.05,192.94 204.85,192.94" id="Fill-976" fill="#989391"></path>
                <path d="M166.377,192.94 L162.53,192.94 L162.53,192.21 L166.377,192.21 C166.576,192.21 166.738,192.38 166.738,192.58 C166.738,192.78 166.576,192.94 166.377,192.94" id="Fill-977" fill="#989391"></path>
                <path d="M174.071,192.94 L170.225,192.94 C170.025,192.94 169.864,192.78 169.864,192.58 C169.864,192.38 170.025,192.21 170.225,192.21 L174.071,192.21 C174.271,192.21 174.433,192.38 174.433,192.58 C174.433,192.78 174.271,192.94 174.071,192.94" id="Fill-978" fill="#989391"></path>
                <path d="M197.156,192.94 L193.309,192.94 C193.109,192.94 192.947,192.78 192.947,192.58 C192.947,192.38 193.109,192.21 193.309,192.21 L197.156,192.21 C197.355,192.21 197.517,192.38 197.517,192.58 C197.517,192.78 197.355,192.94 197.156,192.94" id="Fill-979" fill="#989391"></path>
                <path d="M181.766,192.94 L177.919,192.94 C177.72,192.94 177.558,192.78 177.558,192.58 C177.558,192.38 177.72,192.21 177.919,192.21 L181.766,192.21 C181.966,192.21 182.128,192.38 182.128,192.58 C182.128,192.78 181.966,192.94 181.766,192.94" id="Fill-980" fill="#989391"></path>
                <path d="M189.461,192.94 L185.614,192.94 C185.415,192.94 185.253,192.78 185.253,192.58 C185.253,192.38 185.415,192.21 185.614,192.21 L189.461,192.21 C189.66,192.21 189.822,192.38 189.822,192.58 C189.822,192.78 189.66,192.94 189.461,192.94" id="Fill-981" fill="#989391"></path>
                <path d="M212.545,192.94 L208.697,192.94 C208.499,192.94 208.337,192.78 208.337,192.58 C208.337,192.38 208.499,192.21 208.697,192.21 L212.545,192.21 C212.744,192.21 212.906,192.38 212.906,192.58 C212.906,192.78 212.744,192.94 212.545,192.94" id="Fill-982" fill="#989391"></path>
            </g>
        </g>
    </g>
</svg>