<?xml version="1.0" encoding="UTF-8" standalone="no"?>
<svg width="221px" height="220px" viewBox="0 0 221 220" version="1.1" xmlns="http://www.w3.org/2000/svg" xmlns:xlink="http://www.w3.org/1999/xlink">
    <!-- Generator: sketchtool 3.6.1 (26313) - http://www.bohemiancoding.com/sketch -->
    <title>7BE8AAA9-47BB-4FCC-A92C-7EBDAE244AE0</title>
    <desc>Created with sketchtool.</desc>
    <defs>
        <path id="path-1" d="M16.5402272,0.848379538 C16.0483145,1.05759944 15.5130082,1.48548234 15.114,1.56 C14.744,1.63 14.451,1.52 14.18,1.41 C13.864,1.27 13.579,1.14 13.236,1.3 C7.755,3.81 7.927,10.98 7.038,13.09 C6.3668866,14.691751 2.64686324,16.8416207 0.084,19.672351 L0.084,32.2919138 C1.02273429,33.6189005 2.07451519,34.7569803 2.956,35.65 C5.326,38.06 8.273,36.59 10.522,36.28 C12.771,35.97 13.031,37.93 14.553,37.98 C16.074,38.03 19.225,38.06 22.946,34.55 C26.666,31.03 28.937,26.42 27.269,22.52 C25.601,18.62 23.54,11.21 22.382,7.11 C21.5135355,4.02618239 19.5292523,1.63455996 17.4496818,0.848379538 L16.540225,0.848379538 L16.5402272,0.848379538 Z"></path>
        <path id="path-3" d="M37.5040279,0.419720967 C37.844191,0.936494329 38.1561457,1.48241033 38.434,2.05610034 L38.434,15.873573 C36.1556324,22.0658842 31.6532642,26.7604609 28.616,27.67 C24.543,28.9 22.991,27.66 22.134,27.56 C21.277,27.45 20.309,29.53 17.094,30.07 C13.879,30.6 4.246,24.15 1.42,16.59 C-1.408,9.04 2.89,1.81 7.018,0.42 C7.01827886,0.419906979 7.01855771,0.419813968 7.01883656,0.419720967 L37.5040279,0.419720967 L37.5040279,0.419720967 Z"></path>
    </defs>
    <g id="Welcome" stroke="none" stroke-width="1" fill="none" fill-rule="evenodd">
        <g id="2-Giving-is-encouraging-" transform="translate(-913.000000, -658.000000)">
            <g id="screen2_left_vector" transform="translate(913.000000, 657.000000)">
                <g id="Group-68" transform="translate(0.385000, 0.714931)">
                    <path d="M128.546,219.96 L0.525,219.96 L13.135,195.43 L198.926,179.62 L220.525,196.73 L113.565,203.13 L128.546,219.96" id="Fill-1" fill="#000000" opacity="0.1"></path>
                    <path d="M21.372,103.32 C21.364,100.66 21.544,95.87 18.229,94.93 C14.129,93.76 13.038,99 13.141,101.92 C13.181,103.07 14.961,103.06 14.919,101.91 C14.872,100.57 14.874,99.4 15.418,98.15 C15.985,96.85 17.175,95.96 18.413,97.09 C19.917,98.47 19.589,101.5 19.591,103.33 C19.595,104.48 21.375,104.47 21.372,103.32" id="Fill-3" fill="#1B313B"></path>
                    <path d="M36.998,103.24 C36.99,100.57 37.17,95.79 33.855,94.84 C29.755,93.68 28.664,98.92 28.771,101.84 C28.81,102.98 30.587,102.98 30.546,101.83 C30.498,100.49 30.501,99.31 31.047,98.07 C31.612,96.77 32.802,95.87 34.039,97.01 C35.543,98.38 35.213,101.42 35.22,103.25 C35.224,104.39 37.001,104.38 36.998,103.24" id="Fill-4" fill="#1B313B"></path>
                    <path d="M52.699,103.15 C52.691,100.49 52.874,95.7 49.556,94.76 C45.456,93.59 44.365,98.83 44.469,101.75 C44.511,102.9 46.288,102.89 46.246,101.74 C46.199,100.4 46.204,99.23 46.745,97.98 C47.312,96.69 48.503,95.79 49.74,96.92 C51.244,98.3 50.916,101.33 50.921,103.16 C50.924,104.31 52.702,104.3 52.699,103.15" id="Fill-5" fill="#1B313B"></path>
                    <path d="M68.325,103.07 C68.317,100.4 68.497,95.62 65.182,94.67 C61.085,93.51 59.991,98.75 60.098,101.67 C60.137,102.81 61.916,102.81 61.873,101.66 C61.825,100.32 61.827,99.14 62.374,97.9 C62.939,96.6 64.129,95.7 65.366,96.84 C66.87,98.21 66.541,101.25 66.547,103.08 C66.551,104.22 68.328,104.21 68.325,103.07" id="Fill-6" fill="#1B313B"></path>
                    <path d="M83.914,102.98 C83.91,100.32 84.089,95.53 80.774,94.59 C76.674,93.42 75.58,98.66 75.687,101.58 C75.726,102.73 77.506,102.72 77.464,101.57 C77.417,100.23 77.419,99.06 77.961,97.81 C78.528,96.52 79.719,95.62 80.958,96.75 C82.463,98.12 82.133,101.16 82.137,102.99 C82.14,104.14 83.917,104.13 83.914,102.98" id="Fill-7" fill="#1B313B"></path>
                    <path d="M99.541,102.9 C99.536,100.23 99.713,95.45 96.397,94.5 C92.3,93.34 91.21,98.58 91.313,101.5 C91.353,102.64 93.132,102.64 93.091,101.49 C93.041,100.15 93.046,98.97 93.59,97.73 C94.154,96.43 95.345,95.54 96.581,96.67 C98.086,98.04 97.759,101.08 97.763,102.91 C97.766,104.05 99.544,104.04 99.541,102.9" id="Fill-8" fill="#1B313B"></path>
                    <path d="M114.966,102.82 C114.958,100.15 115.14,95.36 111.822,94.42 C107.725,93.25 106.635,98.49 106.738,101.42 C106.778,102.56 108.554,102.55 108.513,101.41 C108.466,100.07 108.471,98.89 109.015,97.64 C109.579,96.35 110.77,95.45 112.006,96.58 C113.511,97.96 113.184,100.99 113.188,102.82 C113.191,103.97 114.968,103.96 114.966,102.82" id="Fill-9" fill="#1B313B"></path>
                    <path d="M199.594,87.34 L191.036,92.13 L185.257,83.16 L179.77,92.73 L189.682,98.83 L199.594,87.34" id="Fill-10" fill="#694D30"></path>
                    <path d="M64.958,76.75 L77.94,84.81 L84.758,75.58 L95.276,96.18 C95.276,96.18 79.921,101.69 64.958,76.75" id="Fill-11" fill="#694D30"></path>
                    <path d="M162.4,126.12 C172.778,128.81 182.332,105.76 187.315,91.46 C192.298,77.16 206.381,30.147 200.314,21.915 C194.248,13.682 178.866,29.064 176.266,42.93 C176.266,42.93 169.117,50.51 168.467,62.86 C168.467,62.86 161.75,68.06 162.4,80.84 C162.4,80.84 156.767,89.73 158.5,99.04 C158.5,99.04 149.834,122.87 162.4,126.12" id="Fill-12" fill="#E59A54"></path>
                    <path d="M176.792,43.456 C176.792,43.456 181.125,40.423 186.325,41.506 C191.524,42.589 194.774,49.74 194.774,49.74 C194.774,49.74 186.325,42.372 176.792,43.456" id="Fill-13" fill="#F3CA7D"></path>
                    <path d="M168.992,63.39 C168.992,63.39 172.77,60.35 179.223,61.44 C185.675,62.52 187.841,71.19 187.841,71.19 C187.841,71.19 180.258,62.3 168.992,63.39" id="Fill-14" fill="#F3CA7D"></path>
                    <path d="M162.926,81.37 C162.926,81.37 175.925,74.22 181.558,87.87 C181.558,87.87 175.709,82.24 162.926,81.37" id="Fill-15" fill="#F3CA7D"></path>
                    <path d="M158.5,99.04 C158.5,99.04 169.55,95.37 171.716,104.57 C171.716,104.57 167.6,100.13 158.5,99.04" id="Fill-16" fill="#F3CA7D"></path>
                    <path d="M194.774,43.672 C197.319,47.038 200.352,27.541 198.186,24.074 C196.019,20.608 189.196,23.207 185.783,27.865 C182.37,32.524 178.254,38.871 180.854,39.489 C183.453,40.107 189.379,36.537 194.774,43.672" id="Fill-17" fill="#F0A664"></path>
                    <path d="M189.48,65.54 C191.875,66.01 193.096,51.8 187.841,48.45 C182.587,45.089 178.129,44.772 175.041,48.45 C171.67,52.46 170.78,58.09 172.242,58.31 C173.704,58.52 178.439,58.62 181.488,59.55 C184.537,60.47 186.623,64.97 189.48,65.54" id="Fill-18" fill="#F0A664"></path>
                    <path d="M182.224,83.68 C185.172,84.03 187.815,78.32 185.783,72.97 C183.751,67.62 172.178,62.84 168.257,65.82 C164.336,68.8 163.662,74.88 165.108,76.88 C166.554,78.89 172.872,75.96 175.454,76.88 C178.037,77.8 178.828,83.28 182.224,83.68" id="Fill-19" fill="#F0A664"></path>
                    <path d="M175.453,100.8 C177.609,100.89 181.558,87.21 172.242,84.29 C162.926,81.37 161.239,86.04 160.972,90.15 C160.705,94.27 161.829,97.01 164.408,96.18 C166.988,95.35 171.137,100.62 175.453,100.8" id="Fill-20" fill="#F0A664"></path>
                    <path d="M159.296,122.33 C162.858,124.86 173.949,113.12 173.299,109.44 C172.649,105.75 164.272,100.35 160.055,102.11 C155.837,103.88 156.409,120.28 159.296,122.33" id="Fill-21" fill="#F0A664"></path>
                    <path d="M187.841,37.539 C192.138,37.949 192.527,32.537 189.48,31.989 C186.432,31.44 181.938,36.976 187.841,37.539" id="Fill-22" fill="#F4B56F"></path>
                    <path d="M193.419,29.412 C196.008,30.528 191.282,35.473 189.682,33.791 C188.082,32.108 189.845,27.871 193.419,29.412" id="Fill-23" fill="#F4B56F"></path>
                    <path d="M187.841,31.053 C189.981,31.11 189.575,29.009 187.841,29.412 C186.107,29.816 185.513,30.99 187.841,31.053" id="Fill-24" fill="#F4B56F"></path>
                    <path d="M193.451,34.389 C193.624,34.288 193.865,34.288 194.037,34.389 C194.274,34.494 194.435,34.76 194.435,35.015 C194.435,35.392 194.121,35.706 193.744,35.706 C193.368,35.706 193.054,35.392 193.054,35.015 C193.054,34.76 193.214,34.494 193.451,34.389" id="Fill-25" fill="#F4B56F"></path>
                    <path d="M179.534,50.12 C179.94,48.56 182.203,46.745 183.676,48.09 C184.092,48.47 184.177,49.05 184.228,49.57 C184.259,49.89 184.173,50.18 184.022,50.44 C184.133,50.48 184.239,50.54 184.336,50.63 C184.788,51.01 184.656,51.73 184.43,52.2 C184.299,52.46 183.959,52.64 183.67,52.63 C183.539,52.63 183.409,52.6 183.28,52.58 C182.798,52.48 182.599,51.95 182.683,51.52 L182.688,51.51 C182.043,51.97 181.123,51.92 180.411,51.66 C179.76,51.43 179.352,50.82 179.534,50.12" id="Fill-26" fill="#F4B56F"></path>
                    <path d="M184.507,58.49 C184.807,58.47 184.03,58.57 184.507,58.49" id="Fill-27" fill="#F4B56F"></path>
                    <path d="M181.928,55.93 L181.949,55.87 C181.922,55.65 181.933,55.43 181.987,55.2 C182.247,54.12 183.479,53.48 184.422,53.12 C185.133,52.85 186.117,52.85 186.659,53.47 C187.012,53.71 187.307,54.07 187.498,54.54 C187.965,55.69 186.98,57.05 186.131,57.71 C185.764,58 185.355,58.29 184.896,58.41 C184.772,58.45 184.644,58.48 184.512,58.49 L184.507,58.49 C184.45,58.49 184.358,58.5 184.204,58.52 C184.1,58.53 183.998,58.54 183.894,58.54 C183.632,58.55 183.348,58.51 183.102,58.41 C182.053,58.01 181.626,56.99 181.928,55.93" id="Fill-28" fill="#F4B56F"></path>
                    <path d="M179.624,54.13 L179.614,54.06 C179.593,53.62 179.997,53.25 180.42,53.25 C180.838,53.25 181.254,53.62 181.226,54.06 C181.206,54.38 181.09,54.81 180.766,54.96 C180.423,55.13 180.136,55.09 179.837,54.85 C179.625,54.69 179.567,54.38 179.624,54.13" id="Fill-29" fill="#F4B56F"></path>
                    <path d="M169.035,69.46 C169.383,68.94 169.882,68.62 170.427,68.37 C171.823,66.7 175.09,66.1 175.512,68.85 C175.54,69.03 175.552,69.22 175.554,69.4 C175.624,69.31 175.7,69.22 175.777,69.13 C176.066,68.82 176.616,68.74 176.976,68.98 L177.177,69.13 L177.322,69.32 L177.33,69.33 L177.429,69.56 L177.445,69.62 L177.452,69.65 L177.465,69.78 L177.467,69.81 L177.463,69.86 C177.458,69.98 177.432,70.1 177.385,70.22 C177.369,70.38 177.299,70.55 177.162,70.68 L176.969,70.82 C176.793,71.06 176.487,71.22 176.195,71.22 C175.807,71.22 175.517,70.99 175.352,70.67 C175.031,71.63 174.345,72.47 173.404,72.91 C172.074,73.55 169.901,73.74 169.016,72.27 C168.495,71.41 168.47,70.31 169.035,69.46" id="Fill-30" fill="#F4B56F"></path>
                    <path d="M176.747,74.46 C176.85,73.87 177.398,73.36 177.873,73.06 C178.246,72.82 178.694,72.68 179.126,72.7 C179.216,72.64 179.311,72.59 179.411,72.56 C179.999,72.35 180.667,72.64 181.089,73.05 C181.539,73.49 181.771,74.21 181.55,74.82 C181.246,75.65 180.484,76.06 179.679,76.32 C178.95,76.54 178.184,76.66 177.48,76.29 C176.796,75.94 176.624,75.16 176.747,74.46" id="Fill-31" fill="#F4B56F"></path>
                    <path d="M169.181,87.24 C170.128,87.12 171.07,87.87 171.603,88.66 C171.847,88.05 172.299,87.55 173.011,87.43 C173.874,87.28 174.508,87.68 174.988,88.27 C175.104,88.39 175.214,88.52 175.315,88.66 C175.515,88.95 175.667,89.29 175.776,89.66 C175.841,89.81 175.901,89.96 175.956,90.1 C176.289,90.98 176.368,92.34 175.62,92.94 C175.507,93.2 175.371,93.45 175.207,93.66 C174.532,94.54 173.285,94.19 172.649,93.5 C172.306,93.13 172.055,92.71 171.868,92.27 C171.011,94.2 168.453,93.2 167.489,91.81 C166.318,90.12 166.978,87.51 169.181,87.24" id="Fill-32" fill="#F4B56F"></path>
                    <path d="M166.284,89.5 C166.896,89.5 167.08,90.3 166.586,90.62 C166.396,90.74 166.172,90.74 165.981,90.62 C165.488,90.3 165.671,89.5 166.284,89.5" id="Fill-33" fill="#F4B56F"></path>
                    <path d="M160.974,107.21 C161.013,107.01 161.082,106.82 161.163,106.63 C161.219,106.31 161.327,105.98 161.458,105.69 C161.69,105.17 162.106,104.7 162.604,104.32 C162.96,103.84 163.449,103.46 164.034,103.25 C165.057,102.88 166.534,103.43 167.068,104.37 C167.469,105.08 167.288,105.83 166.901,106.46 L167.096,106.46 C167.473,106.5 167.792,106.75 167.792,107.16 C167.792,107.57 167.473,107.82 167.096,107.86 C166.878,107.88 166.692,107.83 166.524,107.71 L166.444,107.64 L166.432,107.63 L166.438,107.63 C166.333,107.54 166.269,107.41 166.244,107.28 C165.802,107.71 165.198,108.15 164.545,108.44 C164.053,108.79 163.517,109.06 162.978,109.17 C161.648,109.45 160.717,108.52 160.974,107.21" id="Fill-34" fill="#F4B56F"></path>
                    <path d="M144.662,7.988 L143.525,1.001 C143.525,1.001 135.563,0.188 131.013,3.763 L133.938,10.425 L144.662,7.988" id="Fill-35" fill="#EB8F54"></path>
                    <path d="M144.662,6.363 C147.426,6.225 147.587,9.45 144.662,10.75 C144.662,10.75 147.1,26.999 149.862,29.762 C152.624,32.524 159.774,35.052 163.836,41.994 C167.898,48.94 177.756,100.61 178.677,104.83 C179.598,109.06 148.4,122.54 144.662,111.82 C140.925,101.09 132.313,54.13 132.801,49.1 C133.288,44.061 138.813,34.799 139.3,31.711 C139.788,28.624 136.05,14 135.563,12.7 C132.476,13.35 130.486,10.425 132.781,8.8 C135.075,7.176 141.412,6.526 144.662,6.363" id="Fill-36" fill="#C85050"></path>
                    <path d="M143.579,7.311 C146.263,7.176 146.42,9.163 143.579,10.425 C143.579,10.425 145.119,28.225 147.802,30.908 C150.484,33.591 158.357,36.317 162.303,43.058 C166.248,49.8 175.545,98.68 176.439,102.78 C177.333,106.88 149.846,118.96 146.216,108.54 C142.587,98.13 134.125,54.63 134.598,49.74 C135.072,44.847 140.787,34.947 141.26,31.948 C141.734,28.95 137.225,13.448 136.752,12.185 C133.753,12.817 132.287,11.238 134.516,9.659 C136.744,8.081 140.423,7.469 143.579,7.311" id="Fill-37" fill="#5C1C1E"></path>
                    <path d="M161.808,47.038 C161.808,47.038 147.109,51.26 137.197,51.75 C137.197,51.75 142.604,83.71 143.579,87.61 C144.446,89.56 167.086,85.01 169.361,82.08 C169.361,82.08 163.283,51.1 161.808,47.038" id="Fill-38" fill="#F8CDA4"></path>
                    <path d="M161.223,48.45 C161.223,48.45 147.532,52.38 138.301,52.84 C138.301,52.84 143.337,82.6 144.245,86.23 C145.052,88.05 166.138,83.81 168.257,81.09 C168.257,81.09 162.596,52.23 161.223,48.45" id="Fill-39" fill="#FCE2CB"></path>
                    <path d="M155.342,73.13 L155.388,73.1 L155.394,73.12 L155.342,73.13 L155.342,73.13 Z M143.385,65.31 C143.732,66.39 144.43,66.69 145.116,66.61 C145.035,66.83 145.015,67.05 145.078,67.25 C145.795,69.48 148.023,68.38 148.514,67.39 C148.56,67.29 148.589,67.2 148.611,67.1 C148.918,67.63 149.434,68.05 149.719,68.07 C149.826,68.08 149.942,68.08 150.062,68.08 C149.799,68.23 149.566,68.45 149.401,68.73 C148.475,70.31 150.097,71.58 151.285,70.95 C151.317,71.49 151.807,71.97 152.473,72.27 C152.708,72.38 152.979,72.35 153.247,72.24 C153.26,72.91 153.834,73.56 154.819,73.32 L155.026,73.26 C154.714,73.43 154.476,73.73 154.44,74.1 C154.355,74.98 155.035,75.93 155.651,75.88 C155.901,75.87 156.107,75.82 156.277,75.74 C155.849,76.51 156.437,77.7 157.712,77.39 C158.908,77.09 159.023,76.32 158.644,75.76 C159.179,75.55 159.643,75.14 159.837,74.75 C160.178,74.05 159.823,73.18 159.197,72.77 C159.848,72.51 160.602,71.84 160.72,71.12 C160.823,70.49 160.096,69.79 159.375,69.55 C159.946,68.96 160.274,68.03 159.741,67.38 C159.385,66.94 158.834,66.89 158.266,67.09 C158.341,66.5 158.038,66.15 157.621,66.03 L157.402,65.94 C157.963,65.58 158.384,65.03 158.489,64.44 C158.601,63.8 158.243,63.04 157.764,62.53 C158.554,62.5 159.363,61.91 159.636,61.36 C160.129,60.36 159.18,58.98 158.049,59.15 C157.228,59.27 156.493,59.9 156.242,60.53 C155.941,59.49 154.277,58.5 153.36,58.97 C152.762,59.27 152.063,59.57 151.699,60.1 L151.623,60.02 C151.623,60.02 150.965,57.17 149.254,56.65 C147.542,56.13 144.498,56.85 144.498,56.85 L144.275,57.68 C144.275,57.68 147.879,56.62 149.116,57.23 C150.057,57.68 150.769,59.12 151.056,59.78 C150.887,59.76 150.706,59.77 150.521,59.82 C150.763,59.09 149.919,58.21 148.98,58.34 C148.092,58.46 147.767,59.15 147.89,59.74 C147.64,59.64 147.369,59.6 147.088,59.64 C145.714,59.85 144.531,61.24 144.828,62.16 C144.98,62.63 145.188,62.98 145.43,63.23 L145.247,63.24 C144.115,63.41 143.141,64.55 143.385,65.31 L143.385,65.31 Z" id="Fill-40" fill="#D3605F"></path>
                    <path d="M143.579,10.425 C143.579,10.425 137.425,12.143 136.213,12.278 C136.213,12.278 140.285,10.425 143.579,10.425" id="Fill-41" fill="#1A100F"></path>
                    <path d="M148.33,35.081 C151.344,34.475 159.629,40.116 160.38,43.672 C161.13,47.23 149.836,48.61 147.408,47.85 C144.979,47.094 143.884,35.976 148.33,35.081" id="Fill-42" fill="#C85050"></path>
                    <path d="M143.579,5.673 C143.579,5.673 143.112,2.111 142.877,1.786 C142.641,1.461 136.629,1.786 134.923,2.599 C133.217,3.411 135.573,6.823 135.573,6.823 C135.573,6.823 141.104,5.499 143.579,5.673" id="Fill-43" fill="#F5BE95"></path>
                    <path d="M126.878,102.09 C126.878,102.09 99.682,58 95.246,54.77 C90.811,51.53 82.369,51.88 81.057,51.61 C79.744,51.34 72.284,41.723 71.266,39.813 C71.266,39.813 73.157,37.459 71.798,36.051 C70.439,34.643 68.458,33.911 61.637,38.095 C54.815,42.278 52.173,45.26 53.732,47.58 C55.291,49.9 59.286,48.16 59.286,48.16 C59.286,48.16 66.898,59.28 67.267,60.35 C67.637,61.43 63.844,69.04 64.61,73.33 C65.375,77.62 93.281,120.87 94.944,123.08 C96.607,125.29 124.669,121.68 126.878,102.09" id="Fill-44" fill="#CFCEC9"></path>
                    <path d="M124.453,101.81 C124.453,101.81 99.221,59.16 94.786,55.92 C90.351,52.69 82.013,53.52 80.701,53.25 C79.388,52.98 71.088,42.075 70.07,40.166 C70.07,40.166 71.654,38.822 70.713,37.107 C69.973,35.757 69.252,34.529 62.431,38.712 C55.61,42.896 52.857,44.509 54.417,46.83 C55.976,49.15 60.301,47.148 60.301,47.148 C60.301,47.148 68.75,58.83 69.119,59.9 C69.489,60.98 65.636,68.97 66.402,73.26 C67.167,77.55 94.115,119.81 95.778,122.02 C97.441,124.23 122.245,121.4 124.453,101.81" id="Fill-45" fill="#EAEAE6"></path>
                    <path d="M96.465,58.56 C96.465,58.56 122.752,98.1 124.453,101.81 C126.155,105.52 118.06,113.67 114.386,116.32 C110.712,118.96 98.882,121.29 96.686,120.62 C94.49,119.96 69.182,77.95 68.046,75.09 C66.91,72.23 67.418,68.63 69.433,67.53 C71.447,66.43 75.367,66.18 76.755,65.65 C78.142,65.12 77.178,61.36 79.603,60.4 C82.028,59.43 84.094,62.16 85.64,61.56 C87.187,60.95 86.549,59.45 89.416,57.82 C91.365,56.71 95.316,56.98 96.465,58.56" id="Fill-46" fill="#FFFFFF"></path>
                    <path d="M70.103,40.982 C70.103,40.982 66.659,45.555 60.341,48.12 C60.341,48.12 68.409,45.914 70.103,40.982" id="Fill-47" fill="#979894"></path>
                    <path d="M68.143,36.151 C68.143,36.151 65.727,30.69 65.255,30.14 C64.784,29.59 49.937,38.332 50.221,39.296 C50.504,40.26 54.683,44.985 54.683,44.985 C54.683,44.985 65.604,41.654 68.143,36.151" id="Fill-48" fill="#F2B27A"></path>
                    <path d="M61.528,45.23 C61.865,44.472 62.512,44.167 63.195,43.721 C64.105,43.126 64.947,42.437 65.746,41.7 C67.101,40.45 68,38.741 69.407,37.58 C69.769,37.281 70.177,37.73 70.13,38.089 C69.87,40.086 68.016,41.865 66.607,43.164 C65.426,44.253 63.554,46.125 61.841,45.919 C61.515,45.88 61.414,45.485 61.528,45.23" id="Fill-49" fill="#FFFFFF"></path>
                    <path d="M89.289,54.74 C85.053,54.35 81.236,55.72 78.174,52.45 C76.34,50.5 72.648,44.237 71.45,44.295 C70.252,44.354 69.016,45.923 69.376,46.775 C69.736,47.63 76.035,56.04 76.504,56.78 C76.973,57.52 83.823,59.41 85.223,58.48 C86.624,57.56 87.983,55.75 89.289,54.74" id="Fill-50" fill="#FFFFFF"></path>
                    <path d="M67.309,36.186 L65.081,31.783 C65.081,31.783 58.586,34.851 55.572,36.687 C52.557,38.522 56.485,42.509 56.485,42.509 C56.485,42.509 62.365,41.326 67.309,36.186" id="Fill-51" fill="#F7CBA4"></path>
                    <path d="M68.143,36.151 C68.143,36.151 66.779,40.792 54.683,44.985 C54.683,44.985 60.048,43.777 63.732,41.345 C67.416,38.912 68.143,36.151 68.143,36.151" id="Fill-52" fill="#8C4C29"></path>
                    <path d="M109.681,32.65 C112.67,31.964 114.056,32.658 115.593,33.888 C117.13,35.118 121.273,45.978 124.159,51.31 C127.046,56.63 133.658,73.29 134.011,81.96 C134.365,90.64 132.729,98.56 130.8,100.37 C128.872,102.18 125.467,103.77 123.219,104.1 C120.971,104.43 113.752,103.71 112.8,100.31 C111.848,96.9 112.654,74.36 111.312,69.04 C109.97,63.72 100.716,41.037 101.45,38.958 C102.184,36.879 104.644,33.806 109.681,32.65" id="Fill-53" fill="#295A2F"></path>
                    <path d="M108.608,36.926 C111.567,35.669 113.801,37.438 117.634,44.533 C121.467,51.63 128.032,71.65 128.215,74.84 C128.397,78.03 128.857,94.45 128.22,96.46 C127.583,98.46 120.919,100.37 119.34,99.05 C117.762,97.73 117.199,72.84 117.179,69.73 C117.158,66.62 113.463,57.5 110.992,52.14 C108.521,46.774 105.064,38.431 108.608,36.926" id="Fill-54" fill="#336A36"></path>
                    <path d="M121.078,101.61 C121.078,101.61 116.302,100.4 115.91,98.81 C115.517,97.23 114.857,73.57 113.914,68.43 C112.971,63.3 106.949,49.54 106.247,47.39 C105.545,45.247 103.423,41.309 103.851,39.661 L106.403,35.652 C106.403,35.652 101.752,37.392 101.45,38.958 C101.148,40.524 111.326,67.18 111.623,70.85 C111.92,74.53 111.733,99.96 113.272,101.26 C114.811,102.56 120.697,104.8 123.008,104.13 C125.32,103.45 121.078,101.61 121.078,101.61" id="Fill-55" fill="#274B28"></path>
                    <path d="M108.135,28.85 C108.135,28.85 111.096,27.603 111.716,28.12 C112.335,28.636 114.265,32.985 114.265,32.985 C114.265,32.985 110.553,34.402 110.034,34.379 C109.515,34.356 108.499,33.791 108.499,33.791 C108.499,33.791 107.577,34.944 107.01,35.317 C106.443,35.69 103.914,36.848 103.605,36.911 C103.296,36.974 102.874,36.557 102.874,36.557 C102.874,36.557 102.89,37.507 102.632,37.817 C102.374,38.127 101.716,38.331 101.716,38.331 C101.716,38.331 101.012,37.44 100.874,37.082 C100.737,36.724 100.011,34.107 100.207,33.81 C100.404,33.512 101.452,32.977 101.452,32.977 C101.452,32.977 101.498,31.939 101.707,31.703 C101.916,31.468 102.521,31.28 102.521,31.28 C102.521,31.28 102.194,29.675 102.341,29.452 C102.489,29.229 105.732,27.475 106.251,27.497 C106.77,27.52 108.135,28.85 108.135,28.85" id="Fill-56" fill="#82BE4D"></path>
                    <path d="M106.237,36.889 C106.237,36.889 104.763,39.44 104.93,40.885 C105.096,42.331 107.169,46.667 107.169,46.667 C107.169,46.667 105.405,42.139 105.522,40.636 C105.638,39.133 106.237,36.889 106.237,36.889" id="Fill-57" fill="#243F23"></path>
                    <path d="M110.036,35.021 C110.036,35.021 112.929,35.332 113.945,36.218 C114.962,37.104 117.093,41.878 117.093,41.878 C117.093,41.878 114.319,37.106 113.502,36.565 C112.684,36.025 110.036,35.021 110.036,35.021" id="Fill-58" fill="#243F23"></path>
                    <path d="M110.056,53.57 C110.056,53.57 113.443,62.14 114.234,65.55 C115.025,68.95 115.949,78.22 115.949,78.22 C115.949,78.22 115.764,68.32 114.994,65.49 C114.223,62.66 110.056,53.57 110.056,53.57" id="Fill-59" fill="#243F23"></path>
                    <path d="M130.681,81.87 C130.681,81.87 130.2,94.91 128.977,97.17 C128.202,98.6 124.021,100.3 124.021,100.3 C124.021,100.3 128.798,98.49 129.387,97.76 C130.697,96.14 130.753,86.49 130.681,81.87" id="Fill-60" fill="#243F23"></path>
                    <path d="M120.971,100.92 C120.971,100.92 118.44,99.9 117.465,97.01 C116.49,94.12 116.631,86.28 116.631,86.28 C116.631,86.28 115.912,93.18 117.002,97.1 C118.092,101.03 120.971,100.92 120.971,100.92" id="Fill-61" fill="#243F23"></path>
                    <path d="M122.56,102.53 C125.275,102.21 127.176,102.06 126.911,102.89 C126.911,102.89 126.438,104.46 125.077,104.24 C125.077,104.24 123.953,105.58 121.685,104.42 C121.685,104.42 119.49,105.46 119.046,103.92 C118.783,103 120.873,102.73 122.56,102.53" id="Fill-62" fill="#AAD18F"></path>
                    <path d="M107.637,29.337 C107.637,29.337 106.67,30.113 106.678,30.819 C106.686,31.524 107.797,33.211 107.797,33.211 L108.373,32.338 C108.373,32.338 107.721,29.834 107.637,29.337" id="Fill-63" fill="#4E873F"></path>
                    <path d="M101.478,33.42 C101.478,33.42 101.126,34.844 102.552,36.161 C103.978,37.478 102.874,36.557 102.874,36.557 L101.478,33.42" id="Fill-64" fill="#4E873F"></path>
                    <path d="M103.505,37.966 C103.505,37.966 102.529,39.06 102.692,40.248 C102.856,41.437 103.755,43.954 103.755,43.954 C103.755,43.954 102.637,40.825 103.505,37.966" id="Fill-65" fill="#243F23"></path>
                    <path d="M109.763,37.966 C112.715,36.86 117.634,44.533 122.969,60.09 C128.895,77.36 127.625,81.47 124.807,81.67 C121.99,81.88 119.775,68.24 119.024,65.34 C116.399,55.23 106.025,39.367 109.763,37.966" id="Fill-66" fill="#43853F"></path>
                    <path d="M128.114,60.56 C128.703,60.45 129.59,59.57 130.195,59.76 C132.365,60.44 134.478,62.9 135.382,66.11 C136.539,70.21 138.6,77.62 140.268,81.52 C141.936,85.42 139.666,90.03 135.946,93.55 C132.225,97.06 129.074,97.03 127.553,96.98 C126.031,96.93 125.771,94.97 123.523,95.28 C121.274,95.59 118.326,97.06 115.956,94.65 C113.587,92.25 109.988,88.08 110.658,83.23 C111.377,78.03 119.045,74.46 120.037,72.1 C120.927,69.98 120.755,62.81 126.236,60.3 C126.874,60.01 127.312,60.71 128.114,60.56" id="Fill-67" fill="#B3AC43"></path>
                </g>
                <g id="Group-71" transform="translate(113.385000, 59.714931)">
                    <mask id="mask-2" fill="white">
                        <use xlink:href="#path-1"></use>
                    </mask>
                    <g id="Clip-70"></g>
                    <path d="M17.586,0.9 C17.586,0.9 20.225,2.53 21.649,7.8 C23.073,13.07 24.761,23.1 23.257,26.66 C21.752,30.22 17.878,33.43 15.876,33.4 C13.873,33.36 10.378,33.17 8.998,34.17 C7.619,35.17 3.163,36.12 0.084,32.29 C0.084,32.29 1.323,35.97 4.074,37.81 C6.825,39.65 10.247,37.55 11.93,38.68 C13.613,39.81 18.042,40.81 24.182,35.63 C30.322,30.45 31.605,27.91 29.803,22.79 C28.001,17.67 24.336,12.28 24.016,9.18 C23.696,6.07 20.058,0.24 17.586,0.9" id="Fill-69" fill="#9E9638" mask="url(#mask-2)"></path>
                </g>
                <g id="Group-84" transform="translate(111.385000, 51.714931)">
                    <path d="M11.813,12.99 C12.793,11.49 13.859,10.52 14.653,10.94 C15.447,11.35 16.245,13.66 19.224,11.5 C20.896,10.3 22.918,15.34 23.412,19.19 C23.907,23.03 24.078,32.17 20.255,35.43 C16.433,38.69 13.604,36.9 11.262,38.43 C6.248,41.73 1.693,38.48 1.01,35.14 C0.328,31.8 2.013,27.41 5.737,25.21 C9.461,23.01 10.242,21.13 10.286,18.63 C10.329,16.12 11.117,14.06 11.813,12.99" id="Fill-72" fill="#DFD669"></path>
                    <path d="M13.68,12.38 C14.957,11.8 17.634,13.07 18.977,15.72 C20.319,18.37 18.784,23.77 16.247,28.69 C13.71,33.62 5.608,38.86 3.266,36.72 C0.925,34.58 1.392,29.34 4.647,27.24 C7.902,25.13 9.371,24.54 10.549,22.86 C11.727,21.19 9.991,14.06 13.68,12.38" id="Fill-74" fill="#F1E67F"></path>
                    <path d="M12.13,15.48 C13.195,13.36 14.677,13.02 16.139,14.19 C17.601,15.36 17,22.22 14.494,23.53 C11.987,24.85 10.864,18 12.13,15.48" id="Fill-75" fill="#FEF6AC"></path>
                    <path d="M2.983,31.88 C3.062,29.23 4.366,27.64 6.526,26.7 C8.686,25.76 11.668,28.17 11.697,31.12 C11.726,34.06 2.77,39.11 2.983,31.88" id="Fill-76" fill="#FEF6AC"></path>
                    <path d="M14.737,10.11 C14.859,9.71 15.092,9.63 15.497,9.61 C16.209,9.57 16.646,10.04 17.396,9.71 C17.902,9.49 19.039,8.92 19.538,9.36 C19.712,9.51 19.529,9.76 19.332,9.73 C18.673,9.6 17.756,10.38 17.143,10.58 C16.814,10.68 16.448,10.61 16.122,10.54 C15.939,10.5 15.761,10.43 15.581,10.38 C15.392,10.33 15.116,10.43 14.901,10.38 C14.784,10.36 14.701,10.22 14.737,10.11" id="Fill-77" fill="#DFD669"></path>
                    <path d="M15.104,10.1 C15.142,9.55 16.22,9.57 16.539,9.81 C16.668,9.91 16.696,10.16 16.491,10.2 C16.267,10.25 16.035,10.19 15.807,10.19 C15.614,10.19 15.393,10.3 15.208,10.23 L15.104,10.1" id="Fill-78" fill="#F1E67F"></path>
                    <path d="M15.148,9.84 C15.22,9.68 15.395,9.63 15.559,9.61 C15.703,9.59 15.966,9.66 16.012,9.82 C16.067,10.01 15.825,10.03 15.699,10.02 C15.554,10.01 15.415,10.05 15.274,10.06 C15.156,10.06 15.106,9.94 15.148,9.84" id="Fill-79" fill="#FEF6AC"></path>
                    <path d="M15.239,9.9 C15.392,9.72 15.634,9.7 15.855,9.71 C16.091,9.72 16.391,9.77 16.557,9.96 L16.521,10.09 C16.331,10.15 16.121,10.09 15.931,10.05 C15.722,10.02 15.521,10.07 15.313,10.07 C15.22,10.07 15.182,9.96 15.239,9.9" id="Fill-80" fill="#F1E67F"></path>
                    <path d="M17.556,11.05 C17.556,11.05 16.291,8.95 16.97,5.55 C17.65,2.14 20.081,0.05 20.081,0.05 C20.081,0.05 21.649,0.04 21.763,0.49 C21.763,0.49 18.67,3.39 17.957,5.92 C17.244,8.46 17.857,10.92 17.997,11.27 C18.138,11.61 17.792,11.55 17.556,11.05" id="Fill-81" fill="#171B14"></path>
                    <path d="M19.855,10.55 C19.855,10.55 18.775,10.43 18.165,10.95 C17.555,11.48 16.49,11.26 16.06,10.66 C16.06,10.66 16.435,12.12 17.511,11.9 C18.586,11.68 18.204,10.93 19.855,10.55" id="Fill-82" fill="#857F35"></path>
                    <path d="M37.287,25.69 C39.073,25.49 42.92,20.61 48.117,20.3 C53.314,19.98 61.287,25.78 60.843,35.1 C60.4,44.42 53.69,52.45 49.616,53.67 C45.543,54.9 43.991,53.66 43.134,53.56 C42.277,53.45 41.309,55.54 38.094,56.07 C34.879,56.6 25.246,50.15 22.419,42.59 C19.592,35.03 23.89,27.81 28.017,26.42 C32.145,25.04 34.875,25.95 37.287,25.69" id="Fill-83" fill="#AC2A2A"></path>
                </g>
                <g id="Group-87" transform="translate(132.385000, 77.714931)">
                    <mask id="mask-4" fill="white">
                        <use xlink:href="#path-3"></use>
                    </mask>
                    <g id="Clip-86"></g>
                    <path d="M7.017,0.42 C7.459,0.39 3.595,2.78 2.819,7.14 C1.954,12 3.908,18.02 10.393,21.98 C20.894,28.4 29.954,28.75 38.434,18.9 C38.434,18.9 37.181,30.5 23.382,33.36 C9.584,36.21 3.654,26.19 0.344,19.27 C-2.967,12.35 1.284,0.82 7.017,0.42" id="Fill-85" fill="#992527" mask="url(#mask-4)"></path>
                </g>
                <g id="Group-122" transform="translate(59.385000, 60.714931)">
                    <path d="M100.997,41.8 C103.481,41.63 107.841,39.84 110.469,31.63 C113.097,23.42 109.585,17.91 107.717,16.15 C105.849,14.39 103.027,12.42 99.278,13.99 C95.53,15.56 95.24,19.53 91.212,21.68 C87.183,23.82 83.048,22.06 81.462,21.43 C79.875,20.81 76.898,23.77 78.983,30.2 C81.803,38.9 93.849,42.29 100.997,41.8" id="Fill-88" fill="#CA2F2A"></path>
                    <path d="M83.554,28.54 C84.378,31.01 91.371,38.13 98.192,36.88 C105.013,35.63 110.182,30.32 110.284,25.27 C110.387,20.23 107.637,14.31 103.038,14.73 C98.44,15.16 95.716,18.22 94.724,19.57 C89.41,26.77 81.149,21.34 83.554,28.54" id="Fill-90" fill="#DB332A"></path>
                    <path d="M90.762,28.15 C88.332,26.4 89.161,24.67 92.002,23.39 C94.844,22.1 96.291,21.52 96.993,18.36 C97.694,15.2 100.964,14.24 103.212,15.26 C105.461,16.28 107.489,20.89 101.803,25.33 C96.117,29.77 92.014,29.05 90.762,28.15" id="Fill-91" fill="#E88475"></path>
                    <path d="M106.858,18.15 C106.734,17.82 106.713,17.47 106.562,17.15 C106.454,16.92 106.692,16.6 106.946,16.67 C107.235,16.74 107.428,16.88 107.595,17.13 C107.764,17.38 107.833,17.75 107.795,18.04 C107.733,18.53 107.03,18.6 106.858,18.15" id="Fill-92" fill="#E88475"></path>
                    <path d="M81.25,18.22 C82.763,16.71 85.408,17.21 87.33,17.3 C90.281,17.44 91.999,15.39 94.147,13.72 C95.378,12.77 96.943,12.21 98.452,11.89 C99.367,11.7 101.316,11.01 101.953,12.06 C102.003,12.14 101.946,12.23 101.85,12.23 C98.414,12.02 95.444,13.89 93.05,16.18 C91.613,17.55 90.06,18.54 88.032,18.64 C87.092,18.68 86.148,18.54 85.211,18.49 C83.947,18.42 82.846,18.8 81.616,18.89 C81.29,18.91 80.975,18.49 81.25,18.22" id="Fill-93" fill="#CA2F2A"></path>
                    <path d="M92.651,15.26 C92.917,14.39 94.008,13.76 94.777,13.37 C95.653,12.93 96.625,12.34 97.635,12.41 C97.749,12.41 97.797,12.59 97.695,12.65 C96.836,13.13 95.922,13.38 95.112,13.99 C94.43,14.5 93.78,15.36 92.943,15.57 C92.741,15.62 92.589,15.46 92.651,15.26" id="Fill-94" fill="#E88475"></path>
                    <path d="M89.798,20.76 C90.669,20.6 91.462,19.93 92.39,18.89 C93.319,17.85 93.513,17.25 93.407,16.96 C93.301,16.66 92.054,17.32 91.392,17.96 C90.73,18.6 89.834,19.4 88.148,19.33 C86.461,19.26 84.166,18.68 84.17,19.31 C84.174,19.95 88.476,21.01 89.798,20.76" id="Fill-95" fill="#992527"></path>
                    <path d="M90.031,20.33 C90.031,20.33 88.382,13.26 92.676,7.91 L90.911,6.24 C90.911,6.24 86.394,16.26 89.495,20.6 C89.495,20.6 90.288,21.12 90.031,20.33" id="Fill-96" fill="#2C3F22"></path>
                    <path d="M89.502,12.18 C89.925,10.79 90.417,8.68 91.653,7.78 C91.752,7.71 91.916,7.82 91.85,7.94 C91.046,9.36 90.521,10.77 90.1,12.35 C89.897,13.11 89.74,13.88 89.625,14.66 C89.491,15.56 89.625,16.5 89.376,17.37 C89.331,17.53 89.139,17.56 89.062,17.41 C88.308,15.9 89.041,13.69 89.502,12.18" id="Fill-97" fill="#517337"></path>
                    <path d="M95.111,15.22 C95.111,15.22 93.151,16.3 92.449,17.93 C91.746,19.57 89.684,21.08 87.693,20.3 C85.701,19.53 83.819,18.7 82.997,19.02 C82.997,19.02 85.691,20.31 87.466,21.19 C89.242,22.06 91.588,20.68 92.92,18.52 C94.252,16.36 94.289,15.54 95.111,15.22" id="Fill-98" fill="#7E2022"></path>
                    <path d="M55.355,11.53 C55.355,11.53 57.996,11.42 58.418,12.76 C58.84,14.1 57.247,19.7 48.256,25.62 C39.265,31.54 32.881,32.18 29.299,32.14 C26.591,32.1 26.699,29.7 28.108,28.62 C29.516,27.53 55.355,11.53 55.355,11.53" id="Fill-99" fill="#B1B1AD"></path>
                    <path d="M50.694,4.3 C50.694,4.3 54.602,10.18 56.381,12.76 C58.274,15.5 43.923,30.27 28.432,30.27 C27.801,30.27 22.734,20.87 22.734,20.87 C22.734,20.87 43.544,15.89 50.694,4.3" id="Fill-100" fill="#33557B"></path>
                    <path d="M54.692,17.04 L48.581,7.13 C48.581,7.13 31.998,18.37 25.372,20.55 L30.672,30.17 C30.672,30.17 43.672,30.61 54.692,17.04" id="Fill-101" fill="#1E384D"></path>
                    <path d="M20.643,20.38 C22.152,22.69 30.057,20.65 38.562,15.67 C47.066,10.68 52.995,4.62 51.441,2.34 C48.92,-1.34 42.026,2.08 33.521,7.06 C25.017,12.04 18.791,17.56 20.643,20.38" id="Fill-102" fill="#B1B1AD"></path>
                    <path d="M33.883,7.68 C41.168,3.41 47.85,1.28 48.809,2.92 C48.88,3.04 48.913,3.18 48.92,3.33 C47.463,2.63 41.375,4.99 34.624,8.94 C27.873,12.9 22.835,17.05 22.734,18.67 C22.604,18.59 22.5,18.49 22.429,18.37 C21.47,16.73 26.598,11.95 33.883,7.68" id="Fill-103" fill="#81827F"></path>
                    <path d="M34.624,8.94 C41.375,4.99 47.463,2.63 48.92,3.33 C49.002,5.25 44.107,9.65 37.356,13.61 C30.605,17.56 24.374,19.68 22.734,18.67 C22.835,17.05 27.873,12.9 34.624,8.94" id="Fill-104" fill="#E4E4DF"></path>
                    <path d="M44.356,6.52 C43.022,4.69 27.003,13.14 28.432,15.88 C29.407,17.74 45.691,8.35 44.356,6.52" id="Fill-105" fill="#B1B1AD"></path>
                    <path d="M44.434,24.21 C51.689,19.39 54.214,13.3 53.023,11.53 C51.831,9.77 44.958,12.62 39.945,16.12 C34.932,19.63 28.944,23.55 30.599,26.73 C31.861,29.16 40.977,26.51 44.434,24.21" id="Fill-106" fill="#6D9BC3"></path>
                    <path d="M51.181,13.12 C51.181,13.12 40.213,13.88 36.002,23.58 L31.861,23.89 L35.257,27.21 L36.388,25.17 C36.388,25.17 49.664,22.54 51.181,13.12" id="Fill-107" fill="#E4E4DF"></path>
                    <path d="M46.733,14.51 L47.004,16.2 L47.992,16.04 L47.721,14.35" id="Fill-108" fill="#313330"></path>
                    <path d="M46.577,15.77 L48.581,15.77 L48.581,14.77 L46.577,14.77 L46.577,15.77 Z" id="Fill-109" fill="#313330"></path>
                    <path d="M27.335,18.59 C29.523,17.65 31.784,17.01 33.93,15.94 C36.173,14.82 38.319,13.49 40.386,12.07 C42.167,10.85 43.925,9.55 45.612,8.2 C47.407,6.76 48.595,5.18 49.792,3.25 C50.016,2.88 50.546,3.13 50.461,3.53 C49.631,7.45 44.989,10.31 41.984,12.51 C39.793,14.1 37.481,15.52 35.055,16.73 C32.761,17.87 30.071,19.1 27.468,19.08 C27.225,19.08 27.081,18.69 27.335,18.59" id="Fill-110" fill="#CDD1CF"></path>
                    <path d="M48.162,1.36 C48.476,1.04 48.958,1.13 49.355,1.24 C49.54,1.3 49.72,1.38 49.895,1.46 C50.114,1.56 50.177,1.74 50.331,1.91 C50.591,2.19 50.266,2.54 49.949,2.4 L49.618,2.39 C49.482,2.35 49.35,2.33 49.21,2.31 C48.847,2.28 48.42,2.34 48.162,2.03 C47.992,1.83 47.972,1.56 48.162,1.36" id="Fill-111" fill="#CDD1CF"></path>
                    <path d="M47.419,24.76 C47.946,23.86 48.871,23.32 49.683,22.68 C50.752,21.84 51.771,20.94 52.741,20 C54.596,18.18 56.369,16.02 57.39,13.61 C57.489,13.38 57.876,13.54 57.798,13.78 C56.96,16.33 55.751,18.47 53.891,20.43 C52.959,21.41 51.911,22.29 50.854,23.13 C49.9,23.9 48.899,24.86 47.677,25.1 C47.486,25.14 47.313,24.95 47.419,24.76" id="Fill-112" fill="#CDD1CF"></path>
                    <path d="M45.181,9.47 C45.735,8.63 46.49,7.99 47.097,7.2 C47.703,6.4 48.261,5.77 49.084,5.19 L49.226,5.3 C48.849,6.22 48.387,6.95 47.588,7.58 C46.764,8.22 46.191,9.03 45.264,9.55 L45.181,9.47" id="Fill-113" fill="#EFEFEC"></path>
                    <path d="M43.269,10.56 C43.524,10.43 43.784,10.32 44.019,10.14 C44.274,9.95 44.501,10.34 44.333,10.55 C44.17,10.75 43.978,10.93 43.783,11.1 C43.57,11.29 43.255,11.58 42.95,11.47 C42.82,11.42 42.733,11.32 42.729,11.18 C42.719,10.86 43.021,10.7 43.269,10.56" id="Fill-114" fill="#EFEFEC"></path>
                    <path d="M52.753,20.72 C52.795,20.48 52.923,20.39 53.113,20.24 C53.407,20.01 53.682,19.75 53.948,19.48 C54.47,18.96 55.103,18.33 55.437,17.68 C55.489,17.58 55.66,17.65 55.622,17.76 C55.351,18.53 55.051,19.14 54.51,19.77 C54.161,20.17 53.478,21.05 52.877,20.93 C52.776,20.91 52.738,20.81 52.753,20.72" id="Fill-115" fill="#EFEFEC"></path>
                    <path d="M48.968,1.42 C49.168,1.4 49.344,1.47 49.54,1.51 C49.837,1.56 49.838,2.05 49.54,2.1 C49.249,2.16 48.961,2.2 48.753,1.94 C48.583,1.73 48.69,1.44 48.968,1.42" id="Fill-116" fill="#EFEFEC"></path>
                    <path d="M42.288,18.89 L33.022,28.83 L23.728,21.27 L18.94,30.15 L5.958,16.75 C5.958,16.75 6.811,50.09 7.461,54.42 C8.111,58.75 10.061,75.65 10.277,78.68 C10.494,81.72 2.261,113.13 0.095,116.16 C0.095,116.16 30.643,134.36 36.276,138.48 C36.276,138.48 43.774,126.35 49.991,90.38 C56.208,54.42 42.288,18.89 42.288,18.89" id="Fill-117" fill="#9D764B"></path>
                    <path d="M42.999,62.2 C42.999,62.2 39.742,75.22 36.276,78.68 C32.809,82.15 30.681,82.96 30.426,83.1 C30.172,83.23 24.793,84.32 31.726,86.48 C38.659,88.65 22.283,92.22 18.88,91.19 C15.477,90.17 12.544,79.99 12.711,78.68 C12.877,77.38 23.081,78.14 23.937,76.78 C24.793,75.43 17.95,70.9 14.438,64.18 C10.927,57.45 6.134,23.16 6.134,23.16 C6.134,23.16 6.642,48.13 7.461,54.42 C8.279,60.71 10.277,78.68 10.277,78.68 C10.277,78.68 5.294,101 0.095,116.16 C0.095,116.16 33.243,136.31 36.276,138.48 C36.276,138.48 45.142,120.93 45.852,89.08 C46.428,63.27 42.999,62.2 42.999,62.2" id="Fill-118" fill="#936B46"></path>
                    <path d="M5.958,16.75 L20.577,28.57 L16.935,29.07 L21.67,20.16 L23.219,17.24 L25.203,19.45 L33.304,28.48 L32.696,28.52 L42.288,18.89 L33.349,29.13 L33.12,29.39 L32.74,29.17 L22.253,23.08 L25.786,22.37 L19.259,34.32 L17.304,31.74 L5.958,16.75" id="Fill-119" fill="#F8CA9A"></path>
                    <path d="M17.185,64.18 C17.185,64.18 24.723,72.43 34.792,74.57 C34.792,74.57 23.227,75.77 17.185,64.18" id="Fill-120" fill="#936B46"></path>
                    <path d="M140.594,27.34 L131.17,34.56 L123.858,23.16 C123.858,23.16 114.422,31.14 109.467,32.73 C109.467,32.73 103.647,25.61 101.972,24.12 C101.972,24.12 94.857,31.95 93.433,32.73 C93.433,32.73 82.756,22.61 80.518,21.8 C80.518,21.8 71.93,28.4 69.911,29.19 C69.911,29.19 63.365,21.57 62.819,20.8 C62.819,20.8 56.524,28.17 55.174,29.3 C55.174,29.3 43.15,19.4 42.288,18.89 C42.288,18.89 42.26,51.17 43.059,58.32 C43.859,65.47 45.896,87.35 45.852,89.08 C45.808,90.82 41.259,129.81 36.276,138.48 C36.276,138.48 135.286,132.41 149.802,130.46 C149.802,130.46 145.34,107.74 141.136,92.33 C138.266,81.81 140.594,27.34 140.594,27.34" id="Fill-121" fill="#D09E73"></path>
                </g>
                <path d="M199.979,88.0549313 L190.859,95.6749313 L190.458,96.0049313 L190.134,95.5449313 L181.4,85.0549313 L184.595,85.5949313 C183.339,86.3949313 182.097,87.1549313 180.839,87.9049313 C179.579,88.6549313 178.316,89.3949313 177.032,90.1049313 C176.399,90.4749313 175.749,90.8149313 175.097,91.1549313 C174.44,91.4949313 173.814,91.8549313 173.135,92.1649313 L171.134,93.1049313 L169.044,93.9049313 L168.741,94.0749313 L168.454,93.7449313 C167.21,92.3149313 165.934,90.8949313 164.63,89.5249313 C164.307,89.1849313 163.98,88.8449313 163.646,88.5149313 C163.313,88.1849313 162.988,87.8349313 162.649,87.5149313 L161.636,86.5749313 L160.616,85.7449313 L162.231,85.6149313 C161.505,86.3349313 160.772,87.0449313 160.035,87.7449313 C159.303,88.4549313 158.567,89.1549313 157.805,89.8449313 L156.675,90.8749313 C156.291,91.2149313 155.94,91.5649313 155.529,91.8949313 L153.128,93.8349313 L152.871,94.1249313 L152.463,93.7949313 C150.258,92.0249313 148.001,90.3049313 145.71,88.6849313 C145.14,88.2749313 144.57,87.8749313 143.986,87.4949313 C143.406,87.1149313 142.833,86.7149313 142.253,86.3649313 L140.516,85.3549313 C140.23,85.1849313 139.965,85.1049313 139.695,84.9849313 L138.904,84.6349313 L138.903,84.6349313 L141.285,84.4049313 C139.348,85.4349313 137.423,86.4549313 135.472,87.4449313 L132.548,88.9349313 L129.545,90.3349313 L129.252,90.5649313 L128.916,90.2349313 L121.066,82.3949313 L123.276,82.4749313 L114.931,90.3449313 L114.593,90.7049313 L114.245,90.4049313 L101.673,79.6049313 L114.874,89.6249313 L114.188,89.6749313 L121.133,80.5449313 L122.054,79.3349313 L123.343,80.6249313 L129.676,89.5749313 L129.048,89.4749313 L131.465,87.3549313 L133.836,85.1349313 C135.409,83.6449313 136.976,82.1349313 138.521,80.6349313 L139.408,79.7649313 L140.903,80.4049313 L140.904,80.4049313 L141.934,81.1449313 C142.263,81.3849313 142.632,81.6249313 142.915,81.8849313 L144.576,83.4149313 C145.109,83.9249313 145.601,84.4549313 146.113,84.9749313 C146.627,85.4949313 147.11,86.0249313 147.592,86.5649313 C149.536,88.6949313 151.378,90.8649313 153.173,93.0949313 L152.509,93.0549313 L154.605,90.9249313 C154.958,90.5849313 155.275,90.1749313 155.611,89.8049313 L156.606,88.6749313 C157.275,87.9249313 157.922,87.1549313 158.565,86.3749313 C159.213,85.6049313 159.855,84.8249313 160.483,84.0449313 L161.186,83.1749313 L162.098,83.9249313 L163.178,85.0349313 L164.13,86.1549313 C164.446,86.5349313 164.731,86.9149313 165.033,87.2949313 C165.334,87.6749313 165.626,88.0649313 165.91,88.4549313 C167.065,89.9949313 168.168,91.5549313 169.249,93.1449313 L168.659,92.9849313 L170.448,91.8649313 L172.169,90.5949313 C172.745,90.1849313 173.291,89.7049313 173.851,89.2649313 C174.408,88.8149313 174.962,88.3649313 175.504,87.8949313 C177.688,86.0549313 179.832,84.1049313 181.889,82.1549313 L181.89,82.1549313 L184.18,80.8049313 L190.975,95.0049313 L190.251,94.8749313 L199.979,88.0549313" id="Fill-125" fill="#F8CA9A"></path>
                <path d="M161.357,150.664931 C161.357,150.664931 144.546,146.114931 137.652,145.244931 C130.758,144.384931 121.199,145.244931 121.199,145.244931 C121.199,145.244931 135.197,148.284931 140.994,149.144931 C146.791,150.014931 161.357,150.664931 161.357,150.664931" id="Fill-127" fill="#B49062"></path>
                <path d="M196.621,150.664931 C196.621,150.664931 185.898,161.494931 177.177,165.834931 C168.456,170.164931 160.801,172.764931 160.801,172.764931 C160.801,172.764931 174.883,169.944931 178.711,168.214931 C182.538,166.474931 196.621,150.664931 196.621,150.664931" id="Fill-128" fill="#A38459"></path>
                <path d="M121.91,214.164931 L10.47,214.774931 L9.847,100.324931 L121.288,99.7249313 L121.91,214.164931" id="Fill-129" fill="#FFFFFF"></path>
                <path d="M121.288,99.7249313 L9.847,100.324931 L9.934,116.324931 L121.375,115.714931 L121.288,99.7249313" id="Fill-130" fill="#F5EBE1"></path>
                <path d="M121.288,99.7249313 L9.847,100.324931 L9.903,110.544931 L121.344,109.944931 L121.288,99.7249313" id="Fill-131" fill="#EC9038"></path>
                <path d="M23.5,104.694931 C23.509,106.334931 22.189,107.664931 20.553,107.674931 C18.918,107.684931 17.584,106.364931 17.575,104.724931 C17.564,103.094931 18.886,101.754931 20.521,101.744931 C22.157,101.734931 23.49,103.054931 23.5,104.694931" id="Fill-132" fill="#1B313B"></path>
                <path d="M39.2,104.614931 C39.21,106.244931 37.889,107.584931 36.254,107.584931 C34.618,107.594931 33.285,106.274931 33.275,104.644931 C33.265,103.004931 34.586,101.674931 36.222,101.664931 C37.857,101.654931 39.193,102.974931 39.2,104.614931" id="Fill-133" fill="#1B313B"></path>
                <path d="M54.901,104.524931 C54.911,106.164931 53.59,107.494931 51.955,107.504931 C50.319,107.514931 48.985,106.194931 48.976,104.554931 C48.966,102.914931 50.287,101.584931 51.922,101.574931 C53.558,101.564931 54.894,102.884931 54.901,104.524931" id="Fill-134" fill="#1B313B"></path>
                <path d="M70.602,104.444931 C70.611,106.074931 69.29,107.404931 67.655,107.414931 C66.019,107.424931 64.686,106.104931 64.677,104.474931 C64.666,102.834931 65.988,101.504931 67.623,101.494931 C69.258,101.484931 70.595,102.804931 70.602,104.444931" id="Fill-135" fill="#1B313B"></path>
                <path d="M86.302,104.354931 C86.312,105.994931 84.991,107.324931 83.356,107.334931 C81.72,107.344931 80.386,106.024931 80.377,104.384931 C80.37,102.744931 81.688,101.414931 83.324,101.404931 C84.959,101.394931 86.295,102.714931 86.302,104.354931" id="Fill-136" fill="#1B313B"></path>
                <path d="M102.003,104.264931 C102.013,105.904931 100.692,107.244931 99.056,107.244931 C97.421,107.254931 96.087,105.934931 96.078,104.304931 C96.07,102.664931 97.389,101.334931 99.025,101.324931 C100.66,101.314931 101.996,102.634931 102.003,104.264931" id="Fill-137" fill="#1B313B"></path>
                <path d="M117.707,104.184931 C117.716,105.814931 116.395,107.154931 114.757,107.164931 C113.125,107.174931 111.788,105.854931 111.779,104.214931 C111.772,102.574931 113.09,101.244931 114.728,101.234931 C116.361,101.224931 117.697,102.544931 117.707,104.184931" id="Fill-138" fill="#1B313B"></path>
                <path d="M18.613,95.6449313 C16.504,95.0449313 15.196,96.1449313 14.432,97.7449313 L16.603,97.7349313 C17.208,97.1949313 17.99,97.0749313 18.794,97.8049313 C20.299,99.1849313 19.974,102.214931 19.976,104.044931 C19.98,105.194931 21.758,105.184931 21.754,104.034931 C21.749,101.374931 21.929,96.5849313 18.613,95.6449313" id="Fill-139" fill="#1B313B"></path>
                <path d="M34.24,95.5549313 C31.939,94.9049313 30.587,96.2649313 29.859,98.1049313 L31.829,98.0949313 C32.464,97.2249313 33.425,96.8049313 34.424,97.7249313 C35.928,99.0949313 35.598,102.134931 35.605,103.964931 C35.609,105.104931 37.384,105.094931 37.383,103.954931 C37.375,101.284931 37.558,96.5049313 34.24,95.5549313" id="Fill-140" fill="#1B313B"></path>
                <path d="M49.94,95.4749313 C47.413,94.7549313 46.034,96.4749313 45.367,98.5749313 L47.198,98.5649313 C47.786,97.3449313 48.929,96.5449313 50.122,97.6349313 C51.629,99.0149313 51.301,102.044931 51.306,103.874931 C51.309,105.024931 53.085,105.014931 53.081,103.864931 C53.076,101.204931 53.259,96.4149313 49.94,95.4749313" id="Fill-141" fill="#1B313B"></path>
                <path d="M65.567,95.3849313 C63.714,94.8649313 62.478,95.6449313 61.69,96.9349313 L63.598,96.9249313 L63.602,97.4349313 C64.201,96.9349313 64.966,96.8349313 65.751,97.5549313 C67.255,98.9249313 66.926,101.964931 66.932,103.794931 C66.936,104.934931 68.711,104.924931 68.71,103.784931 C68.702,101.114931 68.885,96.3249313 65.567,95.3849313" id="Fill-142" fill="#1B313B"></path>
                <path d="M81.156,95.3049313 C78.765,94.6249313 77.404,96.1249313 76.698,98.0749313 L78.59,98.0649313 C79.214,97.0349313 80.259,96.4749313 81.34,97.4649313 C82.845,98.8449313 82.518,101.874931 82.522,103.704931 C82.525,104.854931 84.3,104.844931 84.299,103.694931 C84.295,101.034931 84.474,96.2449313 81.156,95.3049313" id="Fill-143" fill="#1B313B"></path>
                <path d="M96.782,95.2149313 C94.391,94.5349313 93.031,96.0449313 92.324,97.9949313 L94.217,97.9749313 C94.84,96.9549313 95.885,96.3949313 96.966,97.3849313 C98.471,98.7549313 98.144,101.794931 98.148,103.624931 C98.151,104.764931 99.929,104.754931 99.926,103.614931 C99.921,100.944931 100.1,96.1649313 96.782,95.2149313" id="Fill-144" fill="#1B313B"></path>
                <path d="M112.207,95.1349313 C110.002,94.5049313 108.675,95.7349313 107.929,97.4549313 L109.97,97.4449313 C110.6,96.7349313 111.482,96.4649313 112.391,97.2949313 C113.896,98.6749313 113.569,101.704931 113.573,103.534931 C113.576,104.684931 115.354,104.674931 115.351,103.534931 C115.343,100.864931 115.525,96.0749313 112.207,95.1349313" id="Fill-145" fill="#1B313B"></path>
                <path d="M114.5,130.194931 L37.244,130.614931 L37.213,124.614931 L114.466,124.194931 L114.5,130.194931" id="Fill-146" fill="#F6C9AE"></path>
                <path d="M99.788,214.284931 L121.91,214.164931 L121.814,196.144931 L99.69,196.264931 L99.788,214.284931" id="Fill-147" fill="#F5EBE1"></path>
                <path d="M99.788,214.284931 L121.91,214.164931 L121.814,196.144931 L99.788,214.284931" id="Fill-148" fill="#FFFFFF"></path>
                <path d="M32.031,134.424931 L32.029,133.924931 L18.308,133.994931 L18.236,120.774931 L31.457,120.704931 L31.531,134.424931 L32.031,134.424931 L32.029,133.924931 L32.031,134.424931 L32.531,134.414931 L32.451,119.694931 L17.231,119.784931 L17.314,135.004931 L32.534,134.914931 L32.531,134.414931 L32.031,134.424931" id="Fill-149" fill="#EC9038"></path>
                <path d="M114.5,152.194931 L37.244,152.614931 L37.213,146.614931 L114.466,146.194931 L114.5,152.194931" id="Fill-150" fill="#F6C9AE"></path>
                <path d="M32.031,156.424931 L32.029,155.924931 L18.308,155.994931 L18.236,142.774931 L31.457,142.704931 L31.531,156.424931 L32.031,156.424931 L32.029,155.924931 L32.031,156.424931 L32.531,156.414931 L32.451,141.704931 L17.231,141.784931 L17.314,157.004931 L32.534,156.914931 L32.531,156.414931 L32.031,156.424931" id="Fill-151" fill="#EC9038"></path>
                <path d="M114.5,174.194931 L37.244,174.614931 L37.213,168.614931 L114.466,168.194931 L114.5,174.194931" id="Fill-152" fill="#F6C9AE"></path>
                <path d="M32.031,178.424931 L32.029,177.924931 L18.308,177.994931 L18.236,164.774931 L31.457,164.704931 L31.531,178.424931 L32.031,178.424931 L32.029,177.924931 L32.031,178.424931 L32.531,178.414931 L32.451,163.704931 L17.231,163.784931 L17.314,179.004931 L32.534,178.914931 L32.531,178.414931 L32.031,178.424931" id="Fill-153" fill="#EC9038"></path>
                <path d="M114.5,194.724931 L37.244,195.144931 L37.213,189.144931 L114.466,188.724931 L114.5,194.724931" id="Fill-154" fill="#F6C9AE"></path>
                <path d="M32.031,198.954931 L32.029,198.454931 L18.308,198.534931 L18.236,185.314931 L31.457,185.234931 L31.531,198.954931 L32.031,198.954931 L32.029,198.454931 L32.031,198.954931 L32.531,198.954931 L32.451,184.234931 L17.231,184.314931 L17.314,199.534931 L32.534,199.454931 L32.531,198.954931 L32.031,198.954931" id="Fill-155" fill="#EC9038"></path>
                <path d="M22.223,125.384931 L24.638,130.554931 C24.638,130.554931 30.934,122.994931 34.598,121.574931 C34.598,121.574931 28.456,124.044931 25.156,127.344931 L22.223,125.384931" id="Fill-156" fill="#336D37"></path>
                <path d="M22.223,147.384931 L24.638,152.554931 C24.638,152.554931 30.934,144.994931 34.598,143.574931 C34.598,143.574931 28.456,146.044931 25.156,149.344931 L22.223,147.384931" id="Fill-157" fill="#336D37"></path>
            </g>
        </g>
    </g>
</svg>