<?xml version="1.0" encoding="UTF-8" standalone="no"?>
<svg width="225px" height="177px" viewBox="0 0 225 177" version="1.1" xmlns="http://www.w3.org/2000/svg" xmlns:xlink="http://www.w3.org/1999/xlink">
    <!-- Generator: sketchtool 3.6.1 (26313) - http://www.bohemiancoding.com/sketch -->
    <title>045F0170-8B6E-4106-9249-1D7CC14DDA4F</title>
    <desc>Created with sketchtool.</desc>
    <defs></defs>
    <g id="Welcome" stroke="none" stroke-width="1" fill="none" fill-rule="evenodd">
        <g id="1-Homepage" transform="translate(-922.000000, -699.000000)">
            <g id="piggie" transform="translate(922.000000, 699.000000)">
                <path d="M135.944,176.058 C132.058,176.058 128.037,175.701 124.149,174.892 C108.523,171.642 107.045,158.708 107.045,158.708 C106.859,158.716 106.649,158.72 106.418,158.72 C100.161,158.72 78.025,155.892 78.025,155.892 C83.531,166.194 71.625,169.555 59.785,169.555 C54.96,169.554 50.144,168.996 46.525,168.121 C34.025,165.101 44.18,152.986 44.18,152.986 C45.333,151.176 46.661,149.528 48.105,148.027 C48.527,153.008 48.491,156.865 48.8,159.819 C49.09,162.595 54.056,164.188 59.523,164.189 C66.11,164.189 73.425,161.875 74.162,156.524 L75.412,143.129 C85.45,146.115 96.352,147.862 107.77,148.103 C109.334,155.119 113.403,161.602 119.73,166.088 C125.011,169.832 131.084,171.632 137.101,171.632 C144.392,171.632 151.6,168.987 157.204,163.957 C159.267,164.755 161.648,165.165 164.006,165.165 C164.788,165.165 165.568,165.12 166.333,165.029 C167.878,165.571 169.528,166.053 171.264,166.463 C173.111,166.902 175.053,167.264 177.076,167.534 C178.953,167.786 180.895,167.964 182.889,168.052 C183.87,168.095 184.86,168.118 185.863,168.121 C186.817,168.118 187.763,168.098 188.7,168.058 C190.692,167.972 192.636,167.801 194.513,167.554 C196.534,167.287 198.477,166.932 200.325,166.497 C202.395,166.01 204.344,165.426 206.136,164.758 C208.322,163.947 210.275,163.015 211.949,161.985 C214.788,160.236 216.818,158.219 217.761,156.061 L217.761,152.964 C225.267,155.31 230.302,161.185 210.233,170.892 C202.961,174.409 195.564,175.642 188.768,175.642 C172.864,175.642 160.255,168.892 160.255,168.892 C158.189,172.804 147.673,176.058 135.944,176.058" id="Fill-205" fill="#000000" opacity="0.1"></path>
                <path d="M134.694,140.464 C134.808,142.959 134.855,145.168 135.122,146.712 C136.782,156.34 159.216,157.077 159.933,146.139 C160.147,142.886 159.607,137.213 160.255,131.065 L134.694,140.464" id="Fill-206" fill="#EB8D49"></path>
                <path d="M42.039,124.709 C42.154,127.204 44.219,144.016 44.485,145.56 C44.783,147.29 45.752,148.733 47.145,149.873 C53.506,155.076 68.708,153.96 69.296,144.987 C69.509,141.735 68.97,136.061 69.618,129.912 L42.039,124.709" id="Fill-207" fill="#EB8D49"></path>
                <path d="M205.622,47.213 C205.484,52.222 202.826,51.767 202.533,47.217 C202.395,45.147 203.123,43.232 203.956,43.146 C204.355,43.104 204.781,43.48 205.149,44.454 C205.493,45.373 205.645,46.299 205.622,47.213 M48.8,159.819 C49.44,165.939 72.813,166.315 74.162,156.524 L75.412,143.129 C86.247,146.352 98.088,148.131 110.498,148.131 C124.432,148.131 137.652,145.89 149.532,141.876 C151.066,147.681 150.588,154.331 151.176,157.74 C152.836,167.368 175.27,168.104 175.987,157.167 C176.319,152.096 174.823,141.141 178.849,131.673 C178.849,131.673 205.039,118.665 203.999,79.451 C203.996,73.567 202.984,67.855 201.085,62.405 C202.926,60.914 204.767,59.331 205.407,58.893 C210.568,60.803 220.227,54.363 219.829,53.749 C219.505,52.903 217.908,53.229 215.773,53.555 C214.083,53.813 212.055,54.071 210.055,53.749 L210.376,53.141 C212.914,48.163 211.736,42.661 209.567,39.651 C207.909,37.351 205.614,36.227 203.269,36.561 C201.348,36.837 198.695,38.212 196.957,43.173 C195.41,47.598 196.278,51.797 199.32,55.001 C198.903,55.122 198.469,55.218 198.024,55.287 C186.28,32.384 158.345,15.308 124.461,11.583 C93.778,7.885 69.471,16.301 69.471,16.301 C69.471,16.301 53.121,1.34 39.476,4.766 C34.769,8.229 42.969,29.236 43.488,31.42 C43.08,31.788 42.676,32.159 42.275,32.533 C34.885,38.321 28.845,45.05 24.524,52.449 C20.43,53.209 11.441,52.98 3.545,52.947 C2.767,57.39 1.274,101.174 6.038,101.214 C11.911,101.266 14.65,102.116 21.937,101.554 C26.565,111.564 34.252,120.537 44.18,127.871 C49.002,143.708 48.16,153.699 48.8,159.819" id="Fill-208" fill="#EB9C54"></path>
                <path d="M74.494,14.849 C71.267,15.68 69.471,16.301 69.471,16.301 C69.471,16.301 53.121,1.34 39.476,4.765 C39.328,4.875 39.192,5.002 39.068,5.146 C39.08,5.147 51.447,6.858 57.019,10.341 C62.593,13.825 63.5,15.633 63.046,17.762 C62.592,19.892 51.637,27.7 51.637,27.7 C51.637,27.7 66.611,19.699 67,19.57 C67,19.57 73.976,16.827 74.974,16.341 C75.222,16.22 75.032,15.667 74.494,14.849" id="Fill-209" fill="#F1AE6D"></path>
                <path d="M178.849,131.673 C184.929,128.426 204.892,113.137 203.999,79.451 C203.996,73.567 202.984,67.855 201.085,62.405 C202.926,60.914 204.767,59.331 205.407,58.893 C205.611,58.938 206.096,58.9 206.772,58.864 C207.662,58.816 208.883,58.768 210.233,58.904 C208.489,59.317 206.786,59.404 205.407,58.893 C203.93,58.572 202.465,57.132 202.465,57.132 L198.317,60.875 C200.536,92.813 191.202,105.483 181.592,119.207 L178.849,131.673" id="Fill-210" fill="#EB8D49"></path>
                <path d="M75.412,143.129 C86.247,146.352 98.088,148.131 110.498,148.131 C124.432,148.131 137.652,145.89 149.532,141.876 L149.829,128.11 C149.829,128.11 122.994,138.177 104.844,137.918 C86.694,137.661 75.805,132.886 75.805,132.886 L75.412,143.129" id="Fill-211" fill="#EB8D49"></path>
                <path d="M3.766,95.962 C4.282,99.179 5.015,101.206 6.038,101.215 C11.91,101.265 14.65,102.116 21.937,101.554 C26.565,111.564 34.251,120.537 44.181,127.871 C44.123,123.372 43.654,119.787 43.784,119.142 C43.914,118.497 28.809,101.915 28.809,101.915 C28.809,101.915 35.42,87.204 35.679,86.042 C35.939,84.881 34.642,88.623 29.457,92.882 C24.271,97.141 20.511,97.657 20.511,97.657 L3.766,95.962" id="Fill-212" fill="#EB8D49"></path>
                <path d="M159.659,34.205 C159.051,34.181 158.444,34.028 157.868,33.739 C132.654,21.15 100.659,26.497 100.37,26.547 C98.82,26.826 97.977,23.336 101.555,22.69 C114.456,20.365 149.67,22.097 163.331,32.559 C162.433,33.67 161.056,34.269 159.659,34.205" id="Fill-213" fill="#292A2A"></path>
                <path d="M60.023,51.665 C60.023,55.004 57.302,57.71 53.947,57.71 C50.597,57.71 47.876,55.004 47.876,51.665 C47.876,48.326 50.597,45.618 53.947,45.618 C57.302,45.618 60.023,48.326 60.023,51.665" id="Fill-214" fill="#393A38"></path>
                <path d="M54.804,48.968 C54.804,50.339 53.689,51.447 52.313,51.447 C50.936,51.447 49.823,50.339 49.823,48.968 C49.823,47.598 50.936,46.489 52.313,46.489 C53.689,46.489 54.804,47.598 54.804,48.968" id="Fill-215" fill="#FFFFFF"></path>
                <path d="M100.273,30.063 L108.963,25.645 C122.439,24.954 135.779,26.009 148.69,29.984 L139.855,37.233 L100.273,30.063" id="Fill-216" fill="#F1AE6D"></path>
                <path d="M3.544,52.947 C5.937,53.498 8.435,64.751 9.123,78.08 C9.812,91.409 8.431,101.767 6.038,101.215 C3.646,100.664 1.148,89.411 0.459,76.082 C-0.229,62.754 1.152,52.395 3.544,52.947" id="Fill-217" fill="#CF8947"></path>
                <path d="M91.434,27.38 C87.541,19.627 76.192,-2.157 66.543,1.312 C61.876,2.989 65.765,30.994 67.062,32.284 C68.358,33.575 82.878,38.221 82.878,38.221 L91.434,27.38" id="Fill-218" fill="#F1AE6D"></path>
                <path d="M66.543,1.312 C61.876,2.989 65.765,30.994 67.062,32.284 C68.358,33.575 82.878,38.221 82.878,38.221 L91.407,27.415 C90.969,27.966 85.161,35.234 82.342,36.444 C81.44,33.592 79.388,27.653 76.139,21.184 C71.601,12.15 66.543,1.312 66.543,1.312" id="Fill-219" fill="#CF8947"></path>
                <path d="M165.867,38.2 C165.932,37.872 166.07,37.575 166.262,37.34 C171.609,30.797 189.436,44.586 190.144,56.665 C188.412,57.167 186.414,57.771 184.455,58.386 C183.443,54.406 180.803,46.573 175.055,42.594 C171.239,39.954 168.097,38.745 165.867,38.2" id="Fill-220" fill="#F6C58F"></path>
                <path d="M90.066,128.871 C82.204,125.393 78.385,121.634 83.778,119.315 C89.173,116.995 97.302,123.403 108.503,124.405 C119.704,125.407 128.747,124.183 133.54,121.644 C138.333,119.107 142.41,120.491 142.949,121.922 C146.128,130.343 107.493,136.582 90.066,128.871" id="Fill-221" fill="#F6C58F"></path>
                <path d="M5.208,61.634 C4.244,61.559 3.761,61.261 3.665,63.352 C3.569,65.444 5.111,86.061 5.883,85.239 C6.654,84.417 6.557,65.817 5.883,63.726 L5.208,61.634" id="Fill-222" fill="#E68651"></path>
                <path d="M2.058,60.482 C2.462,60.408 2.664,60.109 2.705,62.201 C2.745,64.292 2.099,84.909 1.776,84.087 C1.452,83.266 1.493,64.666 1.776,62.574 L2.058,60.482" id="Fill-223" fill="#E68651"></path>
                <path d="M217.76,152.799 L217.769,84.353 L153.932,84.192 L153.956,154.095 L217.76,152.799" id="Fill-224" fill="#CEA130"></path>
                <path d="M185.863,133.121 C168.236,133.149 153.965,139.652 153.965,147.671 C153.965,155.693 168.236,162.199 185.863,162.222 C203.489,162.199 217.761,155.693 217.761,147.671 C217.761,139.652 203.489,133.149 185.863,133.121" id="Fill-225" fill="#CEA130"></path>
                <path d="M185.863,135.55 C171.177,135.566 159.287,140.407 159.287,146.376 C159.287,152.342 171.177,157.18 185.863,157.2 C200.548,157.18 212.438,152.342 212.438,146.376 C212.438,140.407 200.548,135.566 185.863,135.55" id="Fill-226" fill="#FBD821"></path>
                <path d="M184.589,135.776 L184.578,135.352 C185.004,135.342 185.433,135.339 185.861,135.339 L185.916,135.339 L185.916,135.762 L185.863,135.762 C185.436,135.762 185.011,135.766 184.589,135.776 L184.589,135.776 Z M188.463,135.817 C188.04,135.799 187.616,135.786 187.19,135.776 L187.199,135.353 C187.63,135.361 188.057,135.375 188.482,135.392 L188.463,135.817 L188.463,135.817 Z M182.042,135.878 L182.016,135.456 C182.441,135.429 182.866,135.408 183.297,135.392 L183.313,135.814 C182.885,135.83 182.462,135.852 182.042,135.878 L182.042,135.878 Z M191.008,135.97 C190.588,135.935 190.164,135.906 189.736,135.878 L189.76,135.458 C190.194,135.484 190.619,135.513 191.041,135.548 L191.008,135.97 L191.008,135.97 Z M179.501,136.081 L179.458,135.659 C179.88,135.619 180.305,135.578 180.735,135.543 L180.77,135.966 C180.343,136 179.919,136.039 179.501,136.081 L179.501,136.081 Z M193.545,136.23 C193.127,136.178 192.704,136.128 192.278,136.086 L192.319,135.666 C192.751,135.708 193.174,135.756 193.595,135.809 L193.545,136.23 L193.545,136.23 Z M176.972,136.393 L176.909,135.974 C177.329,135.911 177.754,135.856 178.182,135.802 L178.234,136.223 C177.809,136.274 177.386,136.332 176.972,136.393 L176.972,136.393 Z M196.063,136.601 C195.65,136.529 195.229,136.464 194.805,136.4 L194.867,135.98 C195.294,136.044 195.717,136.112 196.136,136.18 L196.063,136.601 L196.063,136.601 Z M174.46,136.818 L174.379,136.402 C174.795,136.323 175.215,136.244 175.641,136.173 L175.713,136.591 C175.289,136.662 174.873,136.739 174.46,136.818 L174.46,136.818 Z M198.561,137.092 C198.154,137 197.739,136.91 197.316,136.83 L197.398,136.414 C197.823,136.497 198.243,136.584 198.654,136.676 L198.561,137.092 L198.561,137.092 Z M171.974,137.371 L171.871,136.962 C172.282,136.858 172.698,136.759 173.122,136.667 L173.215,137.08 C172.794,137.17 172.381,137.269 171.974,137.371 L171.974,137.371 Z M201.029,137.714 C200.629,137.6 200.22,137.49 199.8,137.385 L199.905,136.972 C200.327,137.08 200.74,137.191 201.146,137.307 L201.029,137.714 L201.029,137.714 Z M169.528,138.07 L169.396,137.663 C169.8,137.536 170.211,137.41 170.63,137.293 L170.746,137.703 C170.331,137.819 169.925,137.941 169.528,138.07 L169.528,138.07 Z M203.45,138.495 C203.06,138.353 202.657,138.216 202.247,138.084 L202.379,137.68 C202.795,137.815 203.198,137.954 203.595,138.096 L203.45,138.495 L203.45,138.495 Z M167.138,138.93 L166.978,138.539 C167.37,138.379 167.769,138.228 168.18,138.079 L168.327,138.476 C167.918,138.622 167.522,138.775 167.138,138.93 L167.138,138.93 Z M205.797,139.46 C205.421,139.283 205.032,139.112 204.634,138.951 L204.796,138.559 C205.2,138.722 205.594,138.896 205.977,139.076 L205.797,139.46 L205.797,139.46 Z M164.841,139.999 L164.641,139.626 C165.01,139.43 165.398,139.238 165.796,139.052 L165.976,139.437 C165.582,139.619 165.2,139.81 164.841,139.999 L164.841,139.999 Z M208.026,140.656 C207.683,140.442 207.314,140.23 206.932,140.025 L207.131,139.652 C207.522,139.862 207.899,140.078 208.251,140.299 L208.026,140.656 L208.026,140.656 Z M162.698,141.335 L162.448,140.993 C162.78,140.747 163.14,140.504 163.521,140.268 L163.743,140.629 C163.373,140.859 163.022,141.096 162.698,141.335 L162.698,141.335 Z M210.038,142.164 C209.743,141.892 209.419,141.627 209.07,141.364 L209.321,141.024 C209.683,141.294 210.021,141.573 210.325,141.853 L210.038,142.164 L210.038,142.164 Z M160.86,143.027 L160.535,142.756 C160.801,142.438 161.104,142.122 161.441,141.816 L161.724,142.129 C161.405,142.424 161.113,142.725 160.86,143.027 L160.86,143.027 Z M211.598,144.084 C211.409,143.742 211.173,143.4 210.898,143.067 L211.224,142.797 C211.516,143.149 211.768,143.513 211.97,143.879 L211.598,144.084 L211.598,144.084 Z M159.671,145.162 L159.266,145.046 C159.383,144.637 159.556,144.229 159.783,143.829 L160.151,144.039 C159.943,144.409 159.781,144.787 159.671,145.162 L159.671,145.162 Z M212.649,146.417 L212.226,146.412 L212.438,146.414 L212.226,146.376 C212.226,145.986 212.174,145.596 212.067,145.212 L212.475,145.101 C212.59,145.52 212.649,145.949 212.649,146.376 L212.649,146.417 L212.649,146.417 Z M159.257,147.676 C159.137,147.246 159.076,146.809 159.076,146.376 L159.499,146.36 L159.499,146.376 C159.499,146.771 159.554,147.169 159.665,147.561 L159.257,147.676 L159.257,147.676 Z M211.93,148.942 L211.561,148.732 C211.771,148.363 211.937,147.986 212.046,147.611 L212.454,147.729 C212.334,148.136 212.156,148.545 211.93,148.942 L211.93,148.942 Z M160.52,149.973 C160.225,149.621 159.972,149.259 159.769,148.894 L160.137,148.687 C160.33,149.027 160.567,149.372 160.843,149.703 L160.52,149.973 L160.52,149.973 Z M210.265,150.952 L209.979,150.638 C210.301,150.347 210.593,150.044 210.849,149.743 L211.173,150.016 C210.906,150.332 210.6,150.647 210.265,150.952 L210.265,150.952 Z M162.425,151.74 C162.062,151.469 161.724,151.193 161.422,150.917 L161.708,150.602 C162,150.871 162.326,151.138 162.677,151.4 L162.425,151.74 L162.425,151.74 Z M208.181,152.496 L207.959,152.135 C208.328,151.907 208.682,151.67 209.005,151.429 L209.257,151.771 C208.922,152.016 208.56,152.259 208.181,152.496 L208.181,152.496 Z M164.619,153.11 C164.228,152.903 163.85,152.687 163.497,152.465 L163.722,152.106 C164.067,152.321 164.437,152.535 164.816,152.736 L164.619,153.11 L164.619,153.11 Z M205.903,153.707 L205.726,153.323 C206.118,153.141 206.501,152.952 206.862,152.76 L207.06,153.135 C206.692,153.331 206.302,153.523 205.903,153.707 L205.903,153.707 Z M166.955,154.2 C166.553,154.038 166.155,153.863 165.774,153.686 L165.951,153.303 C166.328,153.478 166.72,153.647 167.113,153.808 L166.955,154.2 L166.955,154.2 Z M203.519,154.68 L203.377,154.281 C203.783,154.137 204.179,153.984 204.563,153.828 L204.722,154.22 C204.332,154.379 203.932,154.531 203.519,154.68 L203.519,154.68 Z M169.374,155.077 C168.958,154.945 168.551,154.806 168.155,154.662 L168.299,154.264 C168.691,154.405 169.093,154.54 169.502,154.673 L169.374,155.077 L169.374,155.077 Z M201.068,155.464 L200.955,155.054 C201.369,154.938 201.775,154.817 202.173,154.689 L202.301,155.093 C201.899,155.221 201.488,155.346 201.068,155.464 L201.068,155.464 Z M171.848,155.783 C171.425,155.676 171.012,155.563 170.605,155.45 L170.721,155.042 C171.123,155.157 171.532,155.266 171.949,155.372 L171.848,155.783 L171.848,155.783 Z M198.576,156.09 L198.485,155.676 C198.906,155.582 199.319,155.485 199.724,155.381 L199.827,155.795 C199.419,155.898 199,155.997 198.576,156.09 L198.576,156.09 Z M174.353,156.34 C173.927,156.259 173.509,156.17 173.094,156.078 L173.188,155.665 C173.595,155.755 174.014,155.842 174.435,155.925 L174.353,156.34 L174.353,156.34 Z M196.056,156.581 L195.987,156.163 C196.409,156.092 196.827,156.016 197.238,155.935 L197.32,156.352 C196.905,156.432 196.483,156.508 196.056,156.581 L196.056,156.581 Z M176.886,156.772 C176.456,156.708 176.035,156.645 175.619,156.573 L175.686,156.155 C176.103,156.226 176.522,156.292 176.947,156.354 L176.886,156.772 L176.886,156.772 Z M193.516,156.951 L193.464,156.529 C193.89,156.478 194.312,156.421 194.728,156.362 L194.789,156.781 C194.371,156.841 193.946,156.9 193.516,156.951 L193.516,156.951 Z M179.43,157.086 C179.003,157.044 178.577,156.994 178.154,156.942 L178.209,156.522 C178.626,156.574 179.048,156.622 179.474,156.664 L179.43,157.086 L179.43,157.086 Z M190.962,157.207 L190.93,156.784 C191.355,156.751 191.779,156.713 192.2,156.671 L192.241,157.091 C191.818,157.136 191.393,157.173 190.962,157.207 L190.962,157.207 Z M181.988,157.294 C181.558,157.267 181.134,157.237 180.71,157.203 L180.743,156.781 C181.165,156.815 181.587,156.845 182.016,156.871 L181.988,157.294 L181.988,157.294 Z M188.4,157.36 L188.384,156.937 C188.811,156.92 189.237,156.9 189.659,156.874 L189.682,157.297 C189.259,157.322 188.833,157.344 188.4,157.36 L188.4,157.36 Z M184.553,157.398 C184.124,157.387 183.694,157.374 183.271,157.358 L183.289,156.934 C183.711,156.951 184.134,156.964 184.561,156.973 L184.553,157.398 L184.553,157.398 Z M185.863,157.411 L185.837,157.2 L185.837,156.987 L185.863,156.987 C186.281,156.987 186.698,156.984 187.111,156.973 L187.118,157.398 C186.701,157.408 186.284,157.41 185.863,157.411 L185.863,157.411 Z" id="Fill-227" fill="#CCB131"></path>
                <path d="M189.657,143.541 C189.582,142.228 188.283,141.501 186.765,141.501 C186.137,141.501 185.272,141.809 185.28,142.419 C185.294,144.266 194.102,143.829 194.572,148.296 C194.91,151.511 191.47,152.719 188.565,152.719 C188.269,152.719 187.977,152.699 187.707,152.677 L187.751,154.093 L186.168,154.093 L186.139,152.35 C184.945,151.981 184.05,151.341 183.478,150.751 L183.193,152.394 L178.93,152.394 L179.224,147.211 L183.516,147.211 C183.499,148.878 185.474,149.164 186.465,149.202 C187.29,149.202 188.463,149.038 188.428,148.197 C188.366,146.668 179.519,147.309 179.771,142.578 C179.906,140.046 182.911,138.946 184.975,138.946 C185.291,138.946 185.608,138.96 185.923,138.993 L185.904,137.809 L187.232,137.809 L187.28,139.238 C188.179,139.501 188.961,139.93 189.47,140.631 L189.601,139.238 L193.236,139.238 L193.67,143.541 L189.657,143.541" id="Fill-228" fill="#CCB131"></path>
                <path d="M211.949,154.512 C210.284,155.537 208.329,156.458 206.136,157.256 C204.346,157.904 202.398,158.47 200.325,158.94 C198.479,159.358 196.537,159.7 194.513,159.955 C192.638,160.189 190.695,160.351 188.7,160.432 C187.765,160.468 186.82,160.49 185.863,160.49 C184.859,160.49 183.867,160.468 182.889,160.426 C180.893,160.343 178.951,160.177 177.076,159.936 C175.05,159.678 173.107,159.331 171.264,158.91 C169.187,158.432 167.242,157.861 165.45,157.203 C163.256,156.397 161.301,155.463 159.641,154.428 C156.77,152.637 154.779,150.545 153.965,148.274 L153.965,156.061 C154.893,158.185 156.871,160.172 159.641,161.901 C161.308,162.942 163.265,163.886 165.45,164.709 C167.245,165.382 169.193,165.974 171.264,166.463 C173.111,166.902 175.053,167.264 177.076,167.534 C178.953,167.786 180.895,167.964 182.889,168.052 C183.87,168.095 184.86,168.118 185.863,168.121 C186.817,168.118 187.763,168.098 188.7,168.058 C190.692,167.972 192.636,167.801 194.513,167.554 C196.534,167.287 198.477,166.932 200.325,166.497 C202.395,166.01 204.344,165.426 206.136,164.758 C208.322,163.947 210.275,163.015 211.949,161.985 C214.788,160.236 216.818,158.219 217.761,156.061 L217.761,148.274 C216.932,150.58 214.891,152.703 211.949,154.512" id="Fill-229" fill="#E3B82B"></path>
                <path d="M185.863,122.85 C168.236,122.873 153.965,129.379 153.965,137.401 C153.965,145.42 168.236,151.924 185.863,151.95 C203.489,151.924 217.761,147.073 217.761,137.401 C217.761,129.379 203.489,122.873 185.863,122.85" id="Fill-230" fill="#CEA130"></path>
                <path d="M185.863,124.991 C171.177,125.01 159.287,129.848 159.287,135.816 C159.287,141.783 171.177,146.622 185.863,146.64 C200.548,146.622 212.438,141.783 212.438,135.816 C212.438,129.848 200.548,125.01 185.863,124.991" id="Fill-231" fill="#FBD821"></path>
                <path d="M184.589,125.215 L184.578,124.792 C185.004,124.783 185.433,124.778 185.861,124.778 L185.916,124.778 L185.916,125.203 L185.863,125.203 C185.436,125.203 185.011,125.207 184.589,125.215 L184.589,125.215 Z M188.463,125.257 C188.04,125.239 187.616,125.227 187.19,125.217 L187.199,124.794 C187.63,124.802 188.057,124.816 188.482,124.833 L188.463,125.257 L188.463,125.257 Z M182.042,125.319 L182.016,124.896 C182.441,124.87 182.866,124.849 183.297,124.833 L183.313,125.255 C182.885,125.272 182.462,125.293 182.042,125.319 L182.042,125.319 Z M191.008,125.411 C190.588,125.377 190.164,125.345 189.736,125.321 L189.76,124.897 C190.194,124.923 190.619,124.954 191.041,124.988 L191.008,125.411 L191.008,125.411 Z M179.501,125.522 L179.458,125.1 C179.88,125.057 180.305,125.019 180.735,124.984 L180.77,125.406 C180.343,125.442 179.919,125.48 179.501,125.522 L179.501,125.522 Z M193.545,125.671 C193.127,125.619 192.704,125.571 192.278,125.527 L192.319,125.106 C192.751,125.149 193.174,125.197 193.595,125.251 L193.545,125.671 L193.545,125.671 Z M176.972,125.834 L176.909,125.415 C177.329,125.353 177.754,125.295 178.182,125.244 L178.234,125.663 C177.809,125.716 177.386,125.772 176.972,125.834 L176.972,125.834 Z M196.063,126.041 C195.65,125.971 195.229,125.904 194.805,125.842 L194.867,125.421 C195.294,125.484 195.717,125.551 196.136,125.623 L196.063,126.041 L196.063,126.041 Z M174.46,126.26 L174.379,125.844 C174.795,125.763 175.215,125.687 175.641,125.613 L175.713,126.032 C175.289,126.103 174.873,126.18 174.46,126.26 L174.46,126.26 Z M198.561,126.533 C198.154,126.44 197.739,126.353 197.316,126.268 L197.398,125.854 C197.823,125.938 198.243,126.025 198.654,126.118 L198.561,126.533 L198.561,126.533 Z M171.974,126.812 L171.871,126.403 C172.282,126.299 172.698,126.199 173.122,126.106 L173.215,126.52 C172.794,126.613 172.381,126.712 171.974,126.812 L171.974,126.812 Z M201.029,127.156 C200.629,127.041 200.22,126.931 199.8,126.824 L199.905,126.415 C200.327,126.521 200.74,126.633 201.146,126.748 L201.029,127.156 L201.029,127.156 Z M169.528,127.509 L169.396,127.105 C169.8,126.977 170.211,126.853 170.63,126.733 L170.746,127.141 C170.331,127.26 169.925,127.382 169.528,127.509 L169.528,127.509 Z M203.45,127.935 C203.06,127.794 202.657,127.657 202.247,127.525 L202.379,127.121 C202.795,127.255 203.198,127.392 203.595,127.538 L203.45,127.935 L203.45,127.935 Z M167.138,128.372 L166.978,127.979 C167.37,127.822 167.769,127.669 168.18,127.52 L168.327,127.919 C167.918,128.063 167.522,128.217 167.138,128.372 L167.138,128.372 Z M205.797,128.901 C205.421,128.724 205.032,128.553 204.634,128.391 L204.796,127.999 C205.2,128.165 205.594,128.337 205.977,128.515 L205.797,128.901 L205.797,128.901 Z M164.841,129.442 L164.641,129.066 C165.01,128.873 165.398,128.678 165.796,128.494 L165.976,128.88 C165.582,129.059 165.2,129.249 164.841,129.442 L164.841,129.442 Z M208.026,130.099 C207.683,129.884 207.314,129.67 206.932,129.465 L207.131,129.093 C207.522,129.302 207.899,129.519 208.251,129.74 L208.026,130.099 L208.026,130.099 Z M162.698,130.776 L162.448,130.434 C162.78,130.19 163.14,129.945 163.521,129.709 L163.743,130.07 C163.373,130.301 163.022,130.538 162.698,130.776 L162.698,130.776 Z M210.038,131.604 C209.743,131.336 209.419,131.067 209.07,130.807 L209.321,130.464 C209.683,130.735 210.021,131.015 210.325,131.292 L210.038,131.604 L210.038,131.604 Z M160.86,132.47 L160.535,132.196 C160.801,131.879 161.104,131.563 161.441,131.258 L161.724,131.57 C161.405,131.863 161.113,132.164 160.86,132.47 L160.86,132.47 Z M211.598,133.524 C211.409,133.185 211.173,132.841 210.898,132.508 L211.224,132.238 C211.516,132.591 211.768,132.954 211.97,133.32 L211.598,133.524 L211.598,133.524 Z M159.671,134.604 L159.266,134.489 C159.383,134.077 159.556,133.669 159.783,133.27 L160.151,133.48 C159.943,133.851 159.781,134.229 159.671,134.604 L159.671,134.604 Z M212.649,135.858 L212.226,135.851 L212.438,135.854 L212.226,135.816 C212.226,135.427 212.174,135.036 212.067,134.654 L212.475,134.541 C212.59,134.961 212.649,135.388 212.649,135.816 L212.649,135.858 L212.649,135.858 Z M159.257,137.117 C159.137,136.688 159.076,136.25 159.076,135.816 L159.499,135.803 L159.499,135.816 C159.499,136.211 159.554,136.611 159.665,137.001 L159.257,137.117 L159.257,137.117 Z M211.93,138.383 L211.561,138.173 C211.771,137.804 211.937,137.425 212.046,137.05 L212.454,137.17 C212.334,137.577 212.156,137.986 211.93,138.383 L211.93,138.383 Z M160.52,139.416 C160.225,139.06 159.972,138.699 159.769,138.336 L160.137,138.127 C160.33,138.47 160.567,138.811 160.843,139.145 L160.52,139.416 L160.52,139.416 Z M210.265,140.392 L209.979,140.078 C210.301,139.785 210.593,139.485 210.849,139.183 L211.173,139.455 C210.906,139.772 210.6,140.088 210.265,140.392 L210.265,140.392 Z M162.425,141.181 C162.062,140.912 161.724,140.635 161.422,140.357 L161.708,140.043 C162,140.312 162.326,140.58 162.677,140.841 L162.425,141.181 L162.425,141.181 Z M208.181,141.936 L207.959,141.575 C208.328,141.346 208.682,141.11 209.005,140.871 L209.257,141.214 C208.922,141.458 208.56,141.701 208.181,141.936 L208.181,141.936 Z M164.619,142.553 C164.228,142.345 163.85,142.128 163.497,141.908 L163.722,141.547 C164.067,141.763 164.437,141.974 164.816,142.179 L164.619,142.553 L164.619,142.553 Z M205.903,143.148 L205.726,142.764 C206.118,142.581 206.501,142.395 206.862,142.202 L207.06,142.576 C206.692,142.77 206.302,142.964 205.903,143.148 L205.903,143.148 Z M166.955,143.64 C166.553,143.479 166.155,143.305 165.774,143.127 L165.951,142.742 C166.328,142.918 166.72,143.089 167.113,143.249 L166.955,143.64 L166.955,143.64 Z M203.519,144.121 L203.377,143.722 C203.783,143.578 204.179,143.425 204.563,143.269 L204.722,143.661 C204.332,143.82 203.932,143.972 203.519,144.121 L203.519,144.121 Z M169.374,144.518 C168.958,144.384 168.551,144.246 168.155,144.103 L168.299,143.705 C168.691,143.845 169.093,143.983 169.502,144.114 L169.374,144.518 L169.374,144.518 Z M201.068,144.905 L200.955,144.496 C201.369,144.379 201.775,144.255 202.173,144.13 L202.301,144.534 C201.899,144.66 201.488,144.787 201.068,144.905 L201.068,144.905 Z M171.848,145.223 C171.425,145.117 171.012,145.005 170.605,144.891 L170.721,144.482 C171.123,144.596 171.532,144.706 171.949,144.812 L171.848,145.223 L171.848,145.223 Z M198.576,145.531 L198.485,145.117 C198.906,145.023 199.319,144.926 199.724,144.824 L199.827,145.235 C199.419,145.339 199,145.436 198.576,145.531 L198.576,145.531 Z M174.353,145.783 C173.927,145.698 173.509,145.612 173.094,145.52 L173.188,145.105 C173.595,145.198 174.014,145.282 174.435,145.366 L174.353,145.783 L174.353,145.783 Z M196.056,146.021 L195.987,145.605 C196.409,145.533 196.827,145.457 197.238,145.376 L197.32,145.792 C196.905,145.873 196.483,145.949 196.056,146.021 L196.056,146.021 Z M176.886,146.213 C176.456,146.151 176.035,146.083 175.619,146.012 L175.686,145.596 C176.103,145.665 176.522,145.733 176.947,145.795 L176.886,146.213 L176.886,146.213 Z M193.516,146.392 L193.464,145.97 C193.89,145.918 194.312,145.862 194.728,145.802 L194.789,146.222 C194.371,146.284 193.946,146.341 193.516,146.392 L193.516,146.392 Z M179.43,146.528 C179.003,146.485 178.577,146.437 178.154,146.384 L178.209,145.965 C178.626,146.017 179.048,146.063 179.474,146.107 L179.43,146.528 L179.43,146.528 Z M190.962,146.65 L190.93,146.227 C191.355,146.192 191.779,146.154 192.2,146.111 L192.241,146.534 C191.818,146.575 191.393,146.614 190.962,146.65 L190.962,146.65 Z M181.988,146.734 C181.558,146.709 181.134,146.678 180.71,146.645 L180.743,146.222 C181.165,146.255 181.587,146.285 182.016,146.312 L181.988,146.734 L181.988,146.734 Z M188.4,146.801 L188.384,146.377 C188.811,146.36 189.237,146.341 189.659,146.314 L189.682,146.737 C189.259,146.764 188.833,146.784 188.4,146.801 L188.4,146.801 Z M184.553,146.839 C184.124,146.829 183.694,146.815 183.271,146.799 L183.289,146.376 C183.711,146.392 184.134,146.404 184.561,146.414 L184.553,146.839 L184.553,146.839 Z M185.863,146.853 L185.837,146.64 L185.837,146.428 L185.863,146.428 C186.281,146.428 186.698,146.423 187.111,146.416 L187.118,146.839 C186.701,146.848 186.284,146.852 185.863,146.853 L185.863,146.853 Z" id="Fill-232" fill="#CCB131"></path>
                <path d="M189.657,131.549 C189.582,130.234 188.283,129.506 186.765,129.506 C186.137,129.506 185.272,129.818 185.28,130.428 C185.294,132.276 194.102,131.837 194.572,136.302 C194.91,139.519 191.47,140.728 188.565,140.728 C188.269,140.728 187.977,140.706 187.707,140.685 L187.751,142.1 L186.168,142.1 L186.139,140.357 C184.945,139.991 184.05,139.349 183.478,138.758 L183.193,140.402 L178.93,140.402 L179.224,135.218 L183.516,135.218 C183.499,136.886 185.474,137.168 186.465,137.209 C187.29,137.209 188.463,137.046 188.428,136.205 C188.366,134.678 179.519,135.317 179.771,130.586 C179.906,128.055 182.911,126.954 184.975,126.954 C185.291,126.954 185.608,126.97 185.923,127.001 L185.904,125.818 L187.232,125.818 L187.28,127.245 C188.179,127.508 188.961,127.936 189.47,128.64 L189.601,127.245 L193.236,127.245 L193.67,131.549 L189.657,131.549" id="Fill-233" fill="#CCB131"></path>
                <path d="M211.949,145.1 C210.284,146.122 208.329,147.045 206.136,147.841 C204.346,148.49 202.398,149.057 200.325,149.527 C198.479,149.945 196.537,150.288 194.513,150.543 C192.638,150.776 190.695,150.939 188.7,151.018 C187.765,151.056 186.82,151.078 185.863,151.079 C184.859,151.078 183.867,151.055 182.889,151.013 C180.893,150.927 178.951,150.763 177.076,150.524 C175.05,150.266 173.107,149.918 171.264,149.497 C169.187,149.022 167.242,148.448 165.45,147.792 C163.256,146.985 161.301,146.051 159.641,145.014 C156.77,143.224 154.779,141.131 153.965,138.861 L153.965,146.648 C154.893,148.771 156.871,150.76 159.641,152.489 C161.308,153.53 163.265,154.475 165.45,155.297 C167.245,155.972 169.193,156.56 171.264,157.05 C173.111,157.49 175.053,157.851 177.076,158.122 C178.953,158.375 180.895,158.548 182.889,158.64 C183.87,158.682 184.86,158.707 185.863,158.708 C186.817,158.707 187.763,158.685 188.7,158.645 C190.692,158.56 192.636,158.39 194.513,158.139 C196.534,157.875 198.477,157.515 200.325,157.083 C202.395,156.597 204.344,156.014 206.136,155.348 C208.322,154.536 210.275,153.602 211.949,152.571 C214.788,150.823 216.818,148.806 217.761,146.648 L217.761,138.762 C216.932,141.067 214.891,143.289 211.949,145.1" id="Fill-234" fill="#E3B82B"></path>
                <path d="M185.863,114.87 C168.236,114.893 153.965,121.399 153.965,129.42 C153.965,137.44 168.236,143.944 185.863,143.97 C203.489,143.944 217.761,137.44 217.761,129.42 C217.761,121.399 203.489,114.893 185.863,114.87" id="Fill-235" fill="#CEA130"></path>
                <path d="M185.863,117.297 C171.177,117.315 159.287,122.155 159.287,128.122 C159.287,134.089 171.177,138.931 185.863,138.948 C200.548,138.931 212.438,134.089 212.438,128.122 C212.438,122.155 200.548,117.315 185.863,117.297" id="Fill-236" fill="#FBD821"></path>
                <path d="M184.589,117.522 L184.578,117.099 C185.004,117.091 185.433,117.086 185.861,117.085 L185.916,117.085 L185.916,117.51 L185.863,117.51 C185.436,117.51 185.011,117.512 184.589,117.522 L184.589,117.522 Z M188.463,117.564 C188.04,117.548 187.616,117.534 187.19,117.524 L187.199,117.1 C187.63,117.108 188.057,117.122 188.482,117.14 L188.463,117.564 L188.463,117.564 Z M182.042,117.626 L182.016,117.203 C182.441,117.177 182.866,117.154 183.297,117.137 L183.313,117.562 C182.885,117.578 182.462,117.6 182.042,117.626 L182.042,117.626 Z M191.008,117.718 C190.588,117.685 190.164,117.654 189.736,117.628 L189.76,117.204 C190.194,117.229 190.619,117.259 191.041,117.295 L191.008,117.718 L191.008,117.718 Z M179.501,117.829 L179.458,117.407 C179.88,117.363 180.305,117.326 180.735,117.29 L180.77,117.713 C180.343,117.748 179.919,117.786 179.501,117.829 L179.501,117.829 Z M193.545,117.977 C193.127,117.926 192.704,117.879 192.278,117.832 L192.319,117.412 C192.751,117.456 193.174,117.504 193.595,117.557 L193.545,117.977 L193.545,117.977 Z M176.972,118.139 L176.909,117.72 C177.329,117.658 177.754,117.602 178.182,117.55 L178.234,117.97 C177.809,118.022 177.386,118.079 176.972,118.139 L176.972,118.139 Z M196.063,118.347 C195.65,118.275 195.229,118.211 194.805,118.147 L194.867,117.728 C195.294,117.792 195.717,117.858 196.136,117.929 L196.063,118.347 L196.063,118.347 Z M174.46,118.568 L174.379,118.15 C174.795,118.07 175.215,117.994 175.641,117.921 L175.713,118.339 C175.289,118.409 174.873,118.487 174.46,118.568 L174.46,118.568 Z M198.561,118.837 C198.154,118.746 197.739,118.66 197.316,118.576 L197.398,118.162 C197.823,118.243 198.243,118.332 198.654,118.424 L198.561,118.837 L198.561,118.837 Z M171.974,119.12 L171.871,118.71 C172.282,118.605 172.698,118.506 173.122,118.413 L173.215,118.826 C172.794,118.92 172.381,119.017 171.974,119.12 L171.974,119.12 Z M201.029,119.462 C200.629,119.348 200.22,119.238 199.8,119.132 L199.905,118.721 C200.327,118.827 200.74,118.939 201.146,119.054 L201.029,119.462 L201.029,119.462 Z M169.528,119.816 L169.396,119.413 C169.8,119.284 170.211,119.16 170.63,119.04 L170.746,119.449 C170.331,119.565 169.925,119.688 169.528,119.816 L169.528,119.816 Z M203.45,120.242 C203.06,120.1 202.657,119.964 202.247,119.832 L202.379,119.428 C202.795,119.562 203.198,119.699 203.595,119.843 L203.45,120.242 L203.45,120.242 Z M167.138,120.679 L166.978,120.287 C167.37,120.129 167.769,119.975 168.18,119.826 L168.327,120.224 C167.918,120.372 167.522,120.523 167.138,120.679 L167.138,120.679 Z M205.797,121.208 C205.421,121.031 205.032,120.86 204.634,120.698 L204.796,120.306 C205.2,120.471 205.594,120.643 205.977,120.823 L205.797,121.208 L205.797,121.208 Z M164.841,121.748 L164.641,121.374 C165.01,121.178 165.398,120.985 165.796,120.8 L165.976,121.184 C165.582,121.366 165.2,121.555 164.841,121.748 L164.841,121.748 Z M208.026,122.405 C207.683,122.19 207.314,121.978 206.932,121.772 L207.131,121.399 C207.522,121.61 207.899,121.826 208.251,122.044 L208.026,122.405 L208.026,122.405 Z M162.698,123.082 L162.448,122.743 C162.78,122.497 163.14,122.252 163.521,122.016 L163.743,122.377 C163.373,122.607 163.022,122.844 162.698,123.082 L162.698,123.082 Z M210.038,123.91 C209.743,123.642 209.419,123.373 209.07,123.113 L209.321,122.771 C209.683,123.043 210.021,123.319 210.325,123.6 L210.038,123.91 L210.038,123.91 Z M160.86,124.776 L160.535,124.502 C160.801,124.185 161.104,123.869 161.441,123.564 L161.724,123.876 C161.405,124.17 161.113,124.471 160.86,124.776 L160.86,124.776 Z M211.598,125.83 C211.409,125.49 211.173,125.147 210.898,124.814 L211.224,124.545 C211.516,124.897 211.768,125.261 211.97,125.626 L211.598,125.83 L211.598,125.83 Z M159.671,126.912 L159.266,126.795 C159.383,126.386 159.556,125.975 159.783,125.579 L160.151,125.787 C159.943,126.158 159.781,126.535 159.671,126.912 L159.671,126.912 Z M212.649,128.165 L212.226,128.158 L212.438,128.162 L212.226,128.122 C212.226,127.734 212.174,127.343 212.067,126.96 L212.475,126.847 C212.59,127.267 212.649,127.697 212.649,128.122 L212.649,128.165 L212.649,128.165 Z M159.257,129.423 C159.137,128.996 159.076,128.557 159.076,128.122 L159.499,128.108 L159.499,128.122 C159.499,128.519 159.554,128.916 159.665,129.31 L159.257,129.423 L159.257,129.423 Z M211.93,130.689 L211.561,130.479 C211.771,130.11 211.937,129.733 212.046,129.357 L212.454,129.476 C212.334,129.884 212.156,130.292 211.93,130.689 L211.93,130.689 Z M160.52,131.721 C160.225,131.369 159.972,131.005 159.769,130.644 L160.137,130.434 C160.33,130.776 160.567,131.119 160.843,131.451 L160.52,131.721 L160.52,131.721 Z M210.265,132.699 L209.979,132.386 C210.301,132.092 210.593,131.792 210.849,131.489 L211.173,131.762 C210.906,132.078 210.6,132.394 210.265,132.699 L210.265,132.699 Z M162.425,133.487 C162.062,133.217 161.724,132.94 161.422,132.663 L161.708,132.349 C162,132.618 162.326,132.887 162.677,133.147 L162.425,133.487 L162.425,133.487 Z M208.181,134.243 L207.959,133.882 C208.328,133.655 208.682,133.417 209.005,133.178 L209.257,133.52 C208.922,133.765 208.56,134.009 208.181,134.243 L208.181,134.243 Z M164.619,134.858 C164.228,134.649 163.85,134.435 163.497,134.214 L163.722,133.854 C164.067,134.068 164.437,134.281 164.816,134.484 L164.619,134.858 L164.619,134.858 Z M205.903,135.457 L205.726,135.07 C206.118,134.89 206.501,134.701 206.862,134.51 L207.06,134.883 C206.692,135.078 206.302,135.27 205.903,135.457 L205.903,135.457 Z M166.955,135.948 C166.553,135.785 166.155,135.611 165.774,135.433 L165.951,135.048 C166.328,135.225 166.72,135.394 167.113,135.556 L166.955,135.948 L166.955,135.948 Z M203.519,136.427 L203.377,136.029 C203.783,135.883 204.179,135.731 204.563,135.575 L204.722,135.969 C204.332,136.128 203.932,136.28 203.519,136.427 L203.519,136.427 Z M169.374,136.824 C168.958,136.691 168.551,136.552 168.155,136.41 L168.299,136.012 C168.691,136.152 169.093,136.288 169.502,136.42 L169.374,136.824 L169.374,136.824 Z M201.068,137.211 L200.955,136.803 C201.369,136.687 201.775,136.564 202.173,136.436 L202.301,136.839 C201.899,136.968 201.488,137.093 201.068,137.211 L201.068,137.211 Z M171.848,137.529 C171.425,137.424 171.012,137.313 170.605,137.197 L170.721,136.79 C171.123,136.902 171.532,137.014 171.949,137.119 L171.848,137.529 L171.848,137.529 Z M198.576,137.837 L198.485,137.424 C198.906,137.329 199.319,137.233 199.724,137.131 L199.827,137.542 C199.419,137.646 199,137.745 198.576,137.837 L198.576,137.837 Z M174.353,138.09 C173.927,138.006 173.509,137.918 173.094,137.826 L173.188,137.412 C173.595,137.503 174.014,137.592 174.435,137.674 L174.353,138.09 L174.353,138.09 Z M196.056,138.328 L195.987,137.91 C196.409,137.84 196.827,137.762 197.238,137.682 L197.32,138.099 C196.905,138.18 196.483,138.256 196.056,138.328 L196.056,138.328 Z M176.886,138.52 C176.456,138.458 176.035,138.39 175.619,138.32 L175.686,137.901 C176.103,137.974 176.522,138.039 176.947,138.1 L176.886,138.52 L176.886,138.52 Z M193.516,138.698 L193.464,138.277 C193.89,138.225 194.312,138.168 194.728,138.109 L194.789,138.528 C194.371,138.591 193.946,138.645 193.516,138.698 L193.516,138.698 Z M179.43,138.835 C179.003,138.791 178.577,138.743 178.154,138.692 L178.209,138.271 C178.626,138.321 179.048,138.368 179.474,138.414 L179.43,138.835 L179.43,138.835 Z M190.962,138.955 L190.93,138.534 C191.355,138.498 191.779,138.461 192.2,138.421 L192.241,138.841 C191.818,138.881 191.393,138.921 190.962,138.955 L190.962,138.955 Z M181.988,139.042 C181.558,139.015 181.134,138.985 180.71,138.952 L180.743,138.528 C181.165,138.562 181.587,138.593 182.016,138.618 L181.988,139.042 L181.988,139.042 Z M188.4,139.108 L188.384,138.685 C188.811,138.668 189.237,138.645 189.659,138.621 L189.682,139.044 C189.259,139.069 188.833,139.091 188.4,139.108 L188.4,139.108 Z M184.553,139.145 C184.124,139.136 183.694,139.121 183.271,139.108 L183.289,138.681 C183.711,138.699 184.134,138.712 184.561,138.72 L184.553,139.145 L184.553,139.145 Z M185.863,139.158 L185.837,138.948 L185.837,138.736 L185.863,138.736 C186.281,138.734 186.698,138.73 187.111,138.721 L187.118,139.145 C186.701,139.155 186.284,139.158 185.863,139.158 L185.863,139.158 Z" id="Fill-237" fill="#CCB131"></path>
                <path d="M189.657,125.289 C189.582,123.975 188.283,123.248 186.765,123.248 C186.137,123.248 185.272,123.558 185.28,124.169 C185.294,126.015 194.102,125.576 194.572,130.042 C194.91,133.258 191.47,134.467 188.565,134.467 C188.269,134.467 187.977,134.446 187.707,134.425 L187.751,135.84 L186.168,135.84 L186.139,134.096 C184.945,133.729 184.05,133.088 183.478,132.498 L183.193,134.139 L178.93,134.139 L179.224,128.959 L183.516,128.959 C183.499,130.626 185.474,130.909 186.465,130.95 C187.29,130.95 188.463,130.786 188.428,129.943 C188.366,128.416 179.519,129.056 179.771,124.327 C179.906,121.794 182.911,120.693 184.975,120.693 C185.291,120.693 185.608,120.708 185.923,120.741 L185.904,119.557 L187.232,119.557 L187.28,120.986 C188.179,121.248 188.961,121.677 189.47,122.378 L189.601,120.986 L193.236,120.986 L193.67,125.289 L189.657,125.289" id="Fill-238" fill="#CCB131"></path>
                <path d="M211.949,136.259 C210.284,137.284 208.329,138.206 206.136,139.002 C204.346,139.654 202.398,140.217 200.325,140.686 C198.479,141.106 196.537,141.448 194.513,141.703 C192.638,141.938 190.695,142.097 188.7,142.18 C187.765,142.218 186.82,142.236 185.863,142.239 C184.859,142.236 183.867,142.215 182.889,142.174 C180.893,142.088 178.951,141.925 177.076,141.683 C175.05,141.425 173.107,141.078 171.264,140.656 C169.187,140.18 167.242,139.609 165.45,138.951 C163.256,138.145 161.301,137.211 159.641,136.173 C156.77,134.383 154.779,132.29 153.965,130.021 L153.965,137.807 C154.893,139.932 156.871,141.921 159.641,143.649 C161.308,144.69 163.265,145.634 165.45,146.456 C167.245,147.131 169.193,147.719 171.264,148.213 C173.111,148.65 175.053,149.012 177.076,149.281 C178.953,149.534 180.895,149.71 182.889,149.8 C183.87,149.843 184.86,149.867 185.863,149.867 C186.817,149.867 187.763,149.845 188.7,149.805 C190.692,149.719 192.636,149.549 194.513,149.302 C196.534,149.037 198.477,148.677 200.325,148.244 C202.395,147.76 204.344,147.174 206.136,146.509 C208.322,145.696 210.275,144.761 211.949,143.733 C214.788,141.986 216.818,139.967 217.761,137.807 L217.761,130.021 C216.932,132.328 214.891,134.451 211.949,136.259" id="Fill-239" fill="#E3B82B"></path>
                <path d="M185.863,107.463 C168.236,107.489 153.965,113.992 153.965,122.014 C153.965,130.033 168.236,136.538 185.863,136.561 C203.489,136.538 217.761,130.033 217.761,122.014 C217.761,113.992 203.489,107.489 185.863,107.463" id="Fill-240" fill="#CEA130"></path>
                <path d="M185.863,109.89 C171.177,109.909 159.287,114.748 159.287,120.715 C159.287,126.683 171.177,131.522 185.863,131.541 C200.548,131.522 212.438,126.683 212.438,120.715 C212.438,114.748 200.548,109.909 185.863,109.89" id="Fill-241" fill="#FBD821"></path>
                <path d="M184.589,110.116 L184.578,109.692 C185.004,109.683 185.433,109.678 185.861,109.678 L185.916,109.678 L185.916,110.103 L185.863,110.103 C185.436,110.103 185.011,110.108 184.589,110.116 L184.589,110.116 Z M188.463,110.157 C188.04,110.138 187.616,110.128 187.19,110.117 L187.199,109.694 C187.63,109.702 188.057,109.715 188.482,109.734 L188.463,110.157 L188.463,110.157 Z M182.042,110.219 L182.016,109.795 C182.441,109.768 182.866,109.749 183.297,109.73 L183.313,110.155 C182.885,110.172 182.462,110.192 182.042,110.219 L182.042,110.219 Z M191.008,110.31 C190.588,110.275 190.164,110.247 189.736,110.221 L189.76,109.796 C190.194,109.824 190.619,109.853 191.041,109.888 L191.008,110.31 L191.008,110.31 Z M179.501,110.422 L179.458,110.002 C179.88,109.956 180.305,109.919 180.735,109.885 L180.77,110.307 C180.343,110.342 179.919,110.379 179.501,110.422 L179.501,110.422 Z M193.545,110.571 C193.127,110.519 192.704,110.469 192.278,110.426 L192.319,110.005 C192.751,110.048 193.174,110.097 193.595,110.15 L193.545,110.571 L193.545,110.571 Z M176.972,110.734 L176.909,110.315 C177.329,110.252 177.754,110.197 178.182,110.145 L178.234,110.565 C177.809,110.617 177.386,110.674 176.972,110.734 L176.972,110.734 Z M196.063,110.941 C195.65,110.869 195.229,110.803 194.805,110.741 L194.867,110.322 C195.294,110.384 195.717,110.453 196.136,110.522 L196.063,110.941 L196.063,110.941 Z M174.46,111.161 L174.379,110.743 C174.795,110.662 175.215,110.585 175.641,110.515 L175.713,110.932 C175.289,111.004 174.873,111.08 174.46,111.161 L174.46,111.161 Z M198.561,111.43 C198.154,111.341 197.739,111.253 197.316,111.168 L197.398,110.755 C197.823,110.837 198.243,110.925 198.654,111.017 L198.561,111.43 L198.561,111.43 Z M171.974,111.713 L171.871,111.302 C172.282,111.197 172.698,111.1 173.122,111.005 L173.215,111.418 C172.794,111.513 172.381,111.611 171.974,111.713 L171.974,111.713 Z M201.029,112.056 C200.629,111.94 200.22,111.829 199.8,111.725 L199.905,111.314 C200.327,111.421 200.74,111.533 201.146,111.65 L201.029,112.056 L201.029,112.056 Z M169.528,112.408 L169.396,112.005 C169.8,111.876 170.211,111.752 170.63,111.633 L170.746,112.042 C170.331,112.16 169.925,112.28 169.528,112.408 L169.528,112.408 Z M203.45,112.835 C203.06,112.695 202.657,112.556 202.247,112.424 L202.379,112.022 C202.795,112.155 203.198,112.294 203.595,112.436 L203.45,112.835 L203.45,112.835 Z M167.138,113.272 L166.978,112.88 C167.37,112.721 167.769,112.568 168.18,112.419 L168.327,112.819 C167.918,112.965 167.522,113.116 167.138,113.272 L167.138,113.272 Z M205.797,113.801 C205.421,113.624 205.032,113.453 204.634,113.293 L204.796,112.9 C205.2,113.064 205.594,113.237 205.977,113.416 L205.797,113.801 L205.797,113.801 Z M164.841,114.341 L164.641,113.968 C165.01,113.77 165.398,113.578 165.796,113.393 L165.976,113.778 C165.582,113.959 165.2,114.149 164.841,114.341 L164.841,114.341 Z M208.026,114.998 C207.683,114.783 207.314,114.571 206.932,114.365 L207.131,113.992 C207.522,114.201 207.899,114.42 208.251,114.637 L208.026,114.998 L208.026,114.998 Z M162.698,115.675 L162.448,115.335 C162.78,115.088 163.14,114.845 163.521,114.609 L163.743,114.97 C163.373,115.199 163.022,115.438 162.698,115.675 L162.698,115.675 Z M210.038,116.505 C209.743,116.234 209.419,115.967 209.07,115.704 L209.321,115.366 C209.683,115.636 210.021,115.915 210.325,116.191 L210.038,116.505 L210.038,116.505 Z M160.86,117.368 L160.535,117.095 C160.801,116.779 161.104,116.462 161.441,116.156 L161.724,116.469 C161.405,116.765 161.113,117.064 160.86,117.368 L160.86,117.368 Z M211.598,118.425 C211.409,118.082 211.173,117.74 210.898,117.407 L211.224,117.138 C211.516,117.492 211.768,117.854 211.97,118.219 L211.598,118.425 L211.598,118.425 Z M159.671,119.505 L159.266,119.389 C159.383,118.979 159.556,118.569 159.783,118.172 L160.151,118.38 C159.943,118.751 159.781,119.126 159.671,119.505 L159.671,119.505 Z M212.649,120.758 L212.226,120.751 L212.438,120.755 L212.226,120.715 C212.226,120.328 212.174,119.936 212.067,119.554 L212.475,119.44 C212.59,119.86 212.649,120.288 212.649,120.715 L212.649,120.758 L212.649,120.758 Z M159.257,122.016 C159.137,121.589 159.076,121.15 159.076,120.715 L159.499,120.702 L159.499,120.715 C159.499,121.111 159.554,121.511 159.665,121.901 L159.257,122.016 L159.257,122.016 Z M211.93,123.282 L211.561,123.073 C211.771,122.704 211.937,122.326 212.046,121.951 L212.454,122.07 C212.334,122.477 212.156,122.885 211.93,123.282 L211.93,123.282 Z M160.52,124.315 C160.225,123.961 159.972,123.6 159.769,123.236 L160.137,123.029 C160.33,123.369 160.567,123.711 160.843,124.044 L160.52,124.315 L160.52,124.315 Z M210.265,125.293 L209.979,124.979 C210.301,124.686 210.593,124.385 210.849,124.084 L211.173,124.356 C210.906,124.672 210.6,124.988 210.265,125.293 L210.265,125.293 Z M162.425,126.081 C162.062,125.811 161.724,125.534 161.422,125.256 L161.708,124.944 C162,125.212 162.326,125.48 162.677,125.742 L162.425,126.081 L162.425,126.081 Z M208.181,126.834 L207.959,126.475 C208.328,126.246 208.682,126.01 209.005,125.771 L209.257,126.114 C208.922,126.359 208.56,126.602 208.181,126.834 L208.181,126.834 Z M164.619,127.451 C164.228,127.243 163.85,127.028 163.497,126.805 L163.722,126.445 C164.067,126.661 164.437,126.874 164.816,127.077 L164.619,127.451 L164.619,127.451 Z M205.903,128.049 L205.726,127.664 C206.118,127.483 206.501,127.292 206.862,127.103 L207.06,127.476 C206.692,127.671 206.302,127.865 205.903,128.049 L205.903,128.049 Z M166.955,128.542 C166.553,128.378 166.155,128.204 165.774,128.027 L165.951,127.643 C166.328,127.817 166.72,127.986 167.113,128.149 L166.955,128.542 L166.955,128.542 Z M203.519,129.023 L203.377,128.623 C203.783,128.475 204.179,128.325 204.563,128.168 L204.722,128.56 C204.332,128.718 203.932,128.873 203.519,129.023 L203.519,129.023 Z M169.374,129.417 C168.958,129.283 168.551,129.146 168.155,129.004 L168.299,128.604 C168.691,128.744 169.093,128.881 169.502,129.013 L169.374,129.417 L169.374,129.417 Z M201.068,129.803 L200.955,129.396 C201.369,129.278 201.775,129.155 202.173,129.03 L202.301,129.434 C201.899,129.561 201.488,129.686 201.068,129.803 L201.068,129.803 Z M171.848,130.122 C171.425,130.016 171.012,129.906 170.605,129.79 L170.721,129.382 C171.123,129.497 171.532,129.607 171.949,129.713 L171.848,130.122 L171.848,130.122 Z M198.576,130.431 L198.485,130.018 C198.906,129.925 199.319,129.826 199.724,129.724 L199.827,130.136 C199.419,130.239 199,130.337 198.576,130.431 L198.576,130.431 Z M174.353,130.681 C173.927,130.6 173.509,130.513 173.094,130.418 L173.188,130.005 C173.595,130.097 174.014,130.185 174.435,130.266 L174.353,130.681 L174.353,130.681 Z M196.056,130.921 L195.987,130.504 C196.409,130.431 196.827,130.356 197.238,130.277 L197.32,130.693 C196.905,130.773 196.483,130.85 196.056,130.921 L196.056,130.921 Z M176.886,131.113 C176.456,131.051 176.035,130.984 175.619,130.912 L175.686,130.495 C176.103,130.566 176.522,130.631 176.947,130.695 L176.886,131.113 L176.886,131.113 Z M193.516,131.292 L193.464,130.872 C193.89,130.818 194.312,130.763 194.728,130.701 L194.789,131.12 C194.371,131.181 193.946,131.238 193.516,131.292 L193.516,131.292 Z M179.43,131.427 C179.003,131.387 178.577,131.337 178.154,131.284 L178.209,130.865 C178.626,130.914 179.048,130.963 179.474,131.007 L179.43,131.427 L179.43,131.427 Z M190.962,131.549 L190.93,131.127 C191.355,131.092 191.779,131.054 192.2,131.011 L192.241,131.432 C191.818,131.475 191.393,131.514 190.962,131.549 L190.962,131.549 Z M181.988,131.635 C181.558,131.609 181.134,131.578 180.71,131.545 L180.743,131.122 C181.165,131.155 181.587,131.185 182.016,131.212 L181.988,131.635 L181.988,131.635 Z M188.4,131.702 L188.384,131.278 C188.811,131.261 189.237,131.239 189.659,131.216 L189.682,131.638 C189.259,131.663 188.833,131.683 188.4,131.702 L188.4,131.702 Z M184.553,131.738 C184.124,131.729 183.694,131.715 183.271,131.698 L183.289,131.276 C183.711,131.292 184.134,131.306 184.561,131.315 L184.553,131.738 L184.553,131.738 Z M185.863,131.753 L185.837,131.541 L185.837,131.33 L185.863,131.33 C186.281,131.328 186.698,131.323 187.111,131.316 L187.118,131.738 C186.701,131.747 186.284,131.753 185.863,131.753 L185.863,131.753 Z" id="Fill-242" fill="#CCB131"></path>
                <path d="M189.657,117.882 C189.582,116.568 188.283,115.84 186.765,115.84 C186.137,115.84 185.272,116.151 185.28,116.762 C185.294,118.609 194.102,118.172 194.572,122.635 C194.91,125.854 191.47,127.061 188.565,127.061 C188.269,127.061 187.977,127.041 187.707,127.017 L187.751,128.433 L186.168,128.433 L186.139,126.69 C184.945,126.324 184.05,125.682 183.478,125.091 L183.193,126.733 L178.93,126.733 L179.224,121.554 L183.516,121.554 C183.499,123.219 185.474,123.502 186.465,123.543 C187.29,123.543 188.463,123.38 188.428,122.537 C188.366,121.01 179.519,121.651 179.771,116.92 C179.906,114.387 182.911,113.286 184.975,113.286 C185.291,113.286 185.608,113.303 185.923,113.334 L185.904,112.15 L187.232,112.15 L187.28,113.578 C188.179,113.841 188.961,114.271 189.47,114.972 L189.601,113.578 L193.236,113.578 L193.67,117.882 L189.657,117.882" id="Fill-243" fill="#CCB131"></path>
                <path d="M211.949,127.42 C210.284,128.442 208.329,129.366 206.136,130.164 C204.346,130.813 202.398,131.377 200.325,131.848 C198.479,132.265 196.537,132.608 194.513,132.863 C192.638,133.098 190.695,133.257 188.7,133.34 C187.765,133.376 186.82,133.398 185.863,133.4 C184.859,133.398 183.867,133.376 182.889,133.335 C180.893,133.25 178.951,133.085 177.076,132.844 C175.05,132.587 173.107,132.238 171.264,131.816 C169.187,131.342 167.242,130.769 165.45,130.112 C163.256,129.304 161.301,128.37 159.641,127.336 C156.77,125.544 154.779,123.451 153.965,121.181 L153.965,128.969 C154.893,131.092 156.871,133.08 159.641,134.81 C161.308,135.85 163.265,136.795 165.45,137.617 C167.245,138.291 169.193,138.88 171.264,139.373 C173.111,139.809 175.053,140.17 177.076,140.442 C178.953,140.694 180.895,140.871 182.889,140.959 C183.87,141.003 184.86,141.026 185.863,141.029 C186.817,141.026 187.763,141.005 188.7,140.965 C190.692,140.88 192.636,140.708 194.513,140.463 C196.534,140.195 198.477,139.838 200.325,139.405 C202.395,138.919 204.344,138.334 206.136,137.668 C208.322,136.855 210.275,135.921 211.949,134.892 C214.788,133.144 216.818,131.125 217.761,128.969 L217.761,121.181 C216.932,123.487 214.891,125.611 211.949,127.42" id="Fill-244" fill="#E3B82B"></path>
                <path d="M185.863,96.904 C168.236,96.929 153.965,103.433 153.965,111.455 C153.965,119.474 168.236,125.979 185.863,126.003 C203.489,125.979 217.761,119.474 217.761,111.455 C217.761,103.433 203.489,96.929 185.863,96.904" id="Fill-245" fill="#CEA130"></path>
                <path d="M185.863,99.331 C171.177,99.35 159.287,104.189 159.287,110.156 C159.287,116.123 171.177,120.965 185.863,120.982 C200.548,120.965 212.438,116.123 212.438,110.156 C212.438,104.189 200.548,99.35 185.863,99.331" id="Fill-246" fill="#FBD821"></path>
                <path d="M184.589,99.558 L184.578,99.134 C185.004,99.123 185.433,99.118 185.861,99.118 L185.916,99.118 L185.916,99.544 L185.863,99.544 C185.436,99.544 185.011,99.548 184.589,99.558 L184.589,99.558 Z M188.463,99.598 C188.04,99.581 187.616,99.567 187.19,99.558 L187.199,99.135 C187.63,99.145 188.057,99.156 188.482,99.174 L188.463,99.598 L188.463,99.598 Z M182.042,99.66 L182.016,99.235 C182.441,99.21 182.866,99.191 183.297,99.172 L183.313,99.596 C182.885,99.612 182.462,99.633 182.042,99.66 L182.042,99.66 Z M191.008,99.751 C190.588,99.719 190.164,99.688 189.736,99.66 L189.76,99.238 C190.194,99.265 190.619,99.294 191.041,99.329 L191.008,99.751 L191.008,99.751 Z M179.501,99.862 L179.458,99.44 C179.88,99.398 180.305,99.359 180.735,99.325 L180.77,99.747 C180.343,99.782 179.919,99.82 179.501,99.862 L179.501,99.862 Z M193.545,100.011 C193.127,99.959 192.704,99.911 192.278,99.869 L192.319,99.446 C192.751,99.49 193.174,99.537 193.595,99.591 L193.545,100.011 L193.545,100.011 Z M176.972,100.174 L176.909,99.754 C177.329,99.692 177.754,99.636 178.182,99.584 L178.234,100.004 C177.809,100.059 177.386,100.114 176.972,100.174 L176.972,100.174 Z M196.063,100.381 C195.65,100.31 195.229,100.245 194.805,100.181 L194.867,99.763 C195.294,99.825 195.717,99.893 196.136,99.964 L196.063,100.381 L196.063,100.381 Z M174.46,100.6 L174.379,100.185 C174.795,100.103 175.215,100.026 175.641,99.953 L175.713,100.373 C175.289,100.444 174.873,100.519 174.46,100.6 L174.46,100.6 Z M198.561,100.871 C198.154,100.781 197.739,100.694 197.316,100.611 L197.398,100.194 C197.823,100.278 198.243,100.367 198.654,100.458 L198.561,100.871 L198.561,100.871 Z M171.974,101.154 L171.871,100.743 C172.282,100.638 172.698,100.54 173.122,100.445 L173.215,100.86 C172.794,100.955 172.381,101.05 171.974,101.154 L171.974,101.154 Z M201.029,101.496 C200.629,101.382 200.22,101.272 199.8,101.166 L199.905,100.755 C200.327,100.861 200.74,100.972 201.146,101.089 L201.029,101.496 L201.029,101.496 Z M169.528,101.85 L169.396,101.445 C169.8,101.317 170.211,101.195 170.63,101.074 L170.746,101.482 C170.331,101.6 169.925,101.721 169.528,101.85 L169.528,101.85 Z M203.45,102.277 C203.06,102.134 202.657,101.997 202.247,101.865 L202.379,101.464 C202.795,101.593 203.198,101.735 203.595,101.88 L203.45,102.277 L203.45,102.277 Z M167.138,102.713 L166.978,102.321 C167.37,102.163 167.769,102.009 168.18,101.859 L168.327,102.258 C167.918,102.404 167.522,102.557 167.138,102.713 L167.138,102.713 Z M205.797,103.239 C205.421,103.066 205.032,102.895 204.634,102.734 L204.796,102.339 C205.2,102.505 205.594,102.68 205.977,102.857 L205.797,103.239 L205.797,103.239 Z M164.841,103.782 L164.641,103.407 C165.01,103.211 165.398,103.018 165.796,102.834 L165.976,103.218 C165.582,103.4 165.2,103.59 164.841,103.782 L164.841,103.782 Z M208.026,104.439 C207.683,104.224 207.314,104.011 206.932,103.806 L207.131,103.433 C207.522,103.643 207.899,103.861 208.251,104.08 L208.026,104.439 L208.026,104.439 Z M162.698,105.117 L162.448,104.777 C162.78,104.529 163.14,104.286 163.521,104.05 L163.743,104.411 C163.373,104.64 163.022,104.878 162.698,105.117 L162.698,105.117 Z M210.038,105.946 C209.743,105.675 209.419,105.407 209.07,105.146 L209.321,104.807 C209.683,105.074 210.021,105.356 210.325,105.633 L210.038,105.946 L210.038,105.946 Z M160.86,106.81 L160.535,106.536 C160.801,106.22 161.104,105.904 161.441,105.597 L161.724,105.91 C161.405,106.204 161.113,106.506 160.86,106.81 L160.86,106.81 Z M211.598,107.865 C211.409,107.523 211.173,107.181 210.898,106.848 L211.224,106.579 C211.516,106.93 211.768,107.297 211.97,107.66 L211.598,107.865 L211.598,107.865 Z M159.671,108.945 L159.266,108.828 C159.383,108.419 159.556,108.01 159.783,107.612 L160.151,107.821 C159.943,108.191 159.781,108.569 159.671,108.945 L159.671,108.945 Z M212.649,110.2 L212.226,110.192 L212.438,110.195 L212.226,110.156 C212.226,109.767 212.174,109.377 212.067,108.993 L212.475,108.881 C212.59,109.301 212.649,109.731 212.649,110.156 L212.649,110.2 L212.649,110.2 Z M159.257,111.457 C159.137,111.03 159.076,110.593 159.076,110.156 L159.499,110.144 L159.499,110.156 C159.499,110.553 159.554,110.952 159.665,111.341 L159.257,111.457 L159.257,111.457 Z M211.93,112.724 L211.561,112.513 C211.771,112.144 211.937,111.767 212.046,111.391 L212.454,111.509 C212.334,111.919 212.156,112.326 211.93,112.724 L211.93,112.724 Z M160.52,113.755 C160.225,113.402 159.972,113.039 159.769,112.677 L160.137,112.47 C160.33,112.811 160.567,113.152 160.843,113.486 L160.52,113.755 L160.52,113.755 Z M210.265,114.732 L209.979,114.419 C210.301,114.127 210.593,113.826 210.849,113.525 L211.173,113.797 C210.906,114.114 210.6,114.428 210.265,114.732 L210.265,114.732 Z M162.425,115.521 C162.062,115.252 161.724,114.973 161.422,114.697 L161.708,114.384 C162,114.652 162.326,114.919 162.677,115.181 L162.425,115.521 L162.425,115.521 Z M208.181,116.277 L207.959,115.916 C208.328,115.687 208.682,115.45 209.005,115.212 L209.257,115.554 C208.922,115.8 208.56,116.043 208.181,116.277 L208.181,116.277 Z M164.619,116.892 C164.228,116.684 163.85,116.468 163.497,116.247 L163.722,115.888 C164.067,116.102 164.437,116.315 164.816,116.518 L164.619,116.892 L164.619,116.892 Z M205.903,117.49 L205.726,117.106 C206.118,116.924 206.501,116.734 206.862,116.544 L207.06,116.917 C206.692,117.113 206.302,117.304 205.903,117.49 L205.903,117.49 Z M166.955,117.982 C166.553,117.819 166.155,117.646 165.774,117.47 L165.951,117.085 C166.328,117.257 166.72,117.429 167.113,117.59 L166.955,117.982 L166.955,117.982 Z M203.519,118.461 L203.377,118.062 C203.783,117.917 204.179,117.765 204.563,117.609 L204.722,118.001 C204.332,118.16 203.932,118.312 203.519,118.461 L203.519,118.461 Z M169.374,118.858 C168.958,118.724 168.551,118.586 168.155,118.445 L168.299,118.044 C168.691,118.186 169.093,118.322 169.502,118.454 L169.374,118.858 L169.374,118.858 Z M201.068,119.245 L200.955,118.838 C201.369,118.721 201.775,118.596 202.173,118.471 L202.301,118.875 C201.899,119.002 201.488,119.126 201.068,119.245 L201.068,119.245 Z M171.848,119.564 C171.425,119.457 171.012,119.347 170.605,119.231 L170.721,118.822 C171.123,118.938 171.532,119.047 171.949,119.153 L171.848,119.564 L171.848,119.564 Z M198.576,119.871 L198.485,119.457 C198.906,119.364 199.319,119.267 199.724,119.166 L199.827,119.576 C199.419,119.68 199,119.777 198.576,119.871 L198.576,119.871 Z M174.353,120.122 C173.927,120.038 173.509,119.951 173.094,119.86 L173.188,119.446 C173.595,119.538 174.014,119.626 174.435,119.707 L174.353,120.122 L174.353,120.122 Z M196.056,120.362 L195.987,119.944 C196.409,119.872 196.827,119.798 197.238,119.718 L197.32,120.134 C196.905,120.213 196.483,120.291 196.056,120.362 L196.056,120.362 Z M176.886,120.556 C176.456,120.492 176.035,120.424 175.619,120.355 L175.686,119.935 C176.103,120.008 176.522,120.072 176.947,120.135 L176.886,120.556 L176.886,120.556 Z M193.516,120.731 L193.464,120.311 C193.89,120.261 194.312,120.202 194.728,120.143 L194.789,120.561 C194.371,120.623 193.946,120.681 193.516,120.731 L193.516,120.731 Z M179.43,120.869 C179.003,120.825 178.577,120.778 178.154,120.726 L178.209,120.306 C178.626,120.355 179.048,120.402 179.474,120.447 L179.43,120.869 L179.43,120.869 Z M190.962,120.988 L190.93,120.567 C191.355,120.532 191.779,120.495 192.2,120.452 L192.241,120.874 C191.818,120.916 191.393,120.955 190.962,120.988 L190.962,120.988 Z M181.988,121.074 C181.558,121.049 181.134,121.019 180.71,120.986 L180.743,120.563 C181.165,120.596 181.587,120.626 182.016,120.653 L181.988,121.074 L181.988,121.074 Z M188.4,121.142 L188.384,120.719 C188.811,120.702 189.237,120.681 189.659,120.655 L189.682,121.079 C189.259,121.103 188.833,121.124 188.4,121.142 L188.4,121.142 Z M184.553,121.179 C184.124,121.17 183.694,121.157 183.271,121.139 L183.289,120.716 C183.711,120.733 184.134,120.746 184.561,120.754 L184.553,121.179 L184.553,121.179 Z M185.863,121.193 L185.837,120.982 L185.837,120.77 L185.863,120.77 C186.281,120.77 186.698,120.765 187.111,120.754 L187.118,121.179 C186.701,121.189 186.284,121.193 185.863,121.193 L185.863,121.193 Z" id="Fill-247" fill="#CCB131"></path>
                <path d="M189.657,107.321 C189.582,106.009 188.283,105.282 186.765,105.282 C186.137,105.282 185.272,105.594 185.28,106.203 C185.294,108.048 194.102,107.61 194.572,112.078 C194.91,115.292 191.47,116.501 188.565,116.501 C188.269,116.501 187.977,116.48 187.707,116.459 L187.751,117.873 L186.168,117.873 L186.139,116.13 C184.945,115.766 184.05,115.122 183.478,114.533 L183.193,116.176 L178.93,116.176 L179.224,110.994 L183.516,110.994 C183.499,112.658 185.474,112.943 186.465,112.985 C187.29,112.985 188.463,112.821 188.428,111.977 C188.366,110.451 179.519,111.092 179.771,106.361 C179.906,103.828 182.911,102.728 184.975,102.728 C185.291,102.728 185.608,102.743 185.923,102.775 L185.904,101.591 L187.232,101.591 L187.28,103.02 C188.179,103.282 188.961,103.712 189.47,104.413 L189.601,103.02 L193.236,103.02 L193.67,107.321 L189.657,107.321" id="Fill-248" fill="#CCB131"></path>
                <path d="M211.949,118.294 C210.284,119.316 208.328,120.239 206.137,121.037 C204.346,121.687 202.399,122.253 200.324,122.721 C198.479,123.139 196.538,123.483 194.513,123.736 C192.638,123.972 190.695,124.132 188.7,124.213 C187.765,124.252 186.819,124.273 185.863,124.273 C184.859,124.273 183.866,124.249 182.888,124.209 C180.893,124.124 178.951,123.959 177.076,123.718 C175.05,123.46 173.107,123.113 171.264,122.691 C169.187,122.215 167.242,121.642 165.45,120.986 C163.256,120.178 161.301,119.245 159.641,118.209 C156.77,116.417 154.779,114.324 153.965,112.054 L153.965,119.843 C154.892,121.966 156.871,123.955 159.641,125.683 C161.308,126.724 163.265,127.669 165.45,128.49 C167.245,129.166 169.193,129.754 171.264,130.247 C173.111,130.684 175.053,131.046 177.076,131.316 C178.953,131.567 180.895,131.744 182.888,131.834 C183.87,131.877 184.86,131.9 185.863,131.901 C186.817,131.9 187.764,131.879 188.7,131.839 C190.692,131.754 192.635,131.583 194.513,131.336 C196.534,131.069 198.476,130.711 200.324,130.278 C202.395,129.793 204.344,129.209 206.137,128.541 C208.322,127.73 210.276,126.796 211.949,125.768 C214.788,124.018 216.818,122 217.761,119.843 L217.761,112.054 C216.932,114.362 214.891,116.485 211.949,118.294" id="Fill-249" fill="#E3B82B"></path>
                <path d="M185.863,88.062 C168.236,88.088 153.965,94.594 153.965,102.613 C153.965,110.635 168.236,117.14 185.863,117.164 C203.489,117.14 217.761,110.635 217.761,102.613 C217.761,94.594 203.489,88.088 185.863,88.062" id="Fill-250" fill="#CEA130"></path>
                <path d="M185.863,90.491 C171.177,90.51 159.287,95.349 159.287,101.316 C159.287,107.284 171.177,112.124 185.863,112.143 C200.549,112.124 212.439,107.284 212.439,101.316 C212.439,95.349 200.549,90.51 185.863,90.491" id="Fill-251" fill="#FBD821"></path>
                <path d="M184.589,90.716 L184.578,90.293 C185.004,90.285 185.433,90.281 185.861,90.281 L185.915,90.281 L185.915,90.703 L185.863,90.703 C185.436,90.704 185.011,90.708 184.589,90.716 M188.463,90.757 C188.041,90.74 187.616,90.727 187.19,90.72 L187.199,90.295 C187.631,90.305 188.057,90.317 188.482,90.333 L188.463,90.757 M182.042,90.819 L182.016,90.395 C182.441,90.37 182.866,90.35 183.297,90.332 L183.313,90.756 C182.885,90.772 182.462,90.793 182.042,90.819 M191.008,90.912 C190.588,90.879 190.164,90.848 189.736,90.822 L189.761,90.399 C190.194,90.426 190.619,90.457 191.041,90.489 L191.008,90.912 M179.502,91.022 L179.457,90.6 C179.88,90.558 180.305,90.52 180.735,90.486 L180.77,90.907 C180.343,90.941 179.919,90.98 179.502,91.022 M193.545,91.17 C193.127,91.12 192.704,91.073 192.278,91.027 L192.319,90.607 C192.751,90.65 193.174,90.698 193.595,90.75 L193.545,91.17 M176.972,91.334 L176.909,90.915 C177.329,90.856 177.753,90.798 178.182,90.745 L178.235,91.164 C177.81,91.216 177.386,91.273 176.972,91.334 M196.063,91.541 C195.65,91.471 195.229,91.403 194.805,91.342 L194.866,90.922 C195.294,90.985 195.716,91.052 196.136,91.123 L196.063,91.541 M174.46,91.759 L174.379,91.344 C174.795,91.264 175.215,91.186 175.641,91.115 L175.713,91.533 C175.289,91.604 174.872,91.681 174.46,91.759 M198.561,92.033 C198.154,91.94 197.738,91.854 197.316,91.771 L197.398,91.355 C197.823,91.438 198.242,91.526 198.654,91.617 L198.561,92.033 M171.974,92.315 L171.871,91.903 C172.282,91.8 172.698,91.701 173.122,91.606 L173.214,92.021 C172.793,92.114 172.381,92.211 171.974,92.315 M201.029,92.656 C200.629,92.541 200.22,92.432 199.8,92.327 L199.906,91.916 C200.328,92.021 200.74,92.133 201.146,92.248 L201.029,92.656 M169.528,93.009 L169.396,92.605 C169.8,92.477 170.211,92.354 170.629,92.233 L170.747,92.642 C170.332,92.761 169.926,92.882 169.528,93.009 M203.45,93.435 C203.061,93.294 202.657,93.158 202.247,93.025 L202.379,92.624 C202.794,92.757 203.198,92.894 203.595,93.039 L203.45,93.435 M167.137,93.873 L166.978,93.481 C167.369,93.321 167.769,93.168 168.18,93.018 L168.327,93.419 C167.918,93.565 167.522,93.717 167.137,93.873 M205.797,94.402 C205.421,94.225 205.032,94.055 204.634,93.892 L204.796,93.5 C205.2,93.665 205.594,93.838 205.978,94.017 L205.797,94.402 M164.84,94.94 L164.64,94.567 C165.01,94.373 165.398,94.178 165.796,93.994 L165.976,94.379 C165.583,94.56 165.2,94.75 164.84,94.94 M208.026,95.599 C207.683,95.384 207.314,95.171 206.931,94.967 L207.131,94.594 C207.522,94.804 207.899,95.02 208.252,95.24 L208.026,95.599 M162.698,96.277 L162.448,95.936 C162.779,95.689 163.14,95.446 163.521,95.212 L163.743,95.57 C163.372,95.799 163.022,96.036 162.698,96.277 M210.038,97.106 C209.743,96.836 209.419,96.567 209.069,96.307 L209.322,95.968 C209.682,96.236 210.02,96.515 210.326,96.794 L210.038,97.106 M160.86,97.97 L160.536,97.696 C160.801,97.379 161.104,97.064 161.441,96.759 L161.724,97.07 C161.405,97.363 161.113,97.666 160.86,97.97 M211.598,99.026 C211.409,98.683 211.173,98.342 210.898,98.008 L211.224,97.739 C211.516,98.09 211.767,98.456 211.969,98.821 L211.598,99.026 M159.67,100.106 L159.266,99.989 C159.382,99.58 159.556,99.17 159.783,98.771 L160.151,98.983 C159.944,99.35 159.781,99.729 159.67,100.106 M212.649,101.359 L212.226,101.354 L212.439,101.356 L212.226,101.316 C212.226,100.929 212.173,100.538 212.067,100.154 L212.475,100.041 C212.59,100.462 212.649,100.892 212.649,101.316 L212.649,101.359 M159.258,102.618 C159.137,102.19 159.076,101.751 159.076,101.316 L159.499,101.305 L159.499,101.316 C159.499,101.713 159.554,102.111 159.665,102.503 L159.258,102.618 M211.929,103.884 L211.561,103.674 C211.771,103.303 211.937,102.928 212.046,102.552 L212.454,102.671 C212.334,103.078 212.156,103.486 211.929,103.884 M160.52,104.916 C160.224,104.563 159.972,104.2 159.769,103.836 L160.137,103.628 C160.33,103.971 160.567,104.313 160.843,104.645 L160.52,104.916 M210.264,105.893 L209.979,105.58 C210.301,105.288 210.593,104.985 210.849,104.685 L211.173,104.957 C210.905,105.274 210.6,105.588 210.264,105.893 M162.426,106.682 C162.062,106.412 161.724,106.135 161.422,105.856 L161.707,105.544 C162,105.812 162.326,106.081 162.677,106.341 L162.426,106.682 M208.18,107.437 L207.958,107.077 C208.329,106.848 208.682,106.611 209.005,106.372 L209.256,106.715 C208.922,106.96 208.56,107.204 208.18,107.437 M164.619,108.052 C164.228,107.846 163.851,107.628 163.497,107.407 L163.722,107.047 C164.067,107.263 164.437,107.475 164.816,107.677 L164.619,108.052 M205.903,108.649 L205.725,108.266 C206.117,108.083 206.501,107.895 206.862,107.704 L207.061,108.078 C206.692,108.273 206.302,108.467 205.903,108.649 M166.954,109.142 C166.554,108.979 166.156,108.807 165.774,108.627 L165.951,108.245 C166.327,108.42 166.72,108.59 167.112,108.751 L166.954,109.142 M203.519,109.624 L203.376,109.224 C203.783,109.077 204.179,108.924 204.563,108.769 L204.723,109.161 C204.332,109.319 203.932,109.474 203.519,109.624 M169.374,110.019 C168.958,109.886 168.551,109.747 168.155,109.606 L168.299,109.205 C168.692,109.347 169.093,109.482 169.503,109.615 L169.374,110.019 M201.068,110.404 L200.956,109.996 C201.369,109.881 201.775,109.758 202.173,109.631 L202.301,110.035 C201.899,110.163 201.488,110.286 201.068,110.404 M171.848,110.724 C171.425,110.617 171.012,110.507 170.605,110.391 L170.721,109.982 C171.123,110.096 171.532,110.21 171.949,110.313 L171.848,110.724 M198.575,111.031 L198.486,110.617 C198.907,110.526 199.32,110.427 199.725,110.325 L199.827,110.737 C199.419,110.84 199,110.938 198.575,111.031 M174.353,111.284 C173.927,111.201 173.509,111.112 173.095,111.019 L173.187,110.606 C173.595,110.698 174.014,110.786 174.434,110.869 L174.353,111.284 M196.056,111.523 L195.988,111.105 C196.409,111.033 196.828,110.958 197.238,110.877 L197.32,111.294 C196.905,111.374 196.483,111.451 196.056,111.523 M176.886,111.714 C176.456,111.652 176.035,111.585 175.619,111.516 L175.686,111.098 C176.103,111.169 176.522,111.232 176.947,111.296 L176.886,111.714 M193.516,111.893 L193.465,111.472 C193.891,111.419 194.312,111.363 194.728,111.303 L194.789,111.721 C194.371,111.784 193.946,111.84 193.516,111.893 M179.43,112.028 C179.003,111.985 178.577,111.937 178.154,111.886 L178.209,111.466 C178.626,111.518 179.047,111.562 179.474,111.606 L179.43,112.028 M190.963,112.15 L190.93,111.728 C191.355,111.693 191.78,111.655 192.2,111.612 L192.241,112.033 C191.819,112.077 191.393,112.114 190.963,112.15 M181.989,112.236 C181.557,112.207 181.133,112.179 180.71,112.145 L180.743,111.723 C181.165,111.757 181.588,111.787 182.016,111.813 L181.989,112.236 M188.399,112.303 L188.384,111.878 C188.811,111.861 189.237,111.84 189.658,111.815 L189.682,112.238 C189.258,112.263 188.832,112.284 188.399,112.303 M184.553,112.338 C184.124,112.33 183.694,112.316 183.271,112.3 L183.289,111.876 C183.711,111.893 184.134,111.907 184.561,111.916 L184.553,112.338 M185.863,112.354 L185.837,112.143 L185.837,111.93 L185.863,111.93 C186.281,111.93 186.697,111.924 187.111,111.916 L187.118,112.341 C186.701,112.348 186.283,112.353 185.863,112.354" id="Fill-252" fill="#CCB131"></path>
                <path d="M189.656,98.481 C189.582,97.17 188.283,96.441 186.764,96.441 C186.136,96.441 185.272,96.752 185.279,97.363 C185.293,99.209 194.102,98.771 194.572,103.237 C194.91,106.454 191.47,107.661 188.565,107.661 C188.269,107.661 187.977,107.64 187.707,107.619 L187.751,109.033 L186.169,109.033 L186.138,107.292 C184.945,106.924 184.05,106.283 183.478,105.694 L183.193,107.335 L178.93,107.335 L179.223,102.155 L183.517,102.155 C183.499,103.819 185.474,104.102 186.465,104.144 C187.29,104.144 188.463,103.98 188.428,103.14 C188.366,101.611 179.519,102.251 179.771,97.519 C179.906,94.987 182.911,93.887 184.975,93.887 C185.29,93.887 185.608,93.901 185.922,93.935 L185.904,92.751 L187.233,92.751 L187.28,94.18 C188.179,94.442 188.961,94.872 189.47,95.574 L189.601,94.18 L193.235,94.18 L193.67,98.481 L189.656,98.481" id="Fill-253" fill="#CCB131"></path>
                <path d="M211.949,109.454 C210.284,110.478 208.328,111.401 206.137,112.198 C204.346,112.846 202.399,113.412 200.324,113.882 C198.479,114.298 196.538,114.642 194.513,114.897 C192.638,115.131 190.695,115.293 188.7,115.374 C187.765,115.412 186.819,115.433 185.863,115.433 C184.859,115.431 183.866,115.409 182.888,115.369 C180.893,115.284 178.951,115.119 177.076,114.878 C175.05,114.621 173.107,114.272 171.264,113.851 C169.187,113.376 167.242,112.803 165.45,112.145 C163.256,111.338 161.301,110.403 159.641,109.369 C156.77,107.578 154.779,105.487 153.965,103.215 L153.965,111.003 C154.892,113.126 156.871,115.114 159.641,116.843 C161.308,117.884 163.265,118.829 165.45,119.651 C167.245,120.325 169.193,120.914 171.264,121.407 C173.111,121.847 175.053,122.206 177.076,122.477 C178.953,122.727 180.895,122.904 182.888,122.994 C183.87,123.037 184.86,123.06 185.863,123.063 C186.817,123.06 187.764,123.039 188.7,122.999 C190.692,122.914 192.635,122.743 194.513,122.496 C196.534,122.229 198.476,121.873 200.324,121.438 C202.395,120.953 204.344,120.369 206.137,119.7 C208.322,118.89 210.276,117.957 211.949,116.927 C214.788,115.179 216.818,113.159 217.761,111.003 L217.761,103.215 C216.932,105.522 214.891,107.645 211.949,109.454" id="Fill-254" fill="#E3B82B"></path>
                <path d="M185.863,78.937 C168.236,78.961 153.965,85.467 153.965,93.486 C153.965,101.508 168.236,108.014 185.863,108.038 C203.489,108.014 217.761,101.508 217.761,93.486 C217.761,85.467 203.489,78.961 185.863,78.937" id="Fill-255" fill="#CEA130"></path>
                <path d="M185.863,81.365 C171.177,81.381 159.287,86.222 159.287,92.19 C159.287,98.158 171.177,102.996 185.863,103.015 C200.549,102.996 212.439,98.158 212.439,92.19 C212.439,86.222 200.549,81.381 185.863,81.365" id="Fill-256" fill="#FBD821"></path>
                <path d="M184.589,81.591 L184.578,81.167 C185.004,81.157 185.433,81.153 185.861,81.153 L185.915,81.153 L185.915,81.576 L185.863,81.576 C185.436,81.576 185.011,81.583 184.589,81.591 M188.463,81.632 C188.041,81.615 187.616,81.601 187.19,81.591 L187.199,81.169 C187.631,81.178 188.057,81.19 188.482,81.206 L188.463,81.632 M182.042,81.694 L182.016,81.271 C182.441,81.245 182.866,81.223 183.297,81.205 L183.313,81.629 C182.885,81.646 182.462,81.668 182.042,81.694 M191.008,81.787 C190.588,81.752 190.164,81.722 189.736,81.696 L189.761,81.274 C190.194,81.299 190.619,81.33 191.041,81.362 L191.008,81.787 M179.502,81.897 L179.457,81.477 C179.88,81.432 180.305,81.393 180.735,81.361 L180.77,81.78 C180.343,81.816 179.919,81.854 179.502,81.897 M193.545,82.044 C193.127,81.993 192.704,81.945 192.278,81.901 L192.319,81.48 C192.751,81.524 193.174,81.573 193.595,81.623 L193.545,82.044 M176.972,82.209 L176.909,81.788 C177.329,81.726 177.753,81.672 178.182,81.617 L178.235,82.038 C177.81,82.091 177.386,82.148 176.972,82.209 M196.063,82.415 C195.65,82.345 195.229,82.278 194.805,82.216 L194.866,81.795 C195.294,81.858 195.716,81.925 196.136,81.998 L196.063,82.415 M174.46,82.636 L174.379,82.219 C174.795,82.139 175.215,82.061 175.641,81.988 L175.713,82.405 C175.289,82.478 174.872,82.553 174.46,82.636 M198.561,82.907 C198.154,82.814 197.738,82.728 197.316,82.643 L197.398,82.228 C197.823,82.312 198.242,82.399 198.654,82.492 L198.561,82.907 M171.974,83.187 L171.871,82.776 C172.282,82.673 172.698,82.574 173.122,82.48 L173.214,82.893 C172.793,82.988 172.381,83.084 171.974,83.187 M201.029,83.531 C200.629,83.416 200.22,83.306 199.8,83.2 L199.906,82.789 C200.328,82.895 200.74,83.009 201.146,83.123 L201.029,83.531 M169.528,83.884 L169.396,83.479 C169.8,83.351 170.211,83.228 170.629,83.107 L170.747,83.516 C170.332,83.635 169.926,83.755 169.528,83.884 M203.45,84.31 C203.061,84.168 202.657,84.031 202.247,83.9 L202.379,83.495 C202.794,83.629 203.198,83.769 203.595,83.912 L203.45,84.31 M167.137,84.747 L166.978,84.354 C167.369,84.197 167.769,84.043 168.18,83.894 L168.327,84.293 C167.918,84.439 167.522,84.593 167.137,84.747 M205.797,85.275 C205.421,85.099 205.032,84.927 204.634,84.768 L204.796,84.374 C205.2,84.538 205.594,84.711 205.978,84.891 L205.797,85.275 M164.84,85.813 L164.64,85.442 C165.01,85.247 165.398,85.053 165.796,84.869 L165.976,85.252 C165.583,85.434 165.2,85.624 164.84,85.813 M208.026,86.473 C207.683,86.258 207.314,86.046 206.931,85.841 L207.131,85.467 C207.522,85.677 207.899,85.894 208.252,86.113 L208.026,86.473 M162.698,87.151 L162.448,86.809 C162.779,86.564 163.14,86.321 163.521,86.085 L163.743,86.444 C163.372,86.674 163.022,86.912 162.698,87.151 M210.038,87.98 C209.743,87.71 209.419,87.441 209.069,87.181 L209.322,86.84 C209.682,87.111 210.02,87.39 210.326,87.668 L210.038,87.98 M160.86,88.844 L160.536,88.57 C160.801,88.252 161.104,87.938 161.441,87.632 L161.724,87.944 C161.405,88.238 161.113,88.541 160.86,88.844 M211.598,89.9 C211.409,89.557 211.173,89.215 210.898,88.882 L211.224,88.613 C211.516,88.966 211.767,89.33 211.969,89.694 L211.598,89.9 M159.67,90.978 L159.266,90.862 C159.382,90.454 159.556,90.044 159.783,89.646 L160.151,89.855 C159.944,90.226 159.781,90.603 159.67,90.978 M212.649,92.233 L212.226,92.226 L212.439,92.23 L212.226,92.19 C212.226,91.801 212.173,91.41 212.067,91.028 L212.475,90.915 C212.59,91.335 212.649,91.765 212.649,92.19 L212.649,92.233 M159.258,93.492 C159.137,93.062 159.076,92.625 159.076,92.19 L159.499,92.178 L159.499,92.19 C159.499,92.586 159.554,92.986 159.665,93.378 L159.258,93.492 M211.929,94.758 L211.561,94.549 C211.771,94.178 211.937,93.801 212.046,93.426 L212.454,93.546 C212.334,93.952 212.156,94.36 211.929,94.758 M160.52,95.791 C160.224,95.437 159.972,95.074 159.769,94.711 L160.137,94.502 C160.33,94.844 160.567,95.185 160.843,95.52 L160.52,95.791 M210.264,96.766 L209.979,96.455 C210.301,96.161 210.593,95.86 210.849,95.557 L211.173,95.832 C210.905,96.148 210.6,96.462 210.264,96.766 M162.426,97.556 C162.062,97.286 161.724,97.01 161.422,96.731 L161.707,96.419 C162,96.686 162.326,96.953 162.677,97.215 L162.426,97.556 M208.18,98.309 L207.958,97.95 C208.329,97.723 208.682,97.484 209.005,97.246 L209.256,97.588 C208.922,97.834 208.56,98.077 208.18,98.309 M164.619,98.927 C164.228,98.719 163.851,98.501 163.497,98.282 L163.722,97.922 C164.067,98.139 164.437,98.349 164.816,98.553 L164.619,98.927 M205.903,99.523 L205.725,99.137 C206.117,98.957 206.501,98.769 206.862,98.576 L207.061,98.949 C206.692,99.146 206.302,99.338 205.903,99.523 M166.954,100.016 C166.554,99.852 166.156,99.68 165.774,99.501 L165.951,99.118 C166.327,99.291 166.72,99.463 167.112,99.624 L166.954,100.016 M203.519,100.497 L203.376,100.096 C203.783,99.951 204.179,99.799 204.563,99.643 L204.723,100.036 C204.332,100.193 203.932,100.346 203.519,100.497 M169.374,100.893 C168.958,100.76 168.551,100.621 168.155,100.478 L168.299,100.078 C168.692,100.221 169.093,100.356 169.503,100.489 L169.374,100.893 M201.068,101.279 L200.956,100.871 C201.369,100.753 201.775,100.632 202.173,100.504 L202.301,100.91 C201.899,101.035 201.488,101.161 201.068,101.279 M171.848,101.598 C171.425,101.492 171.012,101.381 170.605,101.264 L170.721,100.857 C171.123,100.971 171.532,101.081 171.949,101.188 L171.848,101.598 M198.575,101.906 L198.486,101.492 C198.907,101.398 199.32,101.301 199.725,101.198 L199.827,101.611 C199.419,101.713 199,101.81 198.575,101.906 M174.353,102.158 C173.927,102.072 173.509,101.988 173.095,101.895 L173.187,101.48 C173.595,101.572 174.014,101.656 174.434,101.742 L174.353,102.158 M196.056,102.396 L195.988,101.978 C196.409,101.906 196.828,101.831 197.238,101.752 L197.32,102.168 C196.905,102.247 196.483,102.323 196.056,102.396 M176.886,102.59 C176.456,102.526 176.035,102.458 175.619,102.389 L175.686,101.969 C176.103,102.039 176.522,102.109 176.947,102.17 L176.886,102.59 M193.516,102.767 L193.465,102.345 C193.891,102.295 194.312,102.238 194.728,102.178 L194.789,102.596 C194.371,102.657 193.946,102.716 193.516,102.767 M179.43,102.902 C179.003,102.859 178.577,102.812 178.154,102.76 L178.209,102.337 C178.626,102.391 179.047,102.437 179.474,102.48 L179.43,102.902 M190.963,103.024 L190.93,102.601 C191.355,102.566 191.78,102.529 192.2,102.487 L192.241,102.908 C191.819,102.952 191.393,102.989 190.963,103.024 M181.989,103.11 C181.557,103.083 181.133,103.053 180.71,103.02 L180.743,102.597 C181.165,102.63 181.588,102.659 182.016,102.686 L181.989,103.11 M188.399,103.176 L188.384,102.753 C188.811,102.737 189.237,102.716 189.658,102.689 L189.682,103.112 C189.258,103.138 188.832,103.159 188.399,103.176 M184.553,103.213 C184.124,103.204 183.694,103.191 183.271,103.174 L183.289,102.749 C183.711,102.767 184.134,102.781 184.561,102.79 L184.553,103.213 M185.863,103.227 L185.837,103.015 L185.837,102.804 L185.863,102.804 C186.281,102.804 186.697,102.8 187.111,102.79 L187.118,103.213 C186.701,103.223 186.283,103.227 185.863,103.227" id="Fill-257" fill="#CCB131"></path>
                <path d="M189.656,89.356 C189.582,88.043 188.283,87.316 186.764,87.316 C186.136,87.316 185.272,87.625 185.279,88.238 C185.293,90.084 194.102,89.645 194.572,94.11 C194.91,97.328 191.47,98.535 188.565,98.535 C188.269,98.535 187.977,98.513 187.707,98.491 L187.751,99.908 L186.169,99.908 L186.138,98.167 C184.945,97.799 184.05,97.156 183.478,96.566 L183.193,98.21 L178.93,98.21 L179.223,93.027 L183.517,93.027 C183.499,94.693 185.474,94.976 186.465,95.017 C187.29,95.017 188.463,94.854 188.428,94.012 C188.366,92.484 179.519,93.125 179.771,88.395 C179.906,85.861 182.911,84.76 184.975,84.76 C185.29,84.76 185.608,84.776 185.922,84.81 L185.904,83.625 L187.233,83.625 L187.28,85.053 C188.179,85.314 188.961,85.745 189.47,86.45 L189.601,85.053 L193.235,85.053 L193.67,89.356 L189.656,89.356" id="Fill-258" fill="#CCB131"></path>
                <path d="M211.949,100.329 C210.284,101.35 208.329,102.273 206.136,103.07 C204.346,103.72 202.398,104.286 200.325,104.756 C198.479,105.173 196.537,105.516 194.513,105.77 C192.638,106.004 190.695,106.167 188.7,106.248 C187.765,106.285 186.82,106.307 185.863,106.307 C184.859,106.305 183.867,106.284 182.889,106.243 C180.893,106.158 178.951,105.993 177.076,105.753 C175.05,105.494 173.107,105.145 171.264,104.724 C169.187,104.25 167.242,103.676 165.45,103.02 C163.256,102.212 161.301,101.279 159.641,100.243 C156.77,98.452 154.779,96.358 153.965,94.089 L153.965,101.877 C154.893,103.999 156.871,105.989 159.641,107.717 C161.308,108.758 163.265,109.702 165.45,110.524 C167.245,111.197 169.193,111.789 171.264,112.278 C173.111,112.719 175.053,113.079 177.076,113.352 C178.953,113.602 180.895,113.778 182.889,113.868 C183.87,113.91 184.86,113.934 185.863,113.937 C186.817,113.934 187.763,113.913 188.7,113.873 C190.692,113.788 192.636,113.618 194.513,113.368 C196.534,113.102 198.477,112.747 200.325,112.314 C202.395,111.826 204.344,111.242 206.136,110.575 C208.322,109.764 210.275,108.829 211.949,107.799 C214.788,106.053 216.818,104.035 217.761,101.877 L217.761,94.089 C216.932,96.394 214.891,98.518 211.949,100.329" id="Fill-259" fill="#E3B82B"></path>
                <path d="M185.863,69.813 C168.236,69.835 153.965,76.339 153.965,84.361 C153.965,92.382 168.236,98.885 185.863,98.911 C203.489,98.885 217.761,92.382 217.761,84.361 C217.761,76.339 203.489,69.835 185.863,69.813" id="Fill-260" fill="#F9C824"></path>
                <path d="M185.863,93.888 C171.177,93.871 159.287,89.031 159.287,83.064 C159.287,77.097 171.177,72.256 185.863,72.239 C200.549,72.256 212.439,77.097 212.439,83.064 C212.439,89.031 200.549,93.871 185.863,93.888" id="Fill-261" fill="#FAD343"></path>
                <path d="M211.949,91.201 C210.284,92.225 208.328,93.147 206.137,93.944 C204.346,94.593 202.399,95.16 200.324,95.629 C198.479,96.048 196.538,96.387 194.513,96.643 C192.638,96.878 190.695,97.04 188.7,97.121 C187.765,97.159 186.819,97.18 185.863,97.183 C184.859,97.18 183.866,97.159 182.888,97.116 C180.893,97.032 178.951,96.866 177.076,96.626 C175.05,96.367 173.107,96.019 171.264,95.598 C169.187,95.124 167.242,94.55 165.45,93.892 C163.256,93.087 161.301,92.153 159.641,91.116 C156.77,89.326 154.779,87.233 153.965,84.964 L153.965,92.749 C154.892,94.873 156.871,96.862 159.641,98.59 C161.308,99.631 163.265,100.576 165.45,101.399 C167.245,102.074 169.193,102.661 171.264,103.155 C173.111,103.593 175.053,103.953 177.076,104.225 C178.953,104.475 180.895,104.652 182.888,104.742 C183.87,104.786 184.86,104.808 185.863,104.809 C186.817,104.808 187.764,104.786 188.7,104.746 C190.692,104.661 192.635,104.491 194.513,104.242 C196.534,103.977 198.476,103.618 200.324,103.186 C202.395,102.699 204.344,102.116 206.137,101.449 C208.322,100.638 210.276,99.703 211.949,98.673 C214.788,96.925 216.818,94.909 217.761,92.749 L217.761,84.964 C216.932,87.269 214.891,89.393 211.949,91.201" id="Fill-262" fill="#E3B82B"></path>
                <path d="M185.901,75.245 C172.061,75.261 162.414,79.57 162.414,83.427 C162.414,87.284 172.061,91.593 185.903,91.61 C199.745,91.593 209.392,87.284 209.392,83.427 C209.392,79.57 199.745,75.261 185.901,75.245 L185.901,75.245 Z M185.905,94.758 L185.901,94.758 C172.989,94.743 159.265,90.767 159.265,83.427 C159.265,76.088 172.989,72.111 185.901,72.097 C198.817,72.111 212.54,76.088 212.54,83.427 C212.54,90.767 198.817,94.743 185.905,94.758 L185.905,94.758 Z" id="Fill-263" fill="#CEA130"></path>
                <path d="M195.905,83.461 L191.677,81.597 L192.3,81.306 C192.957,81 193.336,80.78 193.443,80.646 C193.548,80.513 193.445,80.38 193.136,80.249 C192.889,80.143 192.618,80.104 192.322,80.13 C192.026,80.156 191.705,80.249 191.357,80.408 C190.771,80.674 190.486,80.918 190.502,81.138 C190.512,81.356 190.779,81.898 191.319,82.778 C191.792,83.546 192.071,84.104 192.148,84.443 C192.225,84.785 192.105,85.168 191.786,85.593 C191.461,86.023 190.843,86.468 189.924,86.927 C188.427,87.674 186.852,88.084 185.223,88.14 C183.589,88.197 181.939,87.899 180.296,87.254 L178.595,88.051 L176.729,87.051 L178.483,86.251 C177.54,85.644 177.081,84.967 177.098,84.223 C177.113,83.497 178.07,82.73 179.935,81.927 L180.737,81.581 L184.638,83.444 L183.628,83.905 C182.502,84.418 181.835,84.762 181.639,84.93 C181.443,85.1 181.504,85.265 181.825,85.426 C182.099,85.564 182.402,85.622 182.732,85.599 C183.062,85.577 183.416,85.477 183.796,85.3 C184.74,84.86 185.343,84.517 185.613,84.27 C185.881,84.024 185.873,83.617 185.594,83.055 C185.146,82.136 184.891,81.509 184.82,81.154 C184.749,80.805 184.88,80.422 185.206,80.009 C185.529,79.6 186.08,79.23 186.857,78.896 C187.966,78.418 189.146,78.185 190.409,78.192 C191.673,78.198 193.038,78.444 194.522,78.938 L195.642,78.427 L197.51,79.187 L196.392,79.711 C197.533,80.308 198.14,80.89 198.197,81.455 C198.254,82.031 197.745,82.589 196.653,83.131 C196.5,83.207 196.25,83.317 195.905,83.461" id="Fill-264" fill="#CEA130"></path>
                <path d="M119.73,166.088 C106.177,156.478 102.981,137.703 112.59,124.151 C122.198,110.6 140.973,107.404 154.525,117.012 C168.077,126.621 171.272,145.396 161.664,158.948 C152.055,172.499 133.28,175.696 119.73,166.088" id="Fill-265" fill="#F6C524"></path>
                <path d="M153.832,153.396 C160.364,144.182 158.183,131.375 148.972,124.844 C139.76,118.311 126.952,120.493 120.421,129.704 C113.889,138.916 116.069,151.725 125.282,158.256 C134.493,164.788 147.301,162.607 153.832,153.396 M117.288,127.483 C125.044,116.544 140.254,113.954 151.194,121.711 C162.132,129.467 164.722,144.677 156.966,155.616 C149.209,166.555 133.999,169.145 123.061,161.389 C112.121,153.632 109.532,138.423 117.288,127.483" id="Fill-266" fill="#CB9E31"></path>
                <path d="M137.098,162.023 C133.13,162.022 129.127,160.876 125.619,158.491 C125.506,158.414 125.394,158.335 125.282,158.256 C125.226,158.217 125.171,158.177 125.116,158.137 C116.155,151.651 113.981,139.171 120.187,130.042 C120.264,129.929 120.342,129.816 120.421,129.704 C120.446,129.669 120.471,129.634 120.496,129.6 C120.506,129.586 120.516,129.572 120.526,129.558 C120.553,129.52 120.582,129.481 120.61,129.443 L120.61,129.442 C124.606,123.987 130.835,121.077 137.155,121.077 C141.25,121.077 145.384,122.3 148.972,124.844 C158.183,131.375 160.364,144.182 153.832,153.396 C149.845,159.019 143.518,162.023 137.098,162.023" id="Fill-267" fill="#F7D040"></path>
                <path d="M137.109,162.031 C133.14,162.031 129.136,160.881 125.619,158.491 C129.127,160.876 133.13,162.022 137.098,162.023 C143.518,162.023 149.845,159.019 153.832,153.396 C160.364,144.182 158.183,131.375 148.972,124.844 C158.199,131.385 160.375,144.168 153.832,153.396 C149.841,159.026 143.523,162.031 137.109,162.031 M125.116,158.137 C116.139,151.641 113.971,139.185 120.187,130.042 C113.981,139.171 116.155,151.651 125.116,158.137 M120.421,129.704 C120.446,129.669 120.471,129.634 120.496,129.6 C120.471,129.634 120.446,129.669 120.421,129.704 M120.526,129.558 C120.554,129.519 120.582,129.481 120.61,129.443 C120.582,129.481 120.553,129.52 120.526,129.558 M120.61,129.442 C124.61,123.981 130.831,121.069 137.144,121.069 C141.241,121.069 145.376,122.294 148.972,124.844 C145.384,122.3 141.25,121.077 137.155,121.077 C130.835,121.077 124.606,123.987 120.61,129.442" id="Fill-268" fill="#D5AF3A"></path>
                <path d="M137.406,150.504 L141.043,145.376 L141.894,145.979 C142.799,146.621 143.434,146.981 143.797,147.061 C144.16,147.141 144.479,146.986 144.756,146.597 C144.977,146.283 145.023,145.963 144.894,145.635 C144.763,145.308 144.457,144.973 143.974,144.631 C143.171,144.061 142.494,143.822 141.944,143.917 C141.401,144.001 140.121,144.48 138.103,145.352 C136.392,146.096 135.159,146.558 134.404,146.735 C133.649,146.912 132.774,146.891 131.777,146.675 C130.78,146.457 129.71,145.943 128.568,145.134 C126.739,143.837 125.617,142.38 125.2,140.762 C124.784,139.144 125.076,137.367 126.079,135.433 L124.149,134.065 L125.823,131.703 L127.816,133.117 C128.924,131.842 130.3,131.018 131.944,130.645 C133.588,130.272 135.553,130.896 137.838,132.516 L138.841,133.227 L135.204,138.356 L133.948,137.464 C132.568,136.486 131.674,135.931 131.265,135.801 C130.855,135.669 130.506,135.807 130.219,136.213 C129.973,136.56 129.906,136.9 130.018,137.235 C130.132,137.569 130.416,137.898 130.874,138.223 C132.024,139.038 132.904,139.541 133.513,139.732 C134.122,139.922 135.051,139.754 136.302,139.229 C138.394,138.36 139.87,137.807 140.73,137.571 C141.59,137.335 142.584,137.309 143.713,137.493 C144.843,137.676 145.936,138.143 146.994,138.893 C148.525,139.979 149.42,141.265 149.676,142.75 C149.933,144.236 149.548,145.918 148.521,147.798 L150.158,148.958 L148.484,151.32 L146.847,150.159 C145.521,151.597 144.15,152.405 142.733,152.583 C141.316,152.761 139.85,152.313 138.335,151.239 C138.123,151.089 137.814,150.844 137.406,150.504" id="Fill-269" fill="#CB9E31"></path>
            </g>
        </g>
    </g>
</svg>