<?xml version="1.0" encoding="UTF-8" standalone="no"?>
<svg width="176px" height="324px" viewBox="0 0 176 324" version="1.1" xmlns="http://www.w3.org/2000/svg" xmlns:xlink="http://www.w3.org/1999/xlink">
    <!-- Generator: sketchtool 3.6.1 (26313) - http://www.bohemiancoding.com/sketch -->
    <title>D38A0CF1-3987-4B80-8038-7D47300D376B</title>
    <desc>Created with sketchtool.</desc>
    <defs></defs>
    <g id="Welcome" stroke="none" stroke-width="1" fill="none" fill-rule="evenodd">
        <g id="2-Giving-is-encouraging-" transform="translate(-545.000000, -554.000000)">
            <g id="screen2_right_vector" transform="translate(545.000000, 554.000000)">
                <path d="M46.112,323.794931 C38.855,323.794931 39.41,317.274931 39.41,317.274931 C33.401,319.574931 28.883,320.484931 25.492,320.484931 C12.38,320.484931 16.173,306.844931 16.173,306.844931 C-16.924,298.574931 11.16,276.494931 11.16,276.494931 C-4.34,269.374931 4.16,260.554931 4.16,260.554931 L154.05,276.494931 C154.151,276.494931 154.252,276.484931 154.353,276.484931 C165.802,276.484931 172.108,296.834931 160.957,305.854931 C157.296,308.824931 153.87,309.854931 150.872,309.854931 C144.006,309.854931 139.394,304.434931 139.394,304.434931 C130.725,314.994931 123.629,318.094931 118.284,318.094931 C110.672,318.094931 106.609,311.804931 106.609,311.804931 C96.971,320.494931 88.2,323.104931 81.149,323.104931 C70.606,323.104931 63.908,317.274931 63.908,317.274931 C55.324,322.174931 49.741,323.794931 46.112,323.794931" id="Fill-158" fill="#000000" opacity="0.1"></path>
                <path d="M145.304,3.18593134 C145.548,2.40793134 143.927,1.20293134 141.683,0.494931336 C139.437,-0.212068664 137.419,-0.155068664 137.172,0.623931336 L102.743,109.249931 L110.87,111.826931 L145.299,3.19893134 L145.296,3.19893134 L145.304,3.18593134" id="Fill-159" fill="#373735"></path>
                <path d="M109.217,131.021931 L93.482,126.033931 L99.397,107.376931 L115.13,112.363931 L109.217,131.021931" id="Fill-160" fill="#F5BA26"></path>
                <path d="M102.342,272.064931 C102.342,272.064931 89.75,278.664931 57.744,266.494931 C24.565,258.004931 18.076,245.364931 18.076,245.364931 C18.076,245.364931 49.715,193.984931 65.052,164.964931 C65.334,164.414931 65.612,163.884931 65.887,163.364931 C66.001,163.154931 66.116,162.944931 66.22,162.734931 C77.532,140.989931 88.78,130.025931 93.488,126.034931 C93.701,125.859931 93.896,125.700931 94.077,125.549931 C95.179,124.641931 95.799,124.228931 95.799,124.228931 L101.83,126.141931 L102.549,126.368931 L108.569,128.276931 C108.569,128.276931 108.831,128.955931 109.205,130.317931 C109.236,130.450931 109.28,130.586931 109.311,130.716931 C110.858,136.410931 113.934,151.984931 110.582,176.784931 C110.551,176.994931 110.522,177.204931 110.503,177.424931 C110.417,178.004931 110.339,178.604931 110.257,179.204931 C106.082,211.764931 102.342,272.064931 102.342,272.064931" id="Fill-161" fill="#F5BA26"></path>
                <path d="M109.983,128.698931 L94.223,123.731931 L93.692,125.423931 L109.45,130.388931 L109.983,128.698931" id="Fill-162" fill="#C46150"></path>
                <path d="M110.257,179.204931 L65.052,164.964931 C65.334,164.414931 65.612,163.884931 65.887,163.364931 L110.503,177.424931 C110.417,178.004931 110.339,178.604931 110.257,179.204931" id="Fill-163" fill="#C46150"></path>
                <path d="M25.178,248.044931 C25.178,248.044931 60.58,194.384931 63.909,180.604931 L25.178,248.044931" id="Fill-164" fill="#D7A22F"></path>
                <path d="M96.508,270.524931 C96.508,270.524931 98.27,206.264931 103.447,193.064931 L96.508,270.524931" id="Fill-165" fill="#D7A22F"></path>
                <path d="M50.591,246.924931 C50.591,246.924931 76.583,188.124931 77.576,173.974931 L50.591,246.924931" id="Fill-166" fill="#D7A22F"></path>
                <path d="M40.415,242.894931 C40.415,242.894931 57.525,209.884931 61.954,199.694931 C61.954,199.694931 51.723,230.614931 40.415,242.894931" id="Fill-167" fill="#D7A22F"></path>
                <path d="M83.696,267.064931 C83.696,267.064931 92.462,230.934931 94.339,219.984931 C94.339,219.984931 91.755,252.444931 83.696,267.064931" id="Fill-168" fill="#D7A22F"></path>
                <path d="M52.461,263.014931 C52.461,263.014931 66.853,228.734931 70.448,218.224931 C70.448,218.224931 62.74,249.854931 52.461,263.014931" id="Fill-169" fill="#D7A22F"></path>
                <path d="M80.383,238.344931 C80.383,238.344931 90.641,202.604931 92.974,191.744931 C92.974,191.744931 89.044,224.064931 80.383,238.344931" id="Fill-170" fill="#D7A22F"></path>
                <path d="M71.694,163.954931 C71.872,163.704931 78.644,148.672931 83.75,144.389931 L71.872,163.704931 L71.694,163.954931" id="Fill-171" fill="#D7A22F"></path>
                <path d="M77.054,165.644931 C77.233,165.394931 82.982,147.803931 88.091,143.520931 L77.233,165.394931 L77.054,165.644931" id="Fill-172" fill="#D7A22F"></path>
                <path d="M106.073,174.784931 C106.067,174.484931 109.142,158.284931 107.412,151.844931 L106.067,174.484931 L106.073,174.784931" id="Fill-173" fill="#D7A22F"></path>
                <path d="M92.863,169.834931 C92.91,169.534931 98.638,154.074931 98.005,147.436931 L92.91,169.534931 L92.863,169.834931" id="Fill-174" fill="#D7A22F"></path>
                <path d="M100.712,173.094931 C100.708,172.794931 106.085,155.084931 104.355,148.645931 L100.708,172.794931 L100.712,173.094931" id="Fill-175" fill="#D7A22F"></path>
                <path d="M153.596,269.894931 C153.596,269.894931 105.882,283.334931 64.75,268.524931 L64.75,261.944931 L50.49,180.224931 L169.775,181.954931 L153.596,262.494931 L153.596,269.894931" id="Fill-176" fill="#E98237"></path>
                <path d="M109.011,181.074931 L109.011,275.484931 C133.954,275.424931 153.596,269.894931 153.596,269.894931 L153.596,262.494931 L169.775,181.954931 L109.011,181.074931" id="Fill-177" fill="#D5732F"></path>
                <path d="M52.578,170.684931 C52.578,170.684931 44.004,171.274931 44.004,173.804931 L44.004,178.304931 C44.004,178.304931 46.449,185.574931 110.317,185.634931 C169.246,185.684931 171.695,182.284931 175.726,179.344931 C175.726,179.344931 175.841,174.034931 174.573,173.464931 C173.305,172.884931 172.698,171.614931 167.69,170.684931 C162.682,169.754931 52.578,170.684931 52.578,170.684931" id="Fill-178" fill="#EA9E65"></path>
                <path d="M174.573,173.464931 C173.305,172.884931 172.698,171.614931 167.69,170.684931 C166.305,170.434931 156.881,170.314931 143.973,170.284931 L109.011,177.954931 L109.011,185.624931 C109.447,185.624931 109.875,185.634931 110.317,185.634931 C169.246,185.684931 171.695,182.284931 175.726,179.344931 C175.726,179.344931 175.841,174.034931 174.573,173.464931" id="Fill-179" fill="#EB9055"></path>
                <path d="M171.695,172.684931 C171.695,175.794931 144.133,178.304931 110.133,178.304931 C76.133,178.304931 48.571,175.794931 48.571,172.684931 C48.571,169.584931 76.133,167.064931 110.133,167.064931 C144.133,167.064931 171.695,169.584931 171.695,172.684931" id="Fill-180" fill="#714023"></path>
                <path d="M49.91,170.914931 C49.91,170.914931 51.415,162.374931 57.517,162.384931 L57.226,169.804931 L51.694,170.914931 L49.91,170.914931" id="Fill-181" fill="#714023"></path>
                <path d="M51.694,170.914931 C51.694,170.914931 53.546,162.064931 57.768,162.394931 C58.685,162.464931 59.413,162.824931 59.991,163.344931 C62.072,165.224931 62.202,169.154931 62.202,169.154931 C62.202,169.154931 54.508,170.544931 51.694,170.914931" id="Fill-182" fill="#B16731"></path>
                <path d="M110.133,167.064931 L109.011,167.064931 L109.011,178.304931 L109.216,178.304931 L118.137,178.264931 C148.355,177.904931 171.695,175.544931 171.695,172.684931 C171.695,169.584931 144.133,167.064931 110.133,167.064931" id="Fill-183" fill="#58321E"></path>
                <path d="M59.899,165.924931 C59.899,166.974931 59.048,167.824931 57.998,167.824931 C56.947,167.824931 56.096,166.974931 56.096,165.924931 C56.096,164.874931 56.947,164.024931 57.998,164.024931 C59.048,164.024931 59.899,164.874931 59.899,165.924931" id="Fill-184" fill="#0A0A08"></path>
                <path d="M160.957,176.954931 C160.957,176.954931 162.462,168.414931 168.564,168.424931 L168.273,175.844931 L162.741,176.954931 L160.957,176.954931" id="Fill-185" fill="#714023"></path>
                <path d="M162.741,176.954931 C162.741,176.954931 164.593,168.094931 168.814,168.434931 C169.732,168.504931 170.46,168.864931 171.037,169.384931 C173.118,171.254931 173.248,175.194931 173.248,175.194931 C173.248,175.194931 165.555,176.584931 162.741,176.954931" id="Fill-186" fill="#B16731"></path>
                <path d="M170.946,171.964931 C170.946,173.014931 170.095,173.864931 169.044,173.864931 C167.994,173.864931 167.143,173.014931 167.143,171.964931 C167.143,170.914931 167.994,170.064931 169.044,170.064931 C170.095,170.064931 170.946,170.914931 170.946,171.964931" id="Fill-187" fill="#0A0A08"></path>
                <path d="M170.497,172.364931 L167.592,171.564931 C167.629,171.424931 171.244,157.814931 164.052,148.061931 C159.344,141.674931 151.031,138.239931 139.344,137.854931 C101.191,136.593931 59.305,166.834931 58.886,167.144931 L57.109,164.714931 C57.216,164.634931 67.961,156.824931 83.36,149.300931 C97.617,142.331931 118.925,134.170931 139.443,134.843931 C152.11,135.261931 161.211,139.113931 166.492,146.293931 C174.545,157.244931 170.666,171.754931 170.497,172.364931" id="Fill-188" fill="#EB9055"></path>
                <path d="M141.077,136.635931 C107.152,133.562931 66.412,160.204931 58.031,165.974931 L58.886,167.144931 C59.305,166.834931 101.191,136.593931 139.344,137.854931 C151.031,138.239931 159.344,141.674931 164.052,148.061931 C171.244,157.814931 167.629,171.424931 167.592,171.564931 L169.149,171.994931 C170.709,164.054931 172.892,139.516931 141.077,136.635931" id="Fill-189" fill="#D0743F"></path>
                <path d="M15.398,271.924931 C15.398,271.924931 0,275.914931 0,289.044931 C0,302.174931 13.107,302.424931 13.107,302.424931 C13.107,302.424931 11.692,310.604931 19.034,314.954931 C26.375,319.304931 33.717,307.604931 33.717,307.604931 C33.717,307.604931 32.357,319.304931 42.69,320.384931 C53.023,321.474931 55.763,310.054931 55.763,310.054931 C55.763,310.054931 58.189,322.834931 73.688,323.654931 C89.187,324.464931 98.432,304.344931 98.432,304.344931 C98.432,304.344931 98.11,317.394931 109.011,318.754931 C119.913,320.114931 128.614,310.294931 126.982,302.424931 C126.982,302.424931 142.209,314.644931 155.805,302.424931 C169.4,290.204931 152.814,275.254931 152.814,275.254931 C152.814,275.254931 150.445,264.374931 139.394,262.474931 C128.342,260.564931 123.448,274.984931 123.448,274.984931 C123.448,274.984931 123.448,257.034931 104.142,257.304931 C84.836,257.574931 86.714,269.524931 86.714,269.524931 C86.714,269.524931 75.732,250.984931 62.202,253.604931 C48.672,256.214931 38.611,269.764931 38.611,269.764931 C38.611,269.764931 35.348,244.254931 22.84,247.784931 C10.332,251.324931 3.06,265.884931 15.398,271.924931" id="Fill-190" fill="#A7CEDD"></path>
                <path d="M90.456,274.674931 C90.456,274.674931 92.631,262.354931 103.326,261.804931 C114.022,261.264931 121.816,280.664931 121.816,280.664931 C121.816,280.664931 130.324,267.784931 139.394,271.224931 C148.463,274.674931 146.832,282.474931 146.832,282.474931 C146.832,282.474931 155.171,282.114931 155.714,288.274931 C156.258,294.434931 144.475,309.124931 125.26,297.154931 C125.26,297.154931 122.724,313.074931 111.665,313.114931 C100.606,313.144931 98.069,296.974931 98.069,296.974931 C98.069,296.974931 90.764,317.274931 76.924,317.274931 C63.083,317.274931 57.773,302.174931 57.773,302.174931 C57.773,302.174931 51.859,316.194931 46.051,316.554931 C40.243,316.914931 36.408,302.804931 36.408,302.804931 C36.408,302.804931 31.729,310.854931 23.022,310.394931 C14.315,309.934931 17.107,293.454931 17.107,293.454931 C17.107,293.454931 7.613,295.884931 7.432,288.454931 C7.251,281.024931 20.484,275.484931 20.484,275.484931 C20.484,275.484931 13.676,272.324931 16.174,265.254931 C18.671,258.184931 28.788,251.324931 32.522,259.374931 C36.255,267.424931 61.633,261.444931 68.703,262.354931 C75.772,263.254931 86.714,273.934931 86.714,273.934931 L90.456,274.674931" id="Fill-191" fill="#BCE0E5"></path>
                <path d="M18.36,290.554931 L16.174,295.624931 L17.266,296.314931 L18.935,294.004931 L17.784,296.314931 L18.935,297.174931 L20.719,295.274931 L19.568,297.514931 L20.719,297.804931 L21.984,296.314931 L21.409,298.634931 L22.675,299.014931 L23.423,297.284931 L23.423,300.164931 L25.149,300.444931 L25.725,299.074931 L25.725,300.914931 L27.048,301.314931 L27.048,299.764931 L27.623,302.124931 L29.465,302.124931 L29.925,300.684931 L31.248,301.254931 L31.248,302.794931 L32.687,303.154931 L32.687,301.434931 L33.78,301.664931 L34.297,304.194931 L35.736,304.194931 L36.196,301.834931 L36.714,304.194931 L37.807,304.194931 L38.206,302.204931 L39.533,305.514931 L40.684,305.514931 L41.087,303.154931 L41.317,305.514931 L42.238,305.514931 L42.583,302.794931 L42.986,305.514931 L44.309,305.514931 L45.057,302.794931 L46.323,302.794931 L46.783,305.514931 L47.991,305.514931 L48.222,302.794931 L49.406,305.744931 L50.58,305.744931 L50.58,303.104931 L50.983,306.554931 L51.731,306.554931 L52.019,302.794931 L52.649,305.634931 L53.173,305.634931 L53.173,303.104931 L53.688,306.844931 L54.953,306.434931 L54.953,303.104931 L55.763,305.804931 L56.852,305.744931 L56.852,306.604931 L58.353,306.554931 L57.773,302.174931 L58.751,304.824931 L59.211,304.654931 L59.729,305.744931 L60.88,305.284931 L60.42,301.604931 L61.513,302.794931 L62.318,305.114931 L63.642,304.654931 L63.642,300.444931 L65.022,299.874931 L66.231,304.424931 L67.814,303.734931 L66.806,299.014931 L69.395,302.794931 L70.719,302.794931 L69.511,297.974931 L71.294,302.064931 L72.1,301.604931 L72.963,302.354931 L74.401,301.254931 L72.848,297.344931 L73.595,296.824931 L75.149,299.014931 L75.897,298.634931 L76.702,299.824931 L77.681,299.014931 L76.184,294.604931 L78.889,297.114931 L79.694,296.314931 L77.623,292.344931 L80.615,295.214931 L81.536,294.604931 L79.637,291.244931 L83.157,293.454931 L83.722,292.804931 L81.421,289.344931 L84.182,291.194931 L84.7,290.964931 L82.744,287.854931 L85.276,289.694931 L86.427,288.654931 L84.182,285.264931 L86.427,286.644931 L86.714,285.264931 L84.988,283.824931 L86.714,284.174931 L86.714,282.964931 L85.705,281.864931 L86.254,281.524931 L85.358,277.774931 C85.358,277.774931 78.256,289.524931 56.277,291.534931 C34.297,293.544931 18.36,290.554931 18.36,290.554931" id="Fill-192" fill="#DC9F6F"></path>
                <path d="M85.515,271.534931 C87.547,285.634931 73.028,299.394931 53.085,302.274931 C33.142,305.144931 15.328,296.044931 13.296,281.944931 C11.264,267.854931 25.784,254.094931 45.727,251.214931 C65.67,248.344931 83.484,257.444931 85.515,271.534931" id="Fill-193" fill="#643B83"></path>
                <path d="M82.994,266.284931 C84.819,278.944931 71.154,291.394931 52.472,294.084931 C33.79,296.774931 17.166,288.694931 15.341,276.034931 C13.516,263.364931 27.181,250.924931 45.863,248.224931 C64.545,245.534931 81.169,253.614931 82.994,266.284931" id="Fill-194" fill="#695493"></path>
                <path d="M57.237,250.684931 C62.412,247.224931 76.263,255.194931 76.924,255.574931 C70.103,249.494931 58.454,246.414931 45.863,248.224931 C27.181,250.924931 13.516,263.364931 15.341,276.034931 C15.356,276.134931 15.381,276.234931 15.398,276.344931 C17.87,262.164931 37.019,254.384931 45.001,261.444931 C52.993,268.524931 48.739,292.744931 48.419,294.494931 C49.756,294.414931 51.108,294.274931 52.472,294.084931 C53.363,293.954931 54.238,293.794931 55.106,293.624931 L58.353,275.994931 C58.353,275.994931 51.935,254.244931 57.237,250.684931" id="Fill-195" fill="#55337D"></path>
                <path d="M37.483,250.164931 C37.483,250.164931 48.07,252.464931 51.522,263.514931 C54.975,274.564931 50.487,292.974931 50.487,292.974931 C50.487,292.974931 48.646,297.344931 52.213,299.534931 C55.78,301.714931 61.189,299.764931 61.649,295.964931 C62.109,292.164931 62.224,291.014931 62.224,291.014931 C62.224,291.014931 71.776,278.244931 65.907,262.934931 C60.038,247.634931 52.649,247.714931 52.649,247.714931 C52.649,247.714931 41.166,247.864931 37.483,250.164931" id="Fill-196" fill="#4DAE46"></path>
                <path d="M59.548,267.154931 C57.391,256.464931 51.79,250.644931 48.24,247.924931 C44.592,248.194931 39.667,248.804931 37.483,250.164931 C37.483,250.164931 48.07,252.464931 51.522,263.514931 C54.975,274.564931 50.487,292.974931 50.487,292.974931 C50.487,292.974931 48.646,297.344931 52.213,299.534931 C53.291,300.194931 54.537,300.474931 55.763,300.434931 L55.763,293.454931 C55.763,293.454931 62.811,283.334931 59.548,267.154931" id="Fill-197" fill="#3A803F"></path>
                <path d="M58.353,296.044931 C58.353,297.474931 57.194,298.634931 55.763,298.634931 C54.333,298.634931 53.173,297.474931 53.173,296.044931 C53.173,294.614931 54.333,293.454931 55.763,293.454931 C57.194,293.454931 58.353,294.614931 58.353,296.044931" id="Fill-198" fill="#0A0A08"></path>
                <path d="M108.221,271.684931 C108.221,274.344931 106.07,276.494931 103.417,276.494931 C100.764,276.494931 98.613,274.344931 98.613,271.684931 C98.613,269.034931 100.764,266.884931 103.417,266.884931 C106.07,266.884931 108.221,269.034931 108.221,271.684931" id="Fill-199" fill="#E5F3F1"></path>
                <path d="M139.394,278.894931 C139.394,280.224931 138.319,281.294931 136.992,281.294931 C135.665,281.294931 134.59,280.224931 134.59,278.894931 C134.59,277.564931 135.665,276.494931 136.992,276.494931 C138.319,276.494931 139.394,277.564931 139.394,278.894931" id="Fill-200" fill="#E5F3F1"></path>
                <path d="M111.414,306.844931 C111.414,308.164931 110.338,309.244931 109.011,309.244931 C107.685,309.244931 106.609,308.164931 106.609,306.844931 C106.609,305.514931 107.685,304.434931 109.011,304.434931 C110.338,304.434931 111.414,305.514931 111.414,306.844931" id="Fill-201" fill="#E5F3F1"></path>
                <path d="M17.58,258.144931 C17.58,259.474931 16.505,260.554931 15.178,260.554931 C13.851,260.554931 12.776,259.474931 12.776,258.144931 C12.776,256.824931 13.851,255.744931 15.178,255.744931 C16.505,255.744931 17.58,256.824931 17.58,258.144931" id="Fill-202" fill="#E5F3F1"></path>
                <path d="M77.631,306.844931 C77.631,308.164931 76.556,309.244931 75.229,309.244931 C73.902,309.244931 72.826,308.164931 72.826,306.844931 C72.826,305.514931 73.902,304.434931 75.229,304.434931 C76.556,304.434931 77.631,305.514931 77.631,306.844931" id="Fill-203" fill="#E5F3F1"></path>
                <path d="M92.436,296.154931 C92.436,298.404931 90.618,300.214931 88.375,300.214931 C86.131,300.214931 84.312,298.404931 84.312,296.154931 C84.312,293.914931 86.131,292.094931 88.375,292.094931 C90.618,292.094931 92.436,293.914931 92.436,296.154931" id="Fill-204" fill="#E5F3F1"></path>
            </g>
        </g>
    </g>
</svg>